<svg version="1.1" viewBox="0.0 0.0 960.0 540.0" fill="none" stroke="none" stroke-linecap="square" stroke-miterlimit="10" xmlns:xlink="http://www.w3.org/1999/xlink" xmlns="http://www.w3.org/2000/svg"><clipPath id="g26a9d554903_0_26.0"><path d="m0 0l960.0 0l0 540.0l-960.0 0l0 -540.0z" clip-rule="nonzero"/></clipPath><g clip-path="url(#g26a9d554903_0_26.0)"><path fill="#c6edcf" d="m0 0l960.0 0l0 540.0l-960.0 0z" fill-rule="evenodd"/><path fill="#000000" fill-opacity="0.0" d="m95.45407 269.4567l765.1339 0l0 252.09451l-765.1339 0z" fill-rule="evenodd"/><path fill="#ceffeb" d="m126.86032 342.6673q0 -6.609375 2.125 -10.65625q2.140625 -4.0625 4.15625 -6.078125q2.03125 -2.03125 2.03125 -2.03125l0 -11.953125q0 -10.015625 5.65625 -15.03125q5.65625 -5.015625 15.25 -5.015625q20.484375 0 20.484375 20.046875l45.21875 0q0 -20.046875 20.6875 -20.046875q10.03125 0 15.6875 5.015625q5.65625 5.015625 5.65625 15.03125l0 30.296875q0 10.453125 -6.828125 16.109375q-6.828125 5.65625 -19.625 5.65625l-77.015625 0q-18.34375 0 -25.921875 -5.859375q-7.5625 -5.875 -7.5625 -15.484375zm28.359375 -11.734375q1.078125 2.140625 2.5625 2.578125q1.5 0.421875 5.984375 0.421875l59.9375 0q2.34375 0 3.09375 -0.640625q0.75 -0.640625 0.75 -2.5625q0 -1.921875 -0.75 -2.453125q-0.75 -0.53125 -3.09375 -0.53125l-65.484375 0q-2.140625 0 -3.0 0.75q-0.84375 0.734375 0 2.4375zm-29.859375 71.6875q-6.609375 0 -11.3125 -4.375q-4.6875 -4.375 -4.6875 -12.265625q0 -8.109375 4.796875 -12.265625q4.796875 -4.15625 11.84375 -4.15625l142.07812 0q7.25 0 11.625 4.375q4.375 4.359375 4.375 12.046875q0 7.46875 -4.375 12.0625q-4.375 4.578125 -11.625 4.578125l-54.609375 0q-7.265625 0 -7.890625 6.609375l38.171875 0q9.390625 0 13.328125 2.984375q3.953125 2.984375 3.953125 12.375q0 9.171875 -3.953125 12.59375q-3.9375 3.40625 -13.328125 3.40625l-92.15625 0q-2.765625 0 -3.515625 0.21875q-0.75 0.203125 -0.75 1.921875q0 1.484375 0.75 2.015625q0.75 0.53125 3.515625 0.53125l96.859375 0q10.875 0 15.5625 3.203125q4.703125 3.203125 4.703125 12.375q0 9.171875 -4.703125 12.6875q-4.6875 3.53125 -15.5625 3.53125l-96.640625 0q-9.59375 0 -15.46875 -1.71875q-5.859375 -1.703125 -8.53125 -6.71875q-2.671875 -5.0 -2.671875 -14.390625q0 -11.3125 5.4375 -15.359375q5.453125 -4.0625 16.109375 -4.0625l81.703125 0q1.5 0 2.25 -0.3125q0.75 -0.328125 0.75 -2.03125q0 -1.703125 -0.75 -2.015625q-0.75 -0.328125 -2.25 -0.328125l-85.53125 0q-5.34375 0 -8.859375 -2.34375q-3.515625 -2.34375 -3.515625 -8.109375q0 -5.546875 3.40625 -8.0q3.421875 -2.453125 8.96875 -2.453125l39.671875 0l0 -6.609375l-57.171875 0zm301.21503 -17.0625q-9.8125 -0.21875 -14.71875 -5.546875q-4.90625 -5.34375 -4.484375 -12.8125q0.4375 -4.90625 2.140625 -7.671875q1.703125 -2.78125 3.296875 -5.125q1.609375 -2.34375 1.609375 -5.96875q0 -3.84375 -2.03125 -5.546875q-2.015625 -1.703125 -7.5625 -1.703125l-73.171875 0q-10.25 0 -16.328125 -6.609375q-6.078125 -6.625 -6.078125 -15.796875q0 -9.390625 6.078125 -15.03125q6.078125 -5.65625 16.328125 -5.65625l86.390625 0q16.640625 0 23.25 7.15625q6.625 7.140625 7.890625 21.21875q1.078125 9.171875 0.859375 17.921875q-0.21875 8.734375 -1.921875 20.90625q-1.0625 8.53125 -5.328125 14.5q-4.265625 5.96875 -16.21875 5.765625zm-132.46875 25.8125q0 -9.390625 5.859375 -14.71875q5.875 -5.34375 14.40625 -5.34375l137.17188 0q8.09375 0 13.640625 5.65625q5.546875 5.65625 5.546875 14.40625q0 8.734375 -5.546875 14.390625q-5.546875 5.65625 -13.640625 5.65625l-56.75 0q-2.984375 0 -3.84375 2.03125q-0.84375 2.015625 1.5 3.734375q2.765625 2.125 6.171875 6.296875q3.421875 4.15625 3.421875 11.828125q0 9.171875 -5.65625 15.359375q-5.640625 6.1875 -18.234375 6.1875q-10.453125 0 -17.28125 -6.1875q-6.828125 -6.1875 -6.828125 -15.359375q0 -6.1875 2.03125 -10.015625q2.03125 -3.84375 4.6875 -6.078125q2.671875 -2.25 4.6875 -3.09375q2.03125 -0.859375 2.03125 -0.859375l-2.34375 -3.84375l-51.203125 0q-8.09375 0 -13.96875 -5.328125q-5.859375 -5.34375 -5.859375 -14.71875zm290.1213 -97.921875q0 -8.75 5.65625 -14.71875q5.65625 -5.96875 15.46875 -5.96875q9.374939 0 14.812439 6.078125q5.453125 6.078125 5.453125 15.03125l0 51.625l3.40625 1.0625q1.703125 -7.03125 5.96875 -11.1875q4.28125 -4.171875 10.890625 -4.171875q7.46875 0 12.265625 5.65625q4.796875 5.65625 4.796875 15.046875q0 9.8125 -5.234375 15.25q-5.21875 5.4375 -11.828125 5.4375q-5.546875 0 -9.171875 -2.984375q-3.625 -2.984375 -5.984375 -7.046875q-1.484375 -2.546875 -3.296875 -1.796875q-1.8125 0.734375 -1.8125 3.71875l0 73.171875q0 8.109375 -5.65625 13.65625q-5.65625 5.546875 -14.609314 5.546875q-9.171875 0 -15.15625 -5.546875q-5.96875 -5.546875 -5.96875 -13.65625l0 -144.20312zm-54.390625 133.54688q-13.875 0 -24.21875 -5.765625q-10.34375 -5.765625 -16.109375 -16.21875q-5.75 -10.453125 -5.75 -24.53125q0 -10.65625 2.984375 -18.96875q2.984375 -8.328125 7.453125 -13.875q4.484375 -5.546875 8.546875 -7.46875l-1.921875 -4.6875l-2.34375 0q-8.546875 0 -13.5625 -4.796875q-5.0 -4.8125 -5.0 -15.46875q0 -10.671875 5.0 -15.46875q5.015625 -4.8125 13.5625 -4.8125l8.953125 0l0 -2.34375q0 -8.734375 5.4375 -13.421875q5.4375 -4.703125 15.25 -4.703125q10.03125 0 15.46875 4.796875q5.4375 4.796875 5.4375 13.765625l0 1.90625l10.671875 0q9.390625 0 14.609375 4.8125q5.234375 4.796875 5.234375 15.46875q0 10.453125 -5.234375 15.359375q-5.21875 4.90625 -14.609375 4.90625l-1.28125 0l0 0.203125q2.34375 1.703125 6.1875 6.296875q3.84375 4.578125 6.828125 12.90625q2.984375 8.3125 2.984375 21.96875q0 23.25 -11.515625 36.703125q-11.515625 13.4375 -33.0625 13.4375zm-22.828125 -69.765625q0 13.234375 3.40625 18.140625q3.421875 4.90625 10.671875 4.90625q7.46875 0 10.5625 -4.796875q3.09375 -4.8125 3.09375 -18.25q0 -11.9375 -3.421875 -16.734375q-3.40625 -4.8125 -10.453125 -4.8125q-7.25 0 -10.5625 4.703125q-3.296875 4.6875 -3.296875 16.84375zm286.71503 34.5625q-7.265625 -0.859375 -12.0625 -5.21875q-4.796875 -4.375 -6.296875 -10.5625q-1.484375 -6.1875 0.859375 -12.59375q2.140625 -5.765625 5.765625 -8.640625q3.625 -2.875 7.25 -4.6875q3.625 -1.8125 6.1875 -4.15625q2.5625 -2.359375 2.5625 -7.46875q0 -4.703125 -2.359375 -6.609375q-2.34375 -1.921875 -7.890625 -1.921875l-82.765625 0q-10.453125 0 -16.53125 -6.71875q-6.078125 -6.734375 -6.078125 -15.6875q0 -9.171875 6.078125 -15.5625q6.078125 -6.40625 16.53125 -6.40625l81.484375 0q16.859375 0 25.8125 7.46875q8.96875 7.453125 11.09375 21.546875q1.28125 9.171875 1.28125 23.578125q0 14.390625 -2.984375 29.53125q-2.34375 12.375 -10.03125 18.890625q-7.671875 6.5 -17.90625 5.21875zm-126.9375 29.21875q0 -9.375 6.078125 -15.03125q6.078125 -5.65625 14.40625 -5.65625l42.234375 0l2.765625 -4.484375q-2.984375 -1.484375 -7.25 -6.0625q-4.265625 -4.59375 -4.265625 -14.203125q0 -8.734375 6.1875 -15.234375q6.1875 -6.515625 17.703125 -6.515625q11.53125 0 17.390625 6.609375q5.875 6.609375 5.875 15.140625q0 7.46875 -2.78125 11.640625q-2.765625 4.15625 -5.125 6.703125q-2.546875 2.359375 -0.84375 4.390625q1.703125 2.015625 3.84375 2.015625l59.296875 0q8.328125 0 13.765625 5.875q5.4375 5.859375 5.4375 14.8125q0 9.171875 -5.4375 15.15625q-5.4375 5.96875 -13.765625 5.96875l-135.46875 0q-7.890625 0 -13.96875 -5.65625q-6.078125 -5.65625 -6.078125 -15.46875z" fill-rule="nonzero"/><path fill="#000000" fill-opacity="0.0" d="m95.45407 51.553806l765.1339 0.09448624l0 252.09448l-765.1339 -0.09448242z" fill-rule="evenodd"/><path fill="#ceffeb" d="m236.29782 195.18805q-7.265625 -0.86027527 -12.0625 -5.235855q-4.796875 -4.375595 -6.296875 -10.657028q-1.484375 -6.297058 0.859375 -12.484268q2.140625 -5.7653656 5.546875 -8.858704q3.40625 -3.0933228 6.8125 -4.9053955q3.421875 -1.812088 5.765625 -4.155548q2.359375 -2.34346 2.359375 -6.827835q0 -8.953125 -10.25 -8.9543915l-81.484375 -0.010055542q-10.453125 -0.0012969971 -16.53125 -6.6114197q-6.078125 -6.6257477 -6.078125 -15.578873q0 -9.390625 6.078125 -15.780502q6.078125 -6.4055023 16.53125 -6.4042053l81.484375 0.010063171q16.859375 0.0020828247 25.8125 7.4719315q8.96875 7.469864 11.09375 21.548248q1.28125 9.390785 1.28125 23.797028q0 14.390625 -2.984375 29.312134q-2.34375 12.37471 -10.03125 18.889389q-7.671875 6.499054 -17.90625 5.4352875zm-126.9375 27.92183q0 -9.375 6.078125 -15.030502q6.078125 -5.6555023 14.40625 -5.6544647l135.03125 0.016662598q8.328125 0.0010375977 13.765625 5.876709q5.4375 5.8600464 5.4375 14.813171q0 9.171875 -5.4375 15.155579q-5.4375 5.9680786 -13.765625 5.967041l-135.46875 -0.016723633q-7.890625 -9.765625E-4 -13.96875 -5.6579742q-6.078125 -5.6569977 -6.078125 -15.469498zm276.2619 -96.80964q0 -8.328125 4.578125 -14.29631q4.59375 -5.968178 11.84375 -5.967285q6.609375 8.163452E-4 10.453125 2.7669144l0 -13.4375q0 -8.75 5.75 -14.18679q5.765625 -5.436783 15.578125 -5.4355774q9.609375 0.0011901855 15.15625 5.548752q5.546875 5.5475616 5.546875 14.516312l0 64.62499q0 8.109375 -5.765625 13.655548q-5.75 5.546158 -14.9375 5.5450287q-9.171875 -0.0011291504 -15.25 -5.548767q-6.078125 -5.5476227 -6.078125 -13.656998l0 -16.421875q-3.203125 2.3433533 -10.453125 2.3424683q-7.890625 -9.765625E-4 -12.15625 -6.0796356q-4.265625 -6.078644 -4.265625 -13.969276zm-48.859375 51.19709q-9.59375 -0.0011749268 -18.234375 -1.924118q-8.640625 -1.9229431 -14.078125 -7.0329895q-5.4375 -5.1256714 -5.4375 -14.735046q0 -7.890625 2.765625 -12.265289q2.78125 -4.374649 6.515625 -6.3898163q3.734375 -2.0307922 6.078125 -2.6711273q-2.34375 -2.89917E-4 -4.90625 -1.5943604q-2.5625 -1.6096802 -2.5625 -5.875313q0 -7.46875 10.234375 -7.4674835l39.6875 -0.19822693q2.984375 3.6621094E-4 3.9375 -0.5307617q0.96875 -0.5467529 0.96875 -2.031128q0 -2.78125 -5.125 -2.7818832l-39.890625 -0.004928589q-6.609375 -8.163452E-4 -12.15625 -3.735878q-5.546875 -3.7350616 -5.546875 -12.906937q0 -8.75 5.4375 -12.905579q5.4375 -4.1555786 12.046875 -4.1547623l38.828125 0.004798889q12.59375 0.0015563965 19.515625 5.549286q6.9375 5.5477295 6.9375 16.86023l0 9.59375q0 11.515625 -5.34375 16.968094q-5.328125 5.4368362 -18.546875 5.4352036l-35.203125 -0.004348755q-4.90625 -5.950928E-4 -4.90625 2.98378q0 1.921875 1.171875 2.2501373q1.171875 0.3126526 3.734375 0.31295776l40.109375 0.0049591064q12.59375 0.0015563965 19.203125 4.26799q6.609375 4.266449 6.609375 14.922699q0 10.453125 -6.609375 15.264801q-6.609375 4.7960663 -19.203125 4.79451l-26.03125 -0.0032196045zm-13.21875 56.732742q0 -7.03125 2.5625 -11.515305q2.5625 -4.4840546 5.75 -6.827408q3.203125 -2.3433685 4.90625 -2.561905l0 -0.203125q-5.96875 -7.324219E-4 -9.59375 -3.938675q-3.625 -3.9535828 -3.625 -10.578583q0 -6.1875 3.734375 -10.452667q3.734375 -4.265152 11.40625 -4.264206l86.828125 0.010726929q25.171875 0.0030975342 25.171875 24.971848l0 26.453125q0 23.67189 -25.171875 23.668777l-66.984375 -0.008270264q-17.921875 -0.0022277832 -26.453125 -6.5189056q-8.53125 -6.501053 -8.53125 -18.235428zm21.546875 -17.481705q0 2.125 1.0625 2.765747q1.0625 0.6407623 4.484375 0.6411896l58.453125 0.007217407q3.40625 4.119873E-4 4.359375 -0.64009094q0.96875 -0.6405029 0.96875 -2.765503q0 -2.34375 -0.96875 -2.984497q-0.953125 -0.6407471 -4.359375 -0.64115906l-58.453125 -0.007217407q-3.421875 -4.272461E-4 -4.484375 0.6400604q-1.0625 0.6405029 -1.0625 2.984253zm273.2775 -124.122505q0 -8.75 4.796875 -13.218163q4.796875 -4.48378 12.46875 -4.482834q7.6875 9.460449E-4 12.484375 4.485916q4.796875 4.469345 4.796875 13.219345l0 148.46875q0 8.75 -4.796875 13.32753q-4.796875 4.593155 -12.484375 4.592209q-7.671875 -9.460449E-4 -12.46875 -4.595291q-4.796875 -4.57872 -4.796875 -13.32872l0 -148.46875zm-134.82806 87.65522q-0.21875 -12.7969055 2.765625 -21.109024q2.984375 -8.327759 7.46875 -12.702209q4.484375 -4.3744507 8.328125 -5.6552277l-1.71875 -4.6877136q-4.90625 -5.950928E-4 -9.171875 -4.579254q-4.265625 -4.5942764 -4.6875 -12.922447q-0.859375 -13.218857 8.640625 -21.639565q9.5 -8.436325 28.046875 -8.434036q19.203125 0.0023727417 30.5 11.003769q11.3125 10.985771 14.9375 33.79872l4.484375 5.493164E-4q6.40625 7.9345703E-4 6.40625 -6.8117065l0 -31.578125q0 -7.890625 4.6875 -12.37442q4.6875 -4.483795 11.953125 -4.4829025q7.03125 8.69751E-4 11.828064 4.48584q4.8125 4.48497 4.8125 12.375595l0 143.78125q0 7.890625 -4.8125 12.37442q-4.796814 4.48378 -11.828064 4.48291q-7.265625 -9.0026855E-4 -11.953125 -4.485855q-4.6875 -4.484955 -4.6875 -12.37558l0 -82.34375l-9.171875 -0.0011291504l0 1.0625q0 24.328125 -5.546875 39.57744q-5.546875 15.249313 -15.578125 22.404327q-10.03125 7.139389 -23.46875 7.137726q-10.03125 -0.0012359619 -19.625 -4.908676q-9.59375 -4.90744 -15.890625 -15.142578q-6.296875 -10.250778 -6.71875 -26.25084zm36.046875 -1.9174194q6.1875 7.6293945E-4 9.171875 -5.217621q2.984375 -5.234009 2.984375 -18.452759q0 -13.875 -3.09375 -18.984756q-3.09375 -5.1253815 -9.0625 -5.126114q-6.609375 -8.239746E-4 -9.8125 5.1237793q-3.203125 5.1089935 -3.203125 18.983994q0 13.015625 3.203125 18.344131q3.203125 5.3285217 9.8125 5.3293457zm206.93378 10.916183q-21.546875 -0.002670288 -31.6875 -8.5351715q-10.125 -8.548126 -10.125 -22.829376q0 -8.109375 2.875 -13.327774q2.890625 -5.234009 6.9375 -8.21788q4.046875 -2.9995117 7.03125 -3.8428802l-1.90625 -3.6252441q-6.625 -8.239746E-4 -11.3125 -6.392021q-4.6875 -6.40683 -4.6875 -14.31308q0 -8.09375 5.0 -14.171257q5.015625 -6.093132 13.765625 -6.0920486l91.515625 0.011299133q10.03125 0.0012435913 15.140625 5.876869q5.125 5.8600082 5.125 14.610008q0 8.53125 -5.125 14.608742q-5.109375 6.0774918 -15.140625 6.076256l-71.671875 -0.008850098q-4.265625 -5.187988E-4 -6.515625 2.1398163q-2.234375 2.1247253 -0.3125 5.5468445q2.34375 3.84404 4.046875 6.0786285q1.71875 2.2345734 4.484375 3.2036743q2.78125 0.9534607 8.109375 0.9541321l65.28125 0.008056641q12.578125 0.0015563965 18.125 5.549118q5.546875 5.5475464 5.546875 14.938171q0 9.8125 -5.546875 15.796204q-5.546875 5.9680634 -17.921875 5.9665375l-33.484375 -0.004135132l0 6.1875q0 7.03125 8.3125 7.0322723l49.703125 0.006134033q8.328125 0.0010223389 13.875 5.876709q5.546875 5.8600616 5.546875 14.813187q0 9.171875 -5.546875 15.155563q-5.546875 5.9680634 -13.875 5.967041l-135.45312 -0.016723633q-7.890625 -9.765625E-4 -13.875 -5.657959q-5.96875 -5.6569977 -5.96875 -15.469498q0 -9.375 5.96875 -15.030502q5.984375 -5.6555176 14.296875 -5.6544952l52.6875 0.006515503l0 -13.21875l-13.21875 -0.0016326904z" fill-rule="nonzero"/><path fill="#000000" fill-opacity="0.0" d="m388.0059 159.67503l74.24603 -28.824814l28.004852 75.80463l-74.24606 28.824814z" fill-rule="evenodd"/><path fill="#403b3b" d="m450.76413 201.9689l-16.354675 -44.26947l6.0010986 -2.329834l6.4606323 17.487915l6.5983276 -2.5616913l2.1282654 5.760895l-6.598297 2.5616913l7.765747 21.02066l-6.0010986 2.329834zm-38.032745 -13.460327q-2.8647766 -7.754486 -1.6879272 -13.675537q1.1914368 -5.926712 6.4933777 -7.9851074q5.3165283 -2.0640411 10.053375 1.5611115q4.7368774 3.6251526 7.601654 11.379639q2.881012 7.798462 1.6750183 13.73082q-1.2059631 5.932373 -6.5224915 7.996414q-5.301941 2.0583954 -10.024231 -1.572403q-4.707733 -3.6364594 -7.5887756 -11.434937zm5.957428 -2.3128662q1.2834473 3.4741364 2.7426453 5.8911285q1.4683228 2.3966827 3.290924 3.6333923q1.8317261 1.2164001 3.6670227 0.50387573q2.723816 -1.0574799 2.7800293 -4.917618q0.050811768 -3.8748016 -1.9204407 -9.210602q-1.9874573 -5.3797607 -4.4931335 -8.195007q-2.4965515 -2.8355713 -5.264038 -1.7611237q-1.8789978 0.7294769 -2.4543457 2.91391q-0.560791 2.1787872 -0.08834839 4.945343q0.47247314 2.7665558 1.739685 6.196701z" fill-rule="nonzero"/><path fill="#000000" fill-opacity="0.0" d="m323.51846 236.45992l40.534027 -61.10643l66.33566 46.163254l-40.534027 61.10643z" fill-rule="evenodd"/><path fill="#403b3b" d="m383.7309 257.0278l-10.198517 -7.097183l15.063171 -22.708221l-2.4758606 -1.7229614l-15.175446 22.877487l-4.1435547 -2.8834991l18.621674 -28.072784l10.160034 7.070389l-15.037262 22.669174l2.552826 1.7765198l15.58139 -23.489471l4.105072 2.8567352l-19.053528 28.723816zm-22.684753 -8.11676l-3.9895935 -2.7763824l10.943237 -16.497314l-3.8484802 -2.6781769l3.4980164 -5.2734222l3.8485107 2.6781921l10.882782 -16.406174l3.989624 2.7763824l-25.324097 38.176895zm-3.278717 -10.179703l-11.622467 -8.0881195l18.353912 -27.669128l4.015259 2.7942352l-14.881775 22.434784l3.5791016 2.4907074l15.011322 -22.630096l4.0281067 2.8031616l-18.48346 27.864456z" fill-rule="nonzero"/><path fill="#000000" fill-opacity="0.0" d="m629.4859 326.34158l-47.196777 55.091064l-60.044495 -54.111176l47.196777 -55.091034z" fill-rule="evenodd"/><path fill="#403b3b" d="m552.1628 321.08612l35.064636 31.59964l-3.9645996 4.627716l-35.064575 -31.59964l3.9645386 -4.627716zm26.574097 4.645294l4.5166016 4.070282l-3.2529907 3.7970886l12.353882 11.133118l-3.7003174 4.319214l-32.568237 -29.350006l3.7002563 -4.319214l15.697815 14.146606l3.2529907 -3.7970886zm3.6052246 -26.567413l3.9360352 3.5471191l-2.7650757 3.227539l17.416199 15.69519l2.185608 -2.551178l3.9360962 3.5471191l-14.547058 16.980164l-3.9360352 -3.5471191l2.0941162 -2.4443665l-17.230408 -15.5278015q-1.1283569 1.3171387 -2.8044434 3.8018494l-3.715454 -3.348297q5.518921 -7.810913 12.472229 -15.927216l2.958191 -3.453003zm-2.305664 10.832825l-0.7420654 0.86621094q-0.22363281 0.26104736 -2.4369507 3.0606384l17.311707 15.601013l3.2835083 -3.8327026l-17.416199 -15.69516z" fill-rule="nonzero"/><path fill="#000000" fill-opacity="0.0" d="m506.19257 128.82285l71.11371 36.20114l-35.198486 72.7289l-71.11374 -36.20114z" fill-rule="evenodd"/><path fill="#403b3b" d="m517.9944 204.55888l20.560547 -42.48323l5.7369385 2.9204407l-8.271851 17.091766l6.6141357 3.3670044l-2.695984 5.5706635l-6.614197 -3.3670197l-9.592651 19.820816l-5.7369385 -2.9204407zm-23.622559 -23.84256q9.736267 -1.0399628 17.06549 -5.4618073q7.3360596 -4.435913 10.388245 -10.491501l-13.49292 -6.8687134l2.4781494 -5.1204987l19.43872 9.895493q-2.7368164 5.6550446 -6.4421997 9.94043q-3.6846924 4.2783813 -8.075684 7.0400085q-4.377136 2.768692 -9.055634 4.3670654q-4.6716614 1.5843048 -10.078552 2.3209686l-2.2256165 -5.6214447z" fill-rule="nonzero"/><path fill="#000000" fill-opacity="0.0" d="m587.10913 178.426l49.373474 63.74666l-62.672485 51.035446l-49.373474 -63.746674z" fill-rule="evenodd"/><path fill="#403b3b" d="m550.9565 231.21303l11.622742 -9.464584l3.8461914 4.9659424l-7.3687134 6.0004883l16.963684 21.901978l-4.2539673 3.4641113l-20.809937 -26.867935zm9.742432 -16.817047l4.1448975 -3.3752747l28.052673 36.219193l-4.1448975 3.3752747l-28.052673 -36.219193zm12.939087 -1.7939453l12.325623 -10.037003l3.874939 5.0029907l-8.289795 6.7505493l16.90625 21.827866l-4.0358276 3.2864532l-20.781189 -26.830856z" fill-rule="nonzero"/><path fill="#000000" fill-opacity="0.0" d="m568.92474 389.88223l-65.459656 29.559723l-31.827332 -74.280396l65.45972 -29.559723z" fill-rule="evenodd"/><path fill="#403b3b" d="m504.77295 350.6694l18.588013 43.381775l-5.909729 2.6686707l-7.2444153 -16.90741l-6.6217957 2.9902039l-2.4189148 -5.645355l6.6217957 -2.9902039l-8.924713 -20.82901l5.9097595 -2.6686707zm29.963257 -2.3010864l12.845398 29.9794l-19.936523 9.002777l-2.1480713 -5.013336l14.297363 -6.4562683l-8.549255 -19.952759l-1.0395508 0.4694519q-8.15979 3.6846924 -16.122314 8.583313l-2.0126343 -4.697296q9.094482 -5.786957 20.942505 -11.1371765l1.7230835 -0.7781067z" fill-rule="nonzero"/><path fill="#000000" fill-opacity="0.0" d="m468.7717 421.06107l-69.335236 -17.9917l19.404297 -78.444855l69.335236 17.9917z" fill-rule="evenodd"/><path fill="#403b3b" d="m471.5858 363.16245l-1.3432922 5.4304504l-15.517334 -4.026581l-4.014862 16.230652l-6.2764893 -1.6286926l4.0148315 -16.230652l-22.595398 -5.8632507l1.3432922 -5.43042l44.38925 11.518494zm-13.480438 29.771637l-1.3545532 5.475952l-33.57553 -8.712463q3.2681885 -13.212067 8.976685 -24.903015l6.079895 1.5776367q-2.489441 4.858612 -4.6035767 10.347321q-2.1292725 5.484741 -3.0185547 9.079773l27.495636 7.134796z" fill-rule="nonzero"/><path fill="#000000" fill-opacity="0.0" d="m378.80185 381.54355l-48.072754 -54.301697l59.22162 -55.0094l48.072784 54.301697z" fill-rule="evenodd"/><path fill="#403b3b" d="m393.42773 304.31888l-34.583374 32.123566l-4.267151 -4.820038l34.583374 -32.123566l4.267151 4.820038zm14.873291 33.300995q-14.974396 -3.5727844 -24.589233 5.272888l-3.0460815 2.8294373l6.5975037 7.452362l-4.3171997 4.010132l-17.451782 -19.713074l4.3171997 -4.010132l6.597473 7.452362l2.9773865 -2.765625q2.5994873 -2.4145813 4.312042 -5.689575q1.6907349 -3.276062 2.354309 -6.557373q0.6520996 -3.2706604 0.7774353 -6.0520325q0.1138916 -2.770752 -0.17193604 -5.1915283l5.7912292 0.48358154q0.3826599 3.5673523 -0.22720337 8.6536255q-0.6213684 5.0968933 -2.1829224 8.636719q3.460205 -1.4658813 9.045471 -1.6864014q5.585266 -0.22055054 9.20752 0.80667114l0.0087890625 6.0679626z" fill-rule="nonzero"/><path fill="#000000" fill-opacity="0.0" d="m915.90027 153.9055l-9.637817 233.73228l-38.80316 -1.5433044l9.637817 -233.73228z" fill-rule="evenodd"/><path fill="#15004b" d="m903.8148 164.18333q-0.4058838 -0.016159058 -0.69592285 0.1912384q-0.2744751 0.20800781 -0.5078125 0.5583801q-0.23406982 0.36598206 -0.48754883 0.82502747q-0.20281982 0.36723328 -0.42059326 0.7182312q-0.20281982 0.36721802 -0.4654541 0.66952515q-0.24707031 0.30291748 -0.59765625 0.46098328q-0.3355713 0.17430115 -0.8039551 0.15567017q-0.51519775 -0.020492554 -0.95513916 -0.35072327q-0.44049072 -0.31463623 -0.7145996 -0.8728485q-0.25854492 -0.55758667 -0.22698975 -1.3225555q0.032836914 -0.7962036 0.35333252 -1.36203q0.32043457 -0.5658417 0.7698364 -0.8450775q0.46496582 -0.27861023 0.9177246 -0.26060486q0.2654419 0.010559082 0.39886475 0.18786621q0.1328125 0.19293213 0.13555908 0.5057831q0.0014038086 0.3440857 -0.21777344 0.35099792q-0.09436035 0.011886597 -0.15356445 -0.06864929q-0.04425049 -0.064315796 -0.18414307 -0.085510254q-0.2803955 -0.026794434 -0.6465454 0.13066101q-0.36621094 0.15744019 -0.6477051 0.53718567q-0.26586914 0.38035583 -0.2890625 0.94236755q-0.02319336 0.562027 0.18060303 0.9297943q0.20379639 0.36776733 0.5395508 0.5687561q0.35131836 0.20162964 0.72540283 0.23214722q0.42156982 0.01676941 0.71417236 -0.25306702q0.29260254 -0.26983643 0.52856445 -0.68266296q0.23596191 -0.41282654 0.47320557 -0.85687256q0.22033691 -0.4134369 0.5037842 -0.8400116q0.28277588 -0.41096497 0.6846924 -0.67645264q0.4175415 -0.26486206 1.0108032 -0.24127197q0.4840088 0.019256592 0.87768555 0.332016q0.40930176 0.31340027 0.65283203 0.8547516q0.24353027 0.5413513 0.21392822 1.259491q-0.027709961 0.6713104 -0.31243896 1.1291046q-0.269104 0.4584198 -0.6378174 0.6783142q-0.3687744 0.21989441 -0.6966553 0.20684814q-0.4215088 -0.01676941 -0.46142578 -0.56565857q0.008361816 -0.20295715 0.07531738 -0.30975342q0.08190918 -0.09056091 0.15997314 -0.08746338q0.124938965 0.0049743652 0.20037842 0.07052612q0.07489014 0.0811615 0.16918945 0.0692749q0.15545654 0.021820068 0.39483643 -0.09375q0.25494385 -0.11495972 0.4545288 -0.4041443q0.21520996 -0.2885437 0.23516846 -0.7725067q0.023132324 -0.562027 -0.18127441 -0.9141693q-0.18878174 -0.35153198 -0.4946289 -0.5200653q-0.29016113 -0.16792297 -0.571228 -0.1790924zm-7.107788 5.503845l-0.5145874 -0.036102295q-0.31158447 -0.028030396 -0.46191406 -0.17474365q-0.15100098 -0.13110352 -0.08673096 -0.550766l5.4866333 0.43714905q-0.5166626 -0.36457825 -1.1334839 -0.5767517q0.0026245117 -0.062454224 0.083862305 -0.1374054q0.08129883 -0.07495117 0.29730225 -0.0038146973q0.40203857 0.109817505 0.76904297 0.3120575q0.38256836 0.2028656 0.70080566 0.4500885l1.0441284 0.08843994q0.26538086 0.010559082 0.36566162 0.23345947q0.11590576 0.22354126 -0.0017700195 0.42214966l-0.7331543 -0.044799805q0.37231445 0.45265198 0.52471924 0.9278259q0.16809082 0.47581482 0.10321045 0.9110718q-0.10321045 0.60575867 -0.5258179 0.9955139q-0.4071045 0.39038086 -1.0230713 0.5378876q-0.6003418 0.14813232 -1.2990723 0.026519775q-0.60632324 -0.08665466 -1.1411743 -0.3894043q-0.5192261 -0.30212402 -0.87719727 -0.7229309q-0.3423462 -0.42018127 -0.44732666 -0.90911865q-0.0657959 -0.2997284 -0.018493652 -0.68878174q0.047302246 -0.38905334 0.22937012 -0.6320038q0.09881592 -0.121170044 0.19250488 -0.1174469q0.09301758 0.019348145 0.1385498 0.0524292q-0.19891357 0.27355957 -0.21502686 0.6638489q-0.016052246 0.3902893 0.20263672 0.774292q0.23309326 0.41583252 0.68927 0.73109436q0.47106934 0.33148193 1.1229858 0.4512329q0.60498047 0.117889404 1.1091309 0.0284729q0.51971436 -0.08879089 0.8585205 -0.34114075q0.33880615 -0.2523651 0.41864014 -0.671402q0.094177246 -0.38719177 -0.07519531 -0.83177185q-0.16992188 -0.42895508 -0.54418945 -0.83477783l-5.2387695 -0.3803711zm8.210205 5.307602q0.11053467 -0.026885986 0.15222168 0.099868774q0.04168701 0.12677002 0.0021362305 0.32847595q-0.039611816 0.20170593 -0.15661621 0.3847046q-0.11767578 0.1986084 -0.30889893 0.28482056q-0.20617676 0.069992065 -0.41827393 -0.094818115q-0.19720459 -0.14859009 -0.25128174 -0.35401917q-0.02734375 -0.09490967 0.012207031 -0.2966156q0.039001465 -0.18611145 0.22698975 -0.19425964q0.09362793 0.0037231445 0.29858398 -0.03504944q0.20489502 -0.038757324 0.44293213 -0.12310791zm-6.642456 -0.092178345l3.831665 0.37130737q0.016296387 -0.014984131 0.001953125 -0.046829224q0.0012817383 -0.031219482 -0.04107666 -0.1423645q-0.21612549 -0.44644165 0.10772705 -0.7150421q0.11779785 0.17669678 0.27923584 0.4333191q0.1763916 0.27285767 0.30725098 0.512619q0.14648438 0.24038696 0.15887451 0.31906128q0.056030273 0.15859985 -0.010314941 0.24978638q-0.051330566 0.107421875 -0.1918335 0.10183716l-4.173889 -0.416214q-0.124938965 -0.0049591064 -0.25177002 0.03691101q-0.111206055 0.04248047 -0.11828613 0.21421814q-0.0045166016 0.10926819 0.08276367 0.26911926q0.10217285 0.17607117 0.26812744 0.32341003q0.060546875 0.049316406 0.04168701 0.12675476q-0.019470215 0.093048096 -0.12750244 0.05747986q-0.34088135 -0.07611084 -0.6096802 -0.38391113q-0.26879883 -0.3078003 -0.2520752 -0.71369934q0.012878418 -0.3122406 0.22296143 -0.4758911q0.22497559 -0.14743042 0.47418213 -0.12187195zm-0.63635254 2.9171448l4.26947 0.37309265q0.049438477 -0.060577393 -0.05340576 -0.22103882q-0.20123291 -0.43022156 0.12390137 -0.73002625q0.1015625 0.19168091 0.2630005 0.44830322q0.1763916 0.2728424 0.32287598 0.51322937q0.14648438 0.24038696 0.15887451 0.31907654q0.040405273 0.15797424 -0.025878906 0.24916077q-0.0513916 0.107421875 -0.19122314 0.08621216l-1.5261841 -0.1545105q0.47558594 0.22219849 0.88427734 0.55119324q0.40802002 0.34461975 0.6553955 0.79229736q0.24743652 0.44769287 0.22619629 0.96287537q-0.00970459 0.23417664 -0.14550781 0.49461365q-0.120910645 0.2766571 -0.40899658 0.43721008q-0.28875732 0.17616272 -0.81829834 0.12382507l-3.0055542 -0.30718994q-0.1716919 -0.0068206787 -0.29852295 0.03504944q-0.12683105 0.04185486 -0.13391113 0.21359253q-0.0045166016 0.10928345 0.09893799 0.25413513q0.103515625 0.14485168 0.24078369 0.22850037q0.076171875 0.049942017 0.04168701 0.12675476q-0.018798828 0.077438354 -0.1274414 0.05747986q-0.30969238 -0.07487488 -0.56414795 -0.35083008q-0.25512695 -0.26034546 -0.23968506 -0.635025q0.013549805 -0.32783508 0.22296143 -0.4758911q0.22497559 -0.14741516 0.47479248 -0.13748169l3.317749 0.31959534q0.31097412 0.043655396 0.50671387 -0.15185547q0.21130371 -0.19487 0.24047852 -0.5220947q0.037475586 -0.5301819 -0.39404297 -1.063385q-0.41656494 -0.5169525 -1.3560791 -0.8670654q-0.15350342 -0.06866455 -0.37017822 -0.124191284q-0.20166016 -0.03929138 -0.43585205 -0.048614502l-1.3713379 -0.11708069q-0.37469482 -0.014907837 -0.50946045 -0.16099548q-0.13470459 -0.1461029 -0.072387695 -0.5189209zm-0.24780273 6.0086975l4.2695312 0.3731079q0.04937744 -0.06059265 -0.053466797 -0.22105408q-0.20117188 -0.4302063 0.1239624 -0.73002625q0.1015625 0.19169617 0.2630005 0.44830322q0.1763916 0.27285767 0.32287598 0.5132446q0.14648438 0.24038696 0.15887451 0.31906128q0.040405273 0.15797424 -0.025939941 0.24916077q-0.051330566 0.107421875 -0.19122314 0.08622742l-1.5261841 -0.15452576q0.47564697 0.22219849 0.8843384 0.5512085q0.40802002 0.3446045 0.6553955 0.79229736q0.24737549 0.4476776 0.22613525 0.9628601q-0.009643555 0.23417664 -0.14550781 0.49461365q-0.12084961 0.2766571 -0.40899658 0.43721008q-0.28875732 0.17616272 -0.81829834 0.12382507l-3.0054932 -0.30717468q-0.17175293 -0.0068359375 -0.29858398 0.03503418q-0.12683105 0.041870117 -0.13391113 0.21359253q-0.0045166016 0.10928345 0.09899902 0.25413513q0.103515625 0.14485168 0.24078369 0.22850037q0.07611084 0.049942017 0.04168701 0.12675476q-0.018798828 0.077438354 -0.1274414 0.05747986q-0.30969238 -0.07485962 -0.564209 -0.35081482q-0.25506592 -0.26034546 -0.23962402 -0.635025q0.0134887695 -0.32785034 0.22290039 -0.4758911q0.22503662 -0.14743042 0.47485352 -0.13749695l3.317749 0.3196106q0.31097412 0.043640137 0.50671387 -0.15185547q0.21130371 -0.19488525 0.24041748 -0.52211q0.03753662 -0.5301819 -0.39398193 -1.0633698q-0.41656494 -0.5169678 -1.3560791 -0.8670807q-0.15356445 -0.06864929 -0.37017822 -0.124191284q-0.20172119 -0.03929138 -0.4359131 -0.048599243l-1.3713379 -0.11709595q-0.37469482 -0.014907837 -0.5093994 -0.16099548q-0.13470459 -0.14608765 -0.07244873 -0.5189209zm6.906067 6.2150574q0.1105957 -0.026885986 0.15228271 0.099868774q0.04168701 0.12675476 0.0020751953 0.32847595q-0.039611816 0.20170593 -0.15661621 0.3847046q-0.117614746 0.1986084 -0.3088379 0.28482056q-0.20617676 0.069992065 -0.41833496 -0.094818115q-0.19720459 -0.14859009 -0.25128174 -0.35401917q-0.02734375 -0.09490967 0.012268066 -0.29663086q0.03894043 -0.18609619 0.22692871 -0.19425964q0.093688965 0.0037384033 0.29858398 -0.03503418q0.20489502 -0.038757324 0.44293213 -0.12310791zm-6.642456 -0.092178345l3.831726 0.37130737q0.016235352 -0.014984131 0.0018920898 -0.046829224q0.0012817383 -0.031219482 -0.041015625 -0.1423645q-0.21618652 -0.44644165 0.107666016 -0.7150421q0.11779785 0.17669678 0.27923584 0.4333191q0.17645264 0.27285767 0.307312 0.512619q0.14642334 0.24038696 0.15881348 0.31906128q0.056030273 0.15859985 -0.010253906 0.24978638q-0.0513916 0.107421875 -0.19189453 0.10183716l-4.173889 -0.416214q-0.12487793 -0.0049591064 -0.25170898 0.03691101q-0.11126709 0.04248047 -0.11834717 0.21421814q-0.0044555664 0.10926819 0.08276367 0.26911926q0.10223389 0.17607117 0.26812744 0.32341003q0.060546875 0.049316406 0.04168701 0.12675476q-0.019470215 0.093048096 -0.1274414 0.05747986q-0.34094238 -0.07611084 -0.6097412 -0.38391113q-0.2687378 -0.3078003 -0.25201416 -0.71369934q0.012878418 -0.3122406 0.22290039 -0.4758911q0.22503662 -0.14743042 0.47418213 -0.12187195zm-0.63635254 2.9171448l4.2695312 0.37309265q0.04937744 -0.060577393 -0.053466797 -0.22103882q-0.20117188 -0.43022156 0.12390137 -0.73002625q0.101623535 0.19168091 0.26306152 0.44830322q0.1763916 0.2728424 0.32287598 0.51322937q0.14642334 0.24038696 0.15881348 0.31907654q0.040405273 0.15797424 -0.025878906 0.24916077q-0.051330566 0.107421875 -0.19122314 0.08621216l-1.5261841 -0.15452576q0.47564697 0.22221375 0.88427734 0.5512085q0.40802002 0.34461975 0.65545654 0.79229736q0.24737549 0.44769287 0.22613525 0.96287537q-0.009643555 0.23417664 -0.14550781 0.4945984q-0.12084961 0.27667236 -0.40899658 0.43722534q-0.28875732 0.17616272 -0.81829834 0.12382507l-3.0054932 -0.30718994q-0.17175293 -0.0068206787 -0.29858398 0.03503418q-0.12683105 0.041870117 -0.13391113 0.21360779q-0.0045166016 0.10928345 0.09899902 0.25413513q0.10345459 0.14485168 0.24078369 0.22850037q0.07611084 0.049942017 0.04168701 0.12675476q-0.018859863 0.077438354 -0.12750244 0.05747986q-0.30969238 -0.07487488 -0.56414795 -0.35083008q-0.25512695 -0.26034546 -0.23962402 -0.635025q0.0134887695 -0.32783508 0.22290039 -0.4758911q0.22503662 -0.14741516 0.47479248 -0.13748169l3.31781 0.31959534q0.31097412 0.043655396 0.50665283 -0.15185547q0.21136475 -0.19487 0.24047852 -0.5220947q0.037475586 -0.5301819 -0.39404297 -1.063385q-0.41656494 -0.5169525 -1.3560181 -0.8670654q-0.15356445 -0.06866455 -0.37023926 -0.124191284q-0.20166016 -0.03929138 -0.43585205 -0.048614502l-1.3713379 -0.11708069q-0.37469482 -0.014907837 -0.5093994 -0.16099548q-0.13476562 -0.1461029 -0.07244873 -0.5189209zm0.5695801 9.700348q-0.9822998 -0.07034302 -1.7376709 -0.33494568q-0.75598145 -0.24899292 -1.171936 -0.78157043q-0.41589355 -0.53256226 -0.37921143 -1.4224396q0.021911621 -0.53079224 0.19476318 -0.9304962q0.17224121 -0.38407898 0.41607666 -0.60894775q0.22821045 -0.22547913 0.40252686 -0.2810974q0.15740967 -0.025009155 0.29406738 0.07424927q0.13598633 0.114868164 0.20379639 0.36776733q0.041015625 0.1423645 0.035888672 0.2672577q-0.020751953 0.12426758 -0.115722656 0.15176392q-0.06506348 0.05996704 -0.17370605 0.040008545q-0.10864258 -0.019958496 -0.1854248 -0.05429077q-0.062438965 -0.0024719238 -0.2230835 0.1006012q-0.16125488 0.11868286 -0.2802124 0.34851074q-0.13452148 0.22920227 -0.14935303 0.5882721q-0.019958496 0.483963 0.2163086 0.8217468q0.22070312 0.3371582 0.6188965 0.5406494q0.38256836 0.2028656 0.86273193 0.31578064q0.46453857 0.11230469 0.90167236 0.12968445l1.1690063 0.09341431q-0.309021 -0.09048462 -0.6460571 -0.2602539q-0.32147217 -0.16915894 -0.60839844 -0.41513062q-0.2869873 -0.24597168 -0.47644043 -0.5818939q-0.17449951 -0.3196869 -0.15777588 -0.7256012q0.019348145 -0.46835327 0.3008423 -0.8480835q0.28149414 -0.37973022 0.7601929 -0.6109009q0.49365234 -0.21492004 1.149353 -0.18884277q0.56207275 0.022354126 1.116394 0.23205566q0.56933594 0.22592163 1.0228882 0.60362244q0.46917725 0.37832642 0.74523926 0.8896942q0.27600098 0.5113678 0.25091553 1.120224q-0.027038574 0.6557007 -0.24737549 1.0691376q-0.22033691 0.41345215 -0.39916992 0.5783539l-3.710022 -0.28829956zm1.177185 -3.5184937q-0.6557007 -0.02607727 -1.1513062 0.23568726q-0.48059082 0.27798462 -0.50439453 0.85562134q-0.0154418945 0.37467957 0.20587158 0.696228q0.22064209 0.33717346 0.58569336 0.5862427q0.36444092 0.2646942 0.79577637 0.42259216q0.43133545 0.15788269 0.8366699 0.18963623l1.2620239 0.11274719q0.26861572 -0.06750488 0.46759033 -0.34106445q0.21386719 -0.25732422 0.2312622 -0.678833q0.020629883 -0.49957275 -0.24499512 -0.885437q-0.26617432 -0.37025452 -0.6930542 -0.63742065q-0.42749023 -0.25157166 -0.90631104 -0.39570618q-0.47888184 -0.14414978 -0.88482666 -0.16029358zm0.8109741 10.294266q0.039611816 -0.20172119 0.15209961 -0.2754364q0.12750244 -0.05747986 0.25238037 -0.052505493l-0.03479004 0.84303284q-0.056152344 0.9829254 0.32788086 1.5298615q0.38342285 0.56256104 1.1471558 0.62420654q0.513916 0.051712036 0.89959717 -0.19877625q0.38500977 -0.2348938 0.60791016 -0.7107849q0.22229004 -0.46028137 0.24737549 -1.0691376l0.05731201 -1.3894348q-0.009033203 0.2185669 -0.152771 0.29103088q-0.1281128 0.0730896 -0.26861572 0.06750488q-0.14117432 0.010025024 -0.17236328 0.008773804l-5.4210205 -0.5127106q-0.32720947 -0.028656006 -0.4611206 0.18493652q-0.13458252 0.22921753 -0.17608643 0.47776794q-0.020141602 0.10865784 -0.14501953 0.10368347q-0.109313965 -0.004348755 -0.10223389 -0.17607117l0.08239746 -1.9983063q0.00579834 -0.14050293 0.115722656 -0.15176392q0.10998535 -0.011276245 0.13604736 0.114868164q0.051513672 0.2678833 0.15240479 0.47517395q0.10095215 0.20730591 0.42816162 0.23596191l5.3741455 0.510849q0.24914551 0.025543213 0.38110352 -0.1412201q0.14764404 -0.1661377 0.21905518 -0.3822174q0.08709717 -0.2154541 0.14105225 -0.38531494q0.035705566 -0.108047485 0.17559814 -0.08685303q0.13922119 0.036819458 0.13214111 0.20854187l-0.10626221 2.575943q-0.04309082 1.04599 -0.36547852 1.6586609q-0.32305908 0.62828064 -0.80303955 0.8906555q-0.47991943 0.26239014 -1.0094604 0.21005249q-0.52960205 -0.052337646 -0.9694824 -0.38258362q-0.44049072 -0.31462097 -0.6821289 -0.9028168q-0.24157715 -0.5881958 -0.19055176 -1.4462128l0.030883789 -0.74935913zm-3.0778198 5.9973145q-0.04925537 0.43589783 0.07775879 0.7693329q0.12634277 0.3490448 0.3352661 0.59191895q0.20825195 0.25846863 0.37548828 0.374588q0.09173584 0.05055237 0.10223389 0.17607117q0.026062012 0.12614441 -0.07147217 0.21607971q-0.10803223 -0.035568237 -0.33642578 -0.18537903q-0.2133789 -0.1335907 -0.45288086 -0.39331055q-0.23950195 -0.2597351 -0.4107666 -0.6574707q-0.15563965 -0.39712524 -0.13378906 -0.92793274q0.028320312 -0.6869049 0.36376953 -1.2365112q0.33477783 -0.5339966 0.909729 -0.8238678q0.5899048 -0.27365112 1.3074341 -0.22947693q0.68566895 0.058547974 1.2211304 0.3456726q0.55114746 0.2877655 0.90844727 0.7241821q0.3729248 0.43704224 0.53967285 0.9440613q0.1817627 0.52326965 0.1618042 1.0072327q-0.019348145 0.46835327 -0.1720581 0.75938416q-0.152771 0.29103088 -0.36279297 0.4546814q-0.21008301 0.16366577 -0.41558838 0.21803284q-0.20617676 0.069992065 -0.33111572 0.0650177q-0.4215088 -0.01675415 -0.7696533 -0.29644775q-0.34814453 -0.27967834 -0.59552 -0.72735596q-0.23181152 -0.44706726 -0.34979248 -0.9990692q-0.103027344 -0.5357666 -0.079833984 -1.0977936q0.007751465 -0.18733215 0.12023926 -0.26104736q0.11187744 -0.05810547 0.20422363 -0.023147583q-0.016723633 0.40589905 0.090148926 0.84799194q0.10626221 0.4577179 0.29309082 0.8560791q0.20184326 0.41459656 0.4413452 0.6743164q0.2545166 0.2759552 0.53552246 0.2871399q0.4215088 0.01676941 0.682312 -0.23869324q0.2600708 -0.2398529 0.29241943 -0.6451416q0.022521973 -0.54641724 -0.28729248 -0.99658203q-0.3098755 -0.4501648 -0.8453369 -0.7373047q-0.53552246 -0.28712463 -1.1743774 -0.34381104q-0.54577637 -0.037338257 -1.0212402 0.115753174q-0.47546387 0.15310669 -0.78692627 0.5003662q-0.29644775 0.36351013 -0.36517334 0.8924408zm-0.7137451 4.7934113q0.01739502 -0.4215088 0.2852173 -0.8487091q0.26782227 -0.42718506 0.7640381 -0.7045593q0.5118408 -0.27674866 1.2300415 -0.2481842q0.54644775 0.021728516 1.100769 0.23143005q0.5699463 0.21031189 1.0235596 0.5880127q0.46917725 0.37831116 0.72961426 0.8890686q0.27539062 0.52697754 0.2333374 1.1664429q-0.012817383 0.3122406 -0.14611816 0.5102234q-0.11828613 0.21421814 -0.2321167 0.31915283q-0.09686279 0.07432556 -0.20678711 0.08560181q-0.0949707 0.027496338 -0.18218994 -0.13235474q0.1762085 -0.10244751 0.24835205 -0.33413696q0.08703613 -0.21546936 0.096069336 -0.434021q0.021240234 -0.51519775 -0.24371338 -0.9166565q-0.26556396 -0.38586426 -0.67681885 -0.65242004q-0.41186523 -0.25094604 -0.8757324 -0.3788452q-0.44830322 -0.12730408 -0.80737305 -0.1415863q-0.4840088 -0.019241333 -0.8956909 0.1051178q-0.41174316 0.12435913 -0.67315674 0.39543152q-0.24572754 0.271698 -0.26184082 0.66200256q-0.0154418945 0.37467957 0.17401123 0.71058655q0.20501709 0.33654785 0.522583 0.5993805q0.31756592 0.26281738 0.68585205 0.4338379q0.36828613 0.17102051 0.680542 0.18344116l4.2401733 0.32502747q0.016296387 -0.01499939 0.0025634766 -0.062454224q0.0012817383 -0.031219482 -0.041015625 -0.1423645q-0.21679688 -0.4308319 0.107055664 -0.6994324q0.11779785 0.17669678 0.27923584 0.4333191q0.1763916 0.27285767 0.30725098 0.512619q0.14648438 0.24038696 0.17449951 0.3196869q0.041015625 0.1423645 -0.025939941 0.24916077q-0.051330566 0.107421875 -0.19122314 0.08622742l-6.5944824 -0.49684143q-0.14050293 -0.0055999756 -0.25170898 0.036895752q-0.11126709 0.04248047 -0.11834717 0.21421814q-0.0044555664 0.10928345 0.082092285 0.284729q0.08660889 0.17546082 0.25323486 0.30718994q0.07543945 0.06555176 0.04168701 0.12675476q-0.018859863 0.077438354 -0.12750244 0.05747986q-0.32531738 -0.07548523 -0.6096802 -0.38391113q-0.26879883 -0.3078003 -0.2520752 -0.71369934q0.0134887695 -0.32785034 0.22290039 -0.4758911q0.22503662 -0.14743042 0.49041748 -0.13687134l0.8730469 0.06599426q-0.35327148 -0.15478516 -0.68518066 -0.4494629q-0.33190918 -0.29466248 -0.5506592 -0.67866516q-0.21875 -0.3840027 -0.1987915 -0.8679657zm-0.28936768 5.8808136q0.018676758 -0.45274353 0.28582764 -0.86431885q0.28216553 -0.39535522 0.7770996 -0.64151q0.49432373 -0.23052979 1.1812744 -0.20321655q0.5932617 0.023605347 1.1619263 0.26513672q0.56799316 0.25715637 1.020935 0.6504669q0.4522705 0.4089203 0.71209717 0.9352875q0.25976562 0.5263672 0.23529053 1.1196136q-0.02508545 0.6088562 -0.24414062 0.9910736q-0.21972656 0.39782715 -0.39855957 0.5627289l-3.8511353 -0.27827454q-0.13989258 -0.021194458 -0.25109863 0.02130127q-0.11126709 0.04248047 -0.11834717 0.21421814q-0.0044555664 0.10926819 0.08276367 0.26911926q0.08660889 0.17546082 0.25256348 0.32278442q0.07611084 0.049942017 0.04168701 0.12675476q-0.01953125 0.093063354 -0.12750244 0.05747986q-0.32531738 -0.07548523 -0.6096802 -0.38389587q-0.26879883 -0.3078003 -0.2520752 -0.7137146q0.012878418 -0.31222534 0.22290039 -0.4758911q0.22503662 -0.14741516 0.48980713 -0.12124634l1.1228027 0.075927734q-0.40142822 -0.12542725 -0.8120117 -0.40759277q-0.41125488 -0.2665558 -0.67614746 -0.6680298q-0.265625 -0.385849 -0.24627686 -0.8542023zm2.1957397 -0.9134674q-0.40594482 -0.016143799 -0.7857666 0.09385681q-0.3642578 0.11061096 -0.62438965 0.35046387q-0.24511719 0.256073 -0.26055908 0.6307678q-0.0134887695 0.32783508 0.20843506 0.6337738q0.23693848 0.32217407 0.60198975 0.57125854q0.38000488 0.26530457 0.81134033 0.4232025q0.4307251 0.17349243 0.8510132 0.22148132l0.95043945 0.0847168q0.17175293 0.0068359375 0.28167725 -0.004425049q0.10992432 -0.011276245 0.20550537 -0.054382324q0.19250488 -0.1174469 0.34332275 -0.3616333q0.15081787 -0.24420166 0.16369629 -0.55644226q0.018676758 -0.45274353 -0.2475586 -0.8229828q-0.25061035 -0.3696289 -0.6774292 -0.6368103q-0.41125488 -0.26654053 -0.9057007 -0.41131592q-0.47888184 -0.14413452 -0.9160156 -0.16152954zm-1.4125366 9.224869q-0.9822998 -0.07034302 -1.7376709 -0.33494568q-0.75598145 -0.24899292 -1.171875 -0.7815552q-0.4159546 -0.5325775 -0.37927246 -1.4224548q0.021911621 -0.53079224 0.19476318 -0.93048096q0.17224121 -0.38409424 0.41607666 -0.60894775q0.22821045 -0.22549438 0.40252686 -0.2810974q0.1574707 -0.025024414 0.29406738 0.07423401q0.13604736 0.11488342 0.20379639 0.36776733q0.041015625 0.1423645 0.035888672 0.2672577q-0.020751953 0.12428284 -0.115722656 0.15177917q-0.06500244 0.05996704 -0.17364502 0.040008545q-0.10864258 -0.019958496 -0.1854248 -0.05429077q-0.062438965 -0.0024871826 -0.2230835 0.10058594q-0.16131592 0.11868286 -0.2802124 0.34851074q-0.13458252 0.22921753 -0.14941406 0.58828735q-0.019958496 0.483963 0.21636963 0.8217468q0.22064209 0.3371582 0.61883545 0.54063416q0.3826294 0.2028656 0.86273193 0.3157959q0.46453857 0.11228943 0.90167236 0.12968445l1.1690063 0.09339905q-0.309021 -0.09046936 -0.6460571 -0.2602539q-0.32141113 -0.16915894 -0.60839844 -0.41513062q-0.2869873 -0.24597168 -0.47644043 -0.5818939q-0.17449951 -0.3196869 -0.15771484 -0.72558594q0.01928711 -0.46835327 0.30078125 -0.84809875q0.28155518 -0.37973022 0.7601929 -0.6108856q0.49365234 -0.2149353 1.1494141 -0.18885803q0.5620117 0.022354126 1.116394 0.23205566q0.5692749 0.22592163 1.0228271 0.60362244q0.46917725 0.37832642 0.74523926 0.8896942q0.276062 0.51138306 0.25091553 1.1202393q-0.026977539 0.6556854 -0.24737549 1.0691376q-0.22033691 0.4134369 -0.39916992 0.5783386l-3.710022 -0.28829956zm1.1772461 -3.5184784q-0.6557617 -0.02609253 -1.1513062 0.235672q-0.48065186 0.27799988 -0.50445557 0.8556366q-0.0154418945 0.37467957 0.20587158 0.696228q0.22070312 0.3371582 0.58569336 0.5862427q0.36444092 0.26467896 0.79577637 0.4225769q0.43139648 0.15789795 0.8366699 0.18965149l1.2620239 0.11274719q0.26867676 -0.06750488 0.46759033 -0.34106445q0.21392822 -0.25732422 0.23132324 -0.67884827q0.020568848 -0.49957275 -0.24499512 -0.885437q-0.26623535 -0.37023926 -0.69311523 -0.63742065q-0.42749023 -0.2515564 -0.90631104 -0.39570618q-0.4788208 -0.14413452 -0.8847656 -0.16027832zm-2.3910522 6.787384q0.025756836 -0.62446594 0.39111328 -1.1416016q0.3647461 -0.5015259 0.9852295 -0.7583313q0.6204834 -0.25679016 1.4297485 -0.16204834q0.7930298 0.10972595 1.371521 0.49238586q0.5940552 0.38328552 0.9143677 0.9589691q0.3196411 0.5913086 0.2913208 1.2782135q-0.026367188 0.64009094 -0.39111328 1.1416168q-0.36535645 0.5171356 -0.9864502 0.7895355q-0.6055298 0.2730255 -1.3985596 0.16329956q-0.80926514 -0.09474182 -1.40271 -0.49363708q-0.5941162 -0.38328552 -0.9137573 -0.97457886q-0.31970215 -0.59129333 -0.29071045 -1.2938232zm2.7758179 -1.3282318q-0.62384033 -0.04045105 -1.1624146 0.1257782q-0.5385742 0.16622925 -0.8656006 0.5128784q-0.31207275 0.36288452 -0.33203125 0.84684753q-0.019958496 0.483963 0.26055908 0.88604736q0.29614258 0.40272522 0.8173218 0.65800476q0.52056885 0.27090454 1.1444092 0.3113556q0.62323 0.05606079 1.1312256 -0.12702942q0.5228882 -0.1668396 0.8499756 -0.51348877q0.32641602 -0.33103943 0.3470459 -0.8306122q0.019897461 -0.483963 -0.27624512 -0.88668823q-0.29614258 -0.40270996 -0.8016968 -0.65737915q-0.48999023 -0.25404358 -1.1125488 -0.3257141zm-2.0179443 9.116638q-0.9822998 -0.07034302 -1.7376709 -0.33494568q-0.75598145 -0.24899292 -1.171936 -0.78157043q-0.41589355 -0.5325775 -0.37921143 -1.4224396q0.021911621 -0.5308075 0.19476318 -0.9304962q0.17224121 -0.38409424 0.41607666 -0.60894775q0.22821045 -0.22547913 0.40252686 -0.2810974q0.15740967 -0.025009155 0.29406738 0.07424927q0.13604736 0.114868164 0.20379639 0.36775208q0.041015625 0.14237976 0.035888672 0.26727295q-0.020751953 0.12426758 -0.115722656 0.15176392q-0.06500244 0.05996704 -0.17364502 0.040008545q-0.10870361 -0.019958496 -0.1854248 -0.05429077q-0.0625 -0.0024871826 -0.2230835 0.10058594q-0.16131592 0.11868286 -0.28027344 0.34851074q-0.13452148 0.22921753 -0.14935303 0.58828735q-0.019958496 0.483963 0.21636963 0.8217468q0.22064209 0.3371582 0.61883545 0.5406494q0.3826294 0.20285034 0.86273193 0.31578064q0.46453857 0.11228943 0.90167236 0.12968445l1.1690063 0.09339905q-0.309021 -0.09046936 -0.6460571 -0.2602539q-0.32141113 -0.16915894 -0.60839844 -0.41513062q-0.2869873 -0.24597168 -0.47644043 -0.5818939q-0.17449951 -0.3196869 -0.15777588 -0.72558594q0.019348145 -0.46835327 0.3008423 -0.8480835q0.28149414 -0.37974548 0.7601929 -0.6109009q0.49365234 -0.2149353 1.1494141 -0.18884277q0.5620117 0.022354126 1.116333 0.2320404q0.56933594 0.22593689 1.0228882 0.6036377q0.46917725 0.37831116 0.74523926 0.88967896q0.276062 0.51138306 0.25091553 1.1202393q-0.027038574 0.6556854 -0.24737549 1.0691376q-0.22033691 0.4134369 -0.39916992 0.5783386l-3.710022 -0.2882843zm1.1772461 -3.5184937q-0.6557617 -0.02607727 -1.1513062 0.235672q-0.48065186 0.27799988 -0.50445557 0.8556366q-0.0154418945 0.37467957 0.20587158 0.696228q0.22064209 0.3371582 0.58569336 0.5862427q0.36444092 0.2646942 0.79577637 0.4225769q0.43139648 0.15789795 0.8366699 0.18965149l1.2620239 0.11274719q0.26867676 -0.06750488 0.46759033 -0.34106445q0.21392822 -0.25732422 0.2312622 -0.67884827q0.020629883 -0.49957275 -0.24493408 -0.885437q-0.26623535 -0.37023926 -0.69311523 -0.63742065q-0.42749023 -0.2515564 -0.90631104 -0.39570618q-0.47888184 -0.14413452 -0.8847656 -0.16027832zm0.93859863 8.7153015q0.69610596 0.18406677 1.1540527 0.077178955q0.04876709 -0.04498291 0.05328369 -0.15426636q0.019470215 -0.093048096 0.06951904 -0.16923523q0.050048828 -0.07620239 0.1593628 -0.07185364q0.10864258 0.019958496 0.18347168 0.101119995q0.13598633 0.114868164 0.20568848 0.3209381q0.08532715 0.20666504 0.06262207 0.3777771q-0.007751465 0.18734741 -0.16577148 0.22796631q-0.2211914 0.053756714 -0.5653076 0.05570984q-0.3441162 0.001953125 -0.73376465 -0.029190063q-0.37469482 -0.014907837 -0.71624756 -0.07539368q-0.82299805 -0.14219666 -1.6108398 -0.3768158q-0.7885132 -0.2190094 -1.5680542 -0.6565857q-0.87127686 -0.48812866 -1.4394531 -1.1205902q-0.5687866 -0.61683655 -0.58410645 -1.3836823q-0.028137207 -0.4546051 0.19152832 -0.85243225q0.20410156 -0.39845276 0.5527344 -0.50968933q0.14245605 -0.041244507 0.2803955 0.026794434q0.1217041 0.08302307 0.20825195 0.2584839q0.08660889 0.17544556 0.07952881 0.34718323q-0.02331543 0.1867218 -0.14953613 0.21296692q-0.0637207 0.028747559 -0.12554932 0.010650635q-0.07739258 -0.018722534 -0.15484619 -0.03742981q-0.17236328 0.008773804 -0.3199463 0.1749115q-0.14758301 0.1661377 -0.12927246 0.47961426q0.0021362305 0.32847595 0.22406006 0.6344147q0.20635986 0.3053131 0.5239258 0.56814575q0.31695557 0.27842712 0.65270996 0.47943115q0.5335083 0.33396912 1.1177979 0.57614136q0.58428955 0.24215698 0.9869995 0.3363495l0.03314209 -0.04559326q-0.2915039 -0.13668823 -0.6402588 -0.40075684q-0.34942627 -0.24845886 -0.66571045 -0.542511q-0.31628418 -0.29405212 -0.49334717 -0.5512848q-0.0748291 -0.0811615 -0.03845215 -0.20481873q0.020080566 -0.10865784 0.09942627 -0.13677979l4.352722 -1.2655182q0.0012817383 -0.031219482 -0.012390137 -0.07867432q-0.014343262 -0.031845093 -0.089782715 -0.09739685q-0.09051514 -0.08178711 -0.14648438 -0.24038696q-0.056030273 -0.15859985 0.061645508 -0.35720825q0.15093994 0.13110352 0.36242676 0.31152344q0.22711182 0.18104553 0.40808105 0.34461975q0.18023682 0.17918396 0.2557373 0.24473572q0.10479736 0.11361694 0.05340576 0.22103882q-0.036376953 0.12365723 -0.14758301 0.1661377l-4.5231323 1.2274628q0.32928467 0.3571167 0.7854614 0.67237854q0.45611572 0.31524658 0.9467163 0.5536804q0.48999023 0.25404358 0.95513916 0.35073853zm-3.50354 4.943619q0.0038452148 -0.093673706 0.083862305 -0.1374054q0.048095703 -0.02935791 0.12554932 -0.010650635q0.09240723 0.034957886 0.087890625 0.14424133q0.048950195 0.33032227 0.17913818 0.58569336q0.14520264 0.27160645 0.4567871 0.2996521l5.4834595 0.51519775q0.14050293 0.005584717 0.25494385 -0.11495972q0.11444092 -0.12054443 0.18395996 -0.28979492q0.08514404 -0.16860962 0.105895996 -0.2929077q0.03765869 -0.15487671 0.17626953 -0.10244751q0.061767578 0.018096924 0.0748291 0.08117676q0.012390137 0.07867432 0.011108398 0.1098938l-0.20343018 4.933319q-0.00579834 0.14050293 -0.07019043 0.18484497q-0.06500244 0.05996704 -0.23608398 0.03753662l-1.105957 -0.106536865q-0.015625 -6.4086914E-4 -0.07739258 -0.018737793q-0.062438965 -0.0024719238 -0.09112549 -0.06616211q-0.028625488 -0.063690186 0.0051879883 -0.12487793q0.03314209 -0.04559326 0.06500244 -0.05996704q0.472229 -0.075042725 0.69659424 -0.20684814q0.23937988 -0.115600586 0.31274414 -0.37850952q0.088378906 -0.24667358 0.108947754 -0.74624634l0.09918213 -2.4042053q-0.039001465 0.18609619 -0.15081787 0.24417114q-0.11187744 0.05810547 -0.2368164 0.05316162l-2.5858765 -0.24359131l-0.060546875 1.4674988q-0.014160156 0.34344482 0.07116699 0.5501404q0.10028076 0.22290039 0.34429932 0.37335205q0.12231445 0.06741333 0.07098389 0.1748352q-0.018188477 0.061828613 -0.08129883 0.07495117q-0.04748535 0.01373291 -0.09429932 0.011871338l-1.152771 -0.10839844q-0.046813965 -0.0018615723 -0.09301758 -0.019317627q-0.046203613 -0.017486572 -0.07489014 -0.08117676q-0.042297363 -0.11114502 0.08581543 -0.18423462q0.477417 -0.19992065 0.50445557 -0.85562134l0.059814453 -1.4519043l-2.43042 -0.22177124q-0.34283447 -0.029266357 -0.49365234 0.2149353q-0.13580322 0.260437 -0.2111206 0.5701904q-0.0032348633 0.078063965 -0.08258057 0.106170654q-0.06378174 0.028747559 -0.12554932 0.010650635q-0.09240723 -0.034942627 -0.0859375 -0.19107056l0.09588623 -2.3261414zm-0.43017578 7.778015q0.025756836 -0.6244507 0.39111328 -1.1416016q0.3647461 -0.5015259 0.98516846 -0.7583313q0.6204834 -0.2567749 1.4298096 -0.16204834q0.7930298 0.10974121 1.37146 0.49240112q0.5941162 0.38327026 0.9144287 0.95895386q0.3196411 0.5913086 0.2913208 1.2782288q-0.026367188 0.6400757 -0.39111328 1.1416016q-0.36535645 0.5171509 -0.98651123 0.7895508q-0.60546875 0.27301025 -1.3984985 0.16329956q-0.8093262 -0.09475708 -1.402771 -0.49365234q-0.5940552 -0.38327026 -0.9136963 -0.97457886q-0.31970215 -0.5912781 -0.29071045 -1.2938232zm2.7758179 -1.3282166q-0.62384033 -0.04046631 -1.1624146 0.12576294q-0.5385742 0.16622925 -0.8656006 0.5128784q-0.3121338 0.36288452 -0.3320923 0.8468628q-0.019897461 0.48394775 0.26062012 0.88604736q0.29614258 0.40270996 0.8173218 0.6579895q0.52056885 0.27090454 1.1444092 0.31137085q0.62323 0.05606079 1.1311646 -0.12704468q0.5229492 -0.1668396 0.8500366 -0.51348877q0.32641602 -0.33102417 0.34698486 -0.83062744q0.019958496 -0.48394775 -0.27618408 -0.8866577q-0.29614258 -0.40270996 -0.8016968 -0.65737915q-0.48999023 -0.25405884 -1.1125488 -0.3257141zm1.6934204 4.8220825q0.1015625 0.19168091 0.2630005 0.44830322q0.1763916 0.27285767 0.30725098 0.51260376q0.14648438 0.24038696 0.17449951 0.31970215q0.040405273 0.1579895 -0.026611328 0.2647705q-0.051940918 0.123046875 -0.1918335 0.10183716l-2.5865479 -0.22796631q0.8060913 0.17279053 1.3851929 0.53985596q0.57910156 0.3670349 0.90649414 0.7709961q0.3423462 0.42019653 0.42382812 0.72055054q0.025390625 0.14172363 -0.009033203 0.21853638q-0.034423828 0.07684326 -0.14758301 0.16616821q-0.19445801 0.16427612 -0.4442749 0.1543274q-0.25042725 0.0056762695 -0.27264404 -0.21414185q-0.012390137 -0.07867432 0.022033691 -0.15548706q0.033813477 -0.061187744 0.0513916 -0.107421875q0.042114258 -0.26416016 -0.20910645 -0.61816406q-0.25128174 -0.3540039 -0.7685547 -0.7029724q-0.501709 -0.34832764 -1.2570801 -0.61294556q-0.7397461 -0.26397705 -1.7220459 -0.33432007q-0.2803955 -0.026794434 -0.39886475 -0.18786621q-0.103515625 -0.14486694 -0.04119873 -0.5176697l4.4561768 0.39614868q0.016906738 -0.03060913 0.0032348633 -0.078063965q0.0012817383 -0.031219482 -0.04168701 -0.1267395q-0.21679688 -0.43084717 0.1239624 -0.7300415zm-1.6782837 9.980774q0.039611816 -0.20172119 0.15209961 -0.27542114q0.12750244 -0.057495117 0.25238037 -0.052520752l-0.034729004 0.8430176q-0.05621338 0.9829407 0.32788086 1.5298767q0.38336182 0.56256104 1.1470947 0.62420654q0.513916 0.051696777 0.89959717 -0.1987915q0.38500977 -0.2348938 0.60791016 -0.7107849q0.22229004 -0.4602661 0.24737549 -1.0691223l0.05731201 -1.3894348q-0.009033203 0.2185669 -0.152771 0.29101562q-0.1281128 0.0730896 -0.26861572 0.06750488q-0.14117432 0.010040283 -0.17236328 0.0087890625l-5.4210205 -0.51272583q-0.32720947 -0.028656006 -0.4611206 0.18496704q-0.13452148 0.22918701 -0.17608643 0.4777527q-0.020080566 0.10864258 -0.14501953 0.10366821q-0.10925293 -0.004333496 -0.10217285 -0.17605591l0.08239746 -1.9983215q0.00579834 -0.14050293 0.115722656 -0.15176392q0.10992432 -0.011260986 0.13598633 0.114868164q0.051513672 0.2678833 0.15240479 0.4751892q0.10095215 0.20730591 0.42816162 0.23596191l5.3741455 0.51083374q0.24914551 0.025543213 0.38116455 -0.14120483q0.14758301 -0.1661377 0.21905518 -0.38223267q0.08703613 -0.2154541 0.14099121 -0.38531494q0.035705566 -0.10803223 0.17559814 -0.08685303q0.13922119 0.036834717 0.13214111 0.20855713l-0.10620117 2.5759277q-0.043151855 1.04599 -0.36553955 1.6586609q-0.32305908 0.6282959 -0.8029785 0.8906555q-0.47998047 0.26239014 -1.0095215 0.21005249q-0.529541 -0.052337646 -0.9694824 -0.38256836q-0.44049072 -0.31463623 -0.6821289 -0.90283203q-0.24157715 -0.5881958 -0.19055176 -1.4461975l0.030883789 -0.74935913zm-3.0778198 5.9973145q-0.04925537 0.43588257 0.07775879 0.7693176q0.12634277 0.34906006 0.3352661 0.59191895q0.20825195 0.2584839 0.37548828 0.37460327q0.091796875 0.050567627 0.10223389 0.17605591q0.026062012 0.12615967 -0.07147217 0.21609497q-0.10797119 -0.035583496 -0.33636475 -0.18539429q-0.21343994 -0.13357544 -0.4529419 -0.39331055q-0.23950195 -0.2597351 -0.4107666 -0.6574707q-0.15563965 -0.39712524 -0.13378906 -0.9279175q0.028320312 -0.68692017 0.36376953 -1.2365112q0.33477783 -0.5339966 0.909729 -0.82388306q0.5899048 -0.27365112 1.3074341 -0.22946167q0.68566895 0.058532715 1.2211914 0.3456726q0.5510864 0.28775024 0.90838623 0.7241821q0.37298584 0.43704224 0.5397339 0.9440613q0.18170166 0.5232544 0.16174316 1.0072327q-0.01928711 0.46835327 -0.1720581 0.7593689q-0.152771 0.29104614 -0.36279297 0.4546814q-0.21002197 0.16366577 -0.41558838 0.2180481q-0.20617676 0.06997681 -0.3310547 0.06500244q-0.42156982 -0.01675415 -0.76971436 -0.29644775q-0.34814453 -0.2796631 -0.59552 -0.72735596q-0.23181152 -0.447052 -0.34979248 -0.99905396q-0.103027344 -0.5357666 -0.079833984 -1.0978088q0.007751465 -0.1873169 0.12023926 -0.26104736q0.11187744 -0.05810547 0.20422363 -0.023132324q-0.016723633 0.4058838 0.090148926 0.84799194q0.10626221 0.45770264 0.29315186 0.8560791q0.20178223 0.4145813 0.44128418 0.6743164q0.2545166 0.27593994 0.53552246 0.2871399q0.42156982 0.01675415 0.682312 -0.2387085q0.2600708 -0.23983765 0.29241943 -0.6451416q0.022521973 -0.54641724 -0.28729248 -0.99658203q-0.30981445 -0.4501648 -0.8453369 -0.7373047q-0.53552246 -0.28710938 -1.1743164 -0.34381104q-0.5458374 -0.037322998 -1.0213013 0.115753174q-0.47546387 0.15310669 -0.78686523 0.5003967q-0.2965088 0.36349487 -0.36523438 0.89242554zm3.9776611 2.900238q0.1015625 0.19168091 0.2630005 0.44830322q0.1763916 0.27285767 0.30725098 0.51260376q0.14648438 0.24038696 0.17449951 0.31970215q0.040405273 0.15795898 -0.026550293 0.2647705q-0.052001953 0.123046875 -0.19189453 0.10183716l-2.5865479 -0.22796631q0.8060913 0.17279053 1.3851929 0.53982544q0.57910156 0.36706543 0.90649414 0.7710266q0.3423462 0.42019653 0.42382812 0.72052q0.025390625 0.14175415 -0.009033203 0.2185669q-0.034423828 0.076812744 -0.14758301 0.1661377q-0.19445801 0.16427612 -0.4442749 0.15435791q-0.25042725 0.0056762695 -0.27264404 -0.21414185q-0.012390137 -0.07867432 0.022033691 -0.15548706q0.033813477 -0.06121826 0.0513916 -0.107421875q0.042175293 -0.26416016 -0.20910645 -0.61816406q-0.2512207 -0.35403442 -0.7685547 -0.7029724q-0.501709 -0.34835815 -1.2570801 -0.61294556q-0.7397461 -0.26397705 -1.7220459 -0.33432007q-0.2803955 -0.026794434 -0.39886475 -0.18789673q-0.103515625 -0.14483643 -0.04119873 -0.5176697l4.456238 0.3961792q0.016845703 -0.03060913 0.0031738281 -0.078063965q0.0012817383 -0.031219482 -0.04168701 -0.12677002q-0.21679688 -0.43081665 0.1239624 -0.730011zm-5.99115 5.3507385l-0.5145874 -0.036102295q-0.3116455 -0.028045654 -0.4619751 -0.17474365q-0.15093994 -0.13110352 -0.08673096 -0.55078125l5.4866333 0.4371643q-0.5166626 -0.3645935 -1.1334229 -0.5767517q0.0025634766 -0.062469482 0.083862305 -0.13742065q0.08123779 -0.07495117 0.2972412 -0.0038146973q0.4020996 0.10983276 0.76904297 0.31207275q0.3826294 0.20285034 0.70080566 0.45007324l1.0441284 0.08843994q0.2654419 0.010559082 0.36572266 0.23345947q0.11584473 0.22354126 -0.0017700195 0.42214966l-0.7331543 -0.044799805q0.37225342 0.45266724 0.52471924 0.9278259q0.16802979 0.47583008 0.103149414 0.9110718q-0.103149414 0.6057739 -0.5258179 0.9955139q-0.40704346 0.39038086 -1.0230103 0.53790283q-0.60040283 0.14813232 -1.2990723 0.026519775q-0.60632324 -0.08666992 -1.1411743 -0.3894043q-0.5192871 -0.30212402 -0.8772583 -0.7229309q-0.3423462 -0.42019653 -0.44726562 -0.90911865q-0.06585693 -0.29974365 -0.018554688 -0.68878174q0.04736328 -0.3890686 0.22937012 -0.63201904q0.09881592 -0.121154785 0.19250488 -0.11743164q0.09301758 0.019348145 0.13861084 0.0524292q-0.19897461 0.27355957 -0.21502686 0.6638489q-0.016113281 0.3902893 0.20263672 0.774292q0.23303223 0.41583252 0.689209 0.7310791q0.47113037 0.33148193 1.1229858 0.4512329q0.6050415 0.117889404 1.1091309 0.0284729q0.51971436 -0.088775635 0.8585205 -0.3411255q0.33880615 -0.25238037 0.41864014 -0.67141724q0.094177246 -0.3871765 -0.07513428 -0.8317566q-0.16998291 -0.42895508 -0.54418945 -0.83477783l-5.2387695 -0.3803711zm1.3862915 6.959564q-0.04925537 0.4359131 0.07775879 0.76934814q0.12634277 0.34902954 0.3352661 0.59191895q0.20825195 0.25845337 0.37548828 0.37457275q0.091796875 0.050567627 0.10223389 0.17608643q0.026062012 0.12612915 -0.07147217 0.21606445q-0.10797119 -0.03555298 -0.33636475 -0.18536377q-0.21343994 -0.13360596 -0.4529419 -0.39331055q-0.23950195 -0.2597351 -0.4107666 -0.6574707q-0.15563965 -0.39712524 -0.13378906 -0.927948q0.028320312 -0.68688965 0.36376953 -1.2365112q0.33477783 -0.5339966 0.909729 -0.82385254q0.5899048 -0.27365112 1.3074341 -0.22949219q0.68566895 0.058563232 1.2211914 0.3456726q0.5510864 0.28778076 0.90838623 0.7241821q0.37298584 0.43704224 0.5397339 0.9440613q0.18170166 0.5232849 0.16174316 1.0072327q-0.01928711 0.46835327 -0.1720581 0.7593994q-0.152771 0.29101562 -0.36279297 0.4546814q-0.21002197 0.16366577 -0.41558838 0.21801758q-0.20617676 0.070007324 -0.3310547 0.06503296q-0.42156982 -0.01675415 -0.76971436 -0.29644775q-0.34814453 -0.2796936 -0.59552 -0.72735596q-0.23181152 -0.44708252 -0.34979248 -0.9990845q-0.103027344 -0.5357666 -0.079833984 -1.0977783q0.007751465 -0.18734741 0.12023926 -0.26104736q0.11187744 -0.05810547 0.20422363 -0.023162842q-0.016723633 0.4059143 0.090148926 0.84799194q0.10626221 0.45773315 0.29315186 0.8560791q0.20178223 0.41461182 0.44128418 0.6743164q0.2545166 0.27597046 0.53552246 0.2871399q0.42156982 0.016784668 0.682312 -0.23867798q0.2600708 -0.23986816 0.29241943 -0.6451416q0.022521973 -0.54641724 -0.28729248 -0.99658203q-0.30981445 -0.4501648 -0.8453369 -0.7373047q-0.53552246 -0.2871399 -1.1743164 -0.34381104q-0.5458374 -0.037353516 -1.0213013 0.115753174q-0.47546387 0.15310669 -0.78686523 0.5003662q-0.2965088 0.36349487 -0.36523438 0.89242554zm0.539978 3.5922852l3.5844727 0.2989502q-0.0053100586 -0.25039673 -0.015808105 -0.37591553q-0.011108398 -0.1098938 -0.03778076 -0.22042847q-0.039794922 -0.17358398 -0.11657715 -0.20791626q-0.06048584 -0.049316406 -0.04168701 -0.12677002q0.018859863 -0.077423096 0.12750244 -0.0574646l0.4196167 0.06359863q0.12426758 0.020568848 0.11846924 0.16107178l-0.032836914 0.7962036l1.0285034 0.08782959q0.2498169 0.009918213 0.40014648 0.15664673q0.15032959 0.146698 0.11859131 0.53637695l-1.5742798 -0.12515259l-0.05279541 1.2801514q-0.0064086914 0.15612793 -0.13067627 0.13552856l-0.4196167 -0.06359863q-0.10864258 -0.019958496 -0.121032715 -0.09863281q-0.013061523 -0.06304932 0.051330566 -0.107421875q0.0793457 -0.02810669 0.1326294 -0.18237305q0.068237305 -0.13800049 0.07598877 -0.3253479q0.02331543 -0.18673706 0.043273926 -0.6706848l-3.4127197 -0.29211426q-0.40533447 -0.0317688 -0.5834961 0.11752319q-0.17816162 0.14929199 -0.21966553 0.39782715q-0.026611328 0.26480103 0.07305908 0.5033264q0.09899902 0.25411987 0.2786255 0.44891357q0.05987549 0.064941406 -0.0064697266 0.15612793q-0.05065918 0.091796875 -0.15802002 0.040618896q-0.33770752 -0.1541748 -0.5720825 -0.53878784q-0.23431396 -0.38461304 -0.2163086 -0.8217468q0.008361816 -0.2029419 0.12792969 -0.44839478q0.119628906 -0.24542236 0.39208984 -0.4066162q0.2718506 -0.14553833 0.739624 -0.111328125zm-1.4449463 4.701294q0.010986328 -0.26538086 0.14746094 -0.5414429q0.13647461 -0.2760315 0.42523193 -0.45220947q0.30371094 -0.15991211 0.81762695 -0.10821533l3.1773071 0.31402588q0.016235352 -0.014984131 0.0025634766 -0.062438965q0.0012817383 -0.031219482 -0.056640625 -0.14300537q-0.20056152 -0.44580078 0.123291016 -0.7144165q0.117126465 0.19232178 0.27856445 0.4489441q0.16082764 0.2722168 0.30792236 0.49700928q0.14648438 0.24038696 0.15887451 0.31906128q0.056030273 0.15859985 -0.010925293 0.26538086q-0.06695557 0.10681152 -0.20751953 0.10122681l-3.7854614 -0.35385132q-0.3116455 -0.028015137 -0.53790283 0.15063477q-0.21136475 0.19485474 -0.24243164 0.5689392q-0.03491211 0.4677124 0.38098145 1.0003052q0.43151855 0.5331726 1.3717041 0.8676758q0.18475342 0.06991577 0.48010254 0.11291504q0.29473877 0.058654785 0.5126343 0.08294678l1.3551025 0.13208008q0.34283447 0.029266357 0.49316406 0.17599487q0.1496582 0.162323 0.088012695 0.51953125l-4.411255 -0.34747314q-0.14056396 -0.005584717 -0.25177002 0.03692627q-0.111206055 0.04248047 -0.11828613 0.21420288q-0.0045166016 0.10928345 0.082092285 0.284729q0.08660889 0.17547607 0.25317383 0.30718994q0.07550049 0.06555176 0.04168701 0.12677002q-0.018798828 0.077423096 -0.1274414 0.0574646q-0.32531738 -0.07550049 -0.6097412 -0.38391113q-0.26879883 -0.3078003 -0.2520752 -0.7137146q0.012878418 -0.31222534 0.22296143 -0.4758911q0.22497559 -0.1473999 0.49041748 -0.13684082l1.1690063 0.09338379q-0.49249268 -0.19158936 -0.89990234 -0.55181885q-0.40802002 -0.3446045 -0.6560669 -0.77667236q-0.23242188 -0.43145752 -0.21246338 -0.9154358zm-0.25738525 6.2426453q0.018676758 -0.4527588 0.28582764 -0.86434937q0.28216553 -0.3953247 0.7770996 -0.6414795q0.49432373 -0.23052979 1.1812744 -0.20321655q0.5932617 0.023590088 1.1619263 0.26513672q0.56799316 0.2571411 1.020935 0.65045166q0.4522705 0.40893555 0.71209717 0.93530273q0.25976562 0.5263672 0.23529053 1.1195984q-0.02508545 0.6088562 -0.24414062 0.99108887q-0.21972656 0.39782715 -0.39855957 0.5627136l-3.8511353 -0.27825928q-0.13989258 -0.021209717 -0.25109863 0.021270752q-0.111206055 0.042510986 -0.11828613 0.2142334q-0.0045166016 0.10928345 0.08270264 0.26913452q0.08660889 0.17544556 0.25256348 0.32278442q0.07611084 0.049926758 0.04168701 0.1267395q-0.019470215 0.093048096 -0.12750244 0.057495117q-0.32525635 -0.07550049 -0.6096802 -0.38391113q-0.26879883 -0.3078003 -0.2520752 -0.7137146q0.012878418 -0.31222534 0.22290039 -0.4758911q0.22503662 -0.1473999 0.48980713 -0.12124634l1.1228027 0.075927734q-0.40142822 -0.12542725 -0.8120117 -0.40759277q-0.41125488 -0.26654053 -0.67614746 -0.6680298q-0.265625 -0.38583374 -0.24627686 -0.854187zm2.1957397 -0.91348267q-0.40594482 -0.016143799 -0.7857666 0.09387207q-0.3642578 0.1105957 -0.62438965 0.35046387q-0.24511719 0.256073 -0.26055908 0.6307373q-0.0134887695 0.32785034 0.20843506 0.63378906q0.23693848 0.32217407 0.60198975 0.57125854q0.38000488 0.26531982 0.81140137 0.42321777q0.43066406 0.17349243 0.85095215 0.22146606l0.95043945 0.0847168q0.17175293 0.0068359375 0.28167725 -0.004425049q0.10992432 -0.011260986 0.20550537 -0.054382324q0.19250488 -0.11743164 0.34332275 -0.3616333q0.15081787 -0.24420166 0.16369629 -0.556427q0.018676758 -0.4527588 -0.2475586 -0.82299805q-0.25061035 -0.3696289 -0.6774292 -0.6368103q-0.41125488 -0.26654053 -0.9057007 -0.41131592q-0.47888184 -0.14413452 -0.9160156 -0.16152954zm-1.7420044 5.4588013l6.2627563 0.57748413q0 0 0.001953125 -0.046844482q0.0012817383 -0.031219482 -0.056640625 -0.14297485q-0.20056152 -0.4458313 0.123291016 -0.7144165q0.10217285 0.17608643 0.26361084 0.43267822q0.17645264 0.27285767 0.307312 0.5126343q0.14642334 0.24038696 0.17443848 0.31967163q0.040405273 0.1579895 -0.026550293 0.26480103q-0.051330566 0.107421875 -0.19122314 0.08621216l-6.589966 -0.60614014q-0.12426758 -0.020568848 -0.25109863 0.02130127q-0.111206055 0.04248047 -0.11828613 0.21420288q-0.0045166016 0.10928345 0.082092285 0.28475952q0.08654785 0.17544556 0.26812744 0.32339478q0.06048584 0.049316406 0.026062012 0.12612915q-0.034423828 0.07684326 -0.1430664 0.056884766q-0.355896 -0.09234619 -0.6090698 -0.39953613q-0.23754883 -0.30654907 -0.22149658 -0.6968384q0.013549805 -0.32785034 0.22357178 -0.4915161q0.22503662 -0.14743042 0.47418213 -0.12188721zm-0.8184204 7.332855q0.00579834 -0.14050293 0.14697266 -0.15054321q0.14050293 0.005584717 0.15032959 0.14672852q0.019592285 0.28225708 0.08929443 0.48831177q0.0690918 0.22164917 0.25128174 0.3540039q0.19781494 0.13296509 0.5718384 0.16348267l5.4990845 0.5158081l0.05340576 -1.2957458q0.012207031 -0.29663086 -0.010620117 -0.500824q-0.007873535 -0.18795776 -0.11138916 -0.3328247q-0.08850098 -0.12863159 -0.31756592 -0.26281738q-0.2140503 -0.11798096 -0.6141968 -0.2746277q-0.15356445 -0.06866455 -0.10095215 -0.20730591q0.035095215 -0.092437744 0.16003418 -0.08746338l1.2139282 0.14212036q0.13922119 0.0368042 0.20098877 0.054901123q0.06121826 0.033691406 0.07489014 0.08114624q0.013671875 0.047454834 0.00982666 0.1411438q0.01171875 0.09429932 -4.8828125E-4 0.39089966q0.0033569336 0.2972412 -0.023010254 0.9373474l-0.17059326 4.137085q-0.012878418 0.31225586 -0.03302002 0.42089844q-0.020751953 0.12426758 -0.05328369 0.15426636q-0.034423828 0.076812744 -0.22180176 0.069366455l-1.2489624 -0.049682617q-0.046875 -0.0018615723 -0.09307861 -0.019348145q-0.046203613 -0.017456055 -0.0592041 -0.08053589q-0.029296875 -0.048065186 -0.011108398 -0.1098938q0.03314209 -0.04559326 0.08129883 -0.07495117q0.41107178 -0.10876465 0.64971924 -0.20870972q0.2387085 -0.099975586 0.3381958 -0.23675537q0.115112305 -0.13616943 0.15594482 -0.3691101q0.040893555 -0.23291016 0.05633545 -0.607605l0.044433594 -1.0772095l-5.499695 -0.5002136q-0.3734131 -0.04611206 -0.5808716 0.05508423q-0.19189453 0.10183716 -0.2783203 0.30169678q-0.08703613 0.2154541 -0.12921143 0.47961426q-0.02142334 0.13986206 -0.16064453 0.10305786q-0.13989258 -0.021209717 -0.13470459 -0.14608765l0.10491943 -2.5447083zm0.15966797 6.7467346q-0.04925537 0.43588257 0.07775879 0.7693176q0.12634277 0.34902954 0.3352661 0.59191895q0.20825195 0.2584839 0.37548828 0.37457275q0.09173584 0.050567627 0.10223389 0.17608643q0.026062012 0.12612915 -0.07147217 0.21606445q-0.10797119 -0.03555298 -0.33642578 -0.18536377q-0.2133789 -0.13360596 -0.45288086 -0.39331055q-0.23950195 -0.2597351 -0.4107666 -0.6574707q-0.15563965 -0.39712524 -0.13378906 -0.9279175q0.028320312 -0.68692017 0.36376953 -1.2365417q0.33477783 -0.5339966 0.909729 -0.82385254q0.5899048 -0.27365112 1.3074341 -0.22949219q0.68566895 0.058563232 1.2211304 0.34570312q0.55114746 0.28775024 0.90844727 0.7241516q0.3729248 0.43704224 0.5397339 0.9440613q0.18170166 0.5232849 0.16174316 1.0072327q-0.019348145 0.46835327 -0.1720581 0.7593994q-0.152771 0.29101562 -0.36279297 0.4546814q-0.21002197 0.16366577 -0.41558838 0.21801758q-0.20617676 0.070007324 -0.3310547 0.06503296q-0.42156982 -0.01675415 -0.76971436 -0.29644775q-0.34814453 -0.2796936 -0.59552 -0.72735596q-0.23181152 -0.44708252 -0.34979248 -0.9990845q-0.103027344 -0.5357666 -0.079833984 -1.0977783q0.007751465 -0.18734741 0.12023926 -0.26104736q0.11187744 -0.05810547 0.20422363 -0.023162842q-0.016723633 0.4059143 0.090148926 0.84802246q0.10626221 0.45770264 0.29309082 0.8560486q0.20184326 0.41461182 0.4413452 0.6743469q0.2545166 0.27593994 0.53552246 0.28710938q0.42156982 0.016784668 0.682312 -0.23867798q0.2600708 -0.23986816 0.29241943 -0.6451416q0.022521973 -0.54641724 -0.28729248 -0.99658203q-0.3098755 -0.4501648 -0.8453369 -0.7373047q-0.53552246 -0.2871399 -1.1743164 -0.34381104q-0.5458374 -0.037353516 -1.0213013 0.115753174q-0.47546387 0.15310669 -0.78686523 0.5003662q-0.2965088 0.36349487 -0.36523438 0.89245605zm-0.75671387 4.697876q0.018676758 -0.4527588 0.28588867 -0.86431885q0.28216553 -0.39535522 0.7770996 -0.64151q0.4942627 -0.23052979 1.1812134 -0.20321655q0.59332275 0.023590088 1.1619263 0.26513672q0.5680542 0.2571411 1.0209961 0.65045166q0.4522705 0.40893555 0.71203613 0.93530273q0.25976562 0.5263672 0.23535156 1.1195984q-0.025146484 0.6088562 -0.24420166 0.99108887q-0.21966553 0.39782715 -0.39849854 0.5627136l-3.8511963 -0.27825928q-0.13983154 -0.021209717 -0.25109863 0.02130127q-0.111206055 0.04248047 -0.11828613 0.21420288q-0.0045166016 0.10928345 0.08276367 0.26913452q0.08654785 0.17544556 0.25250244 0.32278442q0.07611084 0.049926758 0.04168701 0.12677002q-0.019470215 0.093048096 -0.1274414 0.0574646q-0.32531738 -0.07550049 -0.6097412 -0.38391113q-0.26879883 -0.3078003 -0.25201416 -0.7137146q0.012817383 -0.31222534 0.22290039 -0.4758911q0.22497559 -0.1473999 0.48980713 -0.12124634l1.1228027 0.075927734q-0.40142822 -0.12542725 -0.8120117 -0.40759277q-0.41125488 -0.26654053 -0.6762085 -0.6680298q-0.26556396 -0.38583374 -0.24627686 -0.854187zm2.1958008 -0.91348267q-0.40594482 -0.016143799 -0.78582764 0.09387207q-0.36419678 0.1105957 -0.6243286 0.35046387q-0.24511719 0.256073 -0.26055908 0.6307678q-0.013549805 0.32781982 0.20843506 0.63375854q0.23693848 0.32217407 0.6019287 0.57125854q0.38006592 0.26531982 0.81140137 0.42321777q0.4307251 0.17349243 0.85095215 0.22149658l0.95043945 0.08468628q0.17175293 0.0068359375 0.28167725 -0.004425049q0.10992432 -0.011260986 0.2055664 -0.054382324q0.19250488 -0.11743164 0.34332275 -0.3616333q0.15081787 -0.24420166 0.16369629 -0.556427q0.018676758 -0.4527588 -0.2475586 -0.82299805q-0.25061035 -0.3696289 -0.67749023 -0.6367798q-0.41125488 -0.26657104 -0.9057007 -0.41134644q-0.4788208 -0.14413452 -0.9159546 -0.16152954zm-1.9662476 7.4827576q-0.0068969727 0.5470276 0.25805664 0.9484863q0.26489258 0.40148926 0.61431885 0.64993286q0.19848633 0.117370605 0.09448242 0.36343384q-0.12487793 -0.0049743652 -0.36950684 -0.13980103q-0.24468994 -0.13482666 -0.4998169 -0.39517212q-0.2557373 -0.24475098 -0.42700195 -0.6424866q-0.171875 -0.3821411 -0.16625977 -0.8979492q0.030273438 -0.73373413 0.38067627 -1.2671204q0.35040283 -0.5333557 0.9246826 -0.8076172q0.5742798 -0.274292 1.2449951 -0.23196411q0.7168579 0.059783936 1.2686157 0.3319397q0.5517578 0.27212524 0.909729 0.6929321q0.3735962 0.42144775 0.557251 0.89785767q0.1829834 0.4920349 0.16369629 0.9603882q-0.025146484 0.6088562 -0.25976562 0.990448q-0.21911621 0.38223267 -0.49224854 0.559021q-0.27313232 0.17678833 -0.42926025 0.17056274q-0.14050293 -0.005584717 -0.27648926 -0.12045288q-0.13665771 -0.09927368 -0.22454834 -0.24349976q-0.072265625 -0.14361572 -0.06713867 -0.26849365q0.0045166016 -0.10928345 0.14630127 -0.13491821q0.06311035 -0.013122559 0.14056396 0.005584717q0.07672119 0.034332275 0.10797119 0.035583496q0.4091797 -0.061920166 0.6549072 -0.33361816q0.24578857 -0.271698 0.26190186 -0.6619873q0.051818848 -0.49835205 -0.25738525 -0.9641113q-0.30981445 -0.4501648 -0.8602905 -0.75354004q-0.5504761 -0.30337524 -1.236145 -0.36190796q-0.5302124 -0.036743164 -1.022583 0.14697266q-0.49230957 0.18371582 -0.8050537 0.5621948q-0.31341553 0.394104 -0.33465576 0.90930176zm-0.4911499 3.188446l6.8293457 0.49053955q0.0012817383 -0.031219482 0.0032348633 -0.07803345q0.0012817383 -0.03125 -0.05731201 -0.12738037q-0.21679688 -0.43084717 0.12390137 -0.7300415q0.101623535 0.19168091 0.26239014 0.46392822q0.1763916 0.27285767 0.30725098 0.51260376q0.14648438 0.24038696 0.17449951 0.31970215q0.040405273 0.15795898 -0.025939941 0.24914551q-0.051330566 0.107421875 -0.19122314 0.086242676l-4.1783447 -0.3069458q0.5250244 0.1616211 0.96295166 0.5386963q0.45361328 0.37771606 0.71533203 0.85723877q0.26171875 0.4795227 0.22802734 0.91604614q-0.012878418 0.31222534 -0.13244629 0.5576782q-0.12023926 0.26104736 -0.40771484 0.40597534q-0.27246094 0.16116333 -0.78637695 0.10946655l-3.1154785 -0.29592896q-0.13989258 -0.021209717 -0.25109863 0.02130127q-0.11187744 0.05810547 -0.11895752 0.22982788q-0.0044555664 0.10928345 0.08276367 0.269104q0.08660889 0.17547607 0.25317383 0.30718994q0.07550049 0.06555176 0.041015625 0.1423645q-0.018798828 0.07745361 -0.111816406 0.05810547q-0.34094238 -0.07611084 -0.6253052 -0.38452148q-0.26879883 -0.3078003 -0.2520752 -0.7137146q0.0134887695 -0.32785034 0.22290039 -0.4758911q0.22503662 -0.14743042 0.49041748 -0.13687134l3.427063 0.3239441q0.2647705 0.026184082 0.45855713 -0.12249756q0.19378662 -0.14865112 0.22747803 -0.58517456q0.008361816 -0.2029419 -0.118652344 -0.53637695q-0.12701416 -0.33343506 -0.4257202 -0.67370605q-0.2831421 -0.33963013 -0.7730713 -0.59368896q-0.4749756 -0.23779297 -1.1606445 -0.2963562l-1.6218262 -0.11141968q-0.37402344 -0.030517578 -0.4456787 -0.18972778q-0.07159424 -0.1592102 -0.010620117 -0.500824zm6.9223022 6.2012024q0.11053467 -0.026885986 0.15222168 0.099853516q0.04168701 0.12677002 0.0021362305 0.3284912q-0.039611816 0.20169067 -0.15661621 0.3847046q-0.11767578 0.1986084 -0.30889893 0.28482056q-0.20617676 0.06997681 -0.41833496 -0.094818115q-0.19714355 -0.14859009 -0.2512207 -0.35403442q-0.02734375 -0.09490967 0.012207031 -0.29663086q0.03894043 -0.18609619 0.22698975 -0.19424438q0.09362793 0.0037231445 0.29852295 -0.03503418q0.20489502 -0.038757324 0.44299316 -0.12310791zm-6.642517 -0.0921936l3.831726 0.37130737q0.016235352 -0.014984131 0.001953125 -0.046813965q0.0012817383 -0.031219482 -0.04107666 -0.1423645q-0.21612549 -0.44644165 0.107666016 -0.7150574q0.11785889 0.17669678 0.27929688 0.4333191q0.1763916 0.27285767 0.30725098 0.5126343q0.14648438 0.24038696 0.15887451 0.31906128q0.056030273 0.15859985 -0.010314941 0.24978638q-0.051330566 0.107421875 -0.1918335 0.10183716l-4.173889 -0.41622925q-0.124938965 -0.0049438477 -0.25177002 0.036895752q-0.111206055 0.042510986 -0.11828613 0.2142334q-0.0045166016 0.10928345 0.08270264 0.26913452q0.10223389 0.17605591 0.26818848 0.32339478q0.06048584 0.049316406 0.04168701 0.12677002q-0.019470215 0.093048096 -0.12750244 0.0574646q-0.34088135 -0.07611084 -0.6096802 -0.38391113q-0.26879883 -0.3078003 -0.2520752 -0.7136841q0.012878418 -0.31225586 0.22296143 -0.4758911q0.22497559 -0.14743042 0.4741211 -0.12188721zm-0.63635254 2.9171448l4.2695312 0.3731079q0.049438477 -0.060577393 -0.053466797 -0.22103882q-0.20117188 -0.43023682 0.1239624 -0.7300415q0.1015625 0.19168091 0.2630005 0.44830322q0.1763916 0.27285767 0.32287598 0.5132446q0.14648438 0.24038696 0.15887451 0.31906128q0.040405273 0.1579895 -0.025939941 0.24917603q-0.051330566 0.107421875 -0.19116211 0.08621216l-1.5261841 -0.15454102q0.47558594 0.222229 0.88427734 0.5512085q0.40802002 0.344635 0.6553955 0.79229736q0.24737549 0.44769287 0.22613525 0.9628906q-0.009643555 0.23416138 -0.14550781 0.4945984q-0.12084961 0.27667236 -0.40893555 0.43722534q-0.28875732 0.17614746 -0.81829834 0.123809814l-3.0055542 -0.30718994q-0.17175293 -0.00680542 -0.29858398 0.03503418q-0.12683105 0.041870117 -0.13391113 0.21362305q-0.0044555664 0.10928345 0.09899902 0.25411987q0.103515625 0.14486694 0.24078369 0.22851562q0.076171875 0.049926758 0.04168701 0.1267395q-0.018798828 0.07745361 -0.1274414 0.057495117q-0.30969238 -0.07489014 -0.56414795 -0.35083008q-0.25512695 -0.26034546 -0.23968506 -0.6350403q0.013549805 -0.32785034 0.22290039 -0.4758911q0.22503662 -0.1473999 0.47485352 -0.13748169l3.317749 0.3196106q0.31097412 0.043640137 0.50671387 -0.15185547q0.21130371 -0.19488525 0.24047852 -0.52212524q0.037475586 -0.53015137 -0.39404297 -1.0633545q-0.41656494 -0.5169678 -1.3560791 -0.8670654q-0.15356445 -0.06866455 -0.37017822 -0.12420654q-0.20166016 -0.039276123 -0.43585205 -0.048614502l-1.3713379 -0.11706543q-0.37475586 -0.014923096 -0.50946045 -0.16101074q-0.13470459 -0.14608765 -0.07244873 -0.5189209zm0.5696411 9.700348q-0.98236084 -0.07034302 -1.7377319 -0.33493042q-0.75598145 -0.24899292 -1.171875 -0.7815857q-0.4159546 -0.53256226 -0.37921143 -1.4224243q0.021850586 -0.53079224 0.19470215 -0.9305115q0.17224121 -0.38406372 0.41607666 -0.60894775q0.22827148 -0.22546387 0.4025879 -0.2810974q0.15740967 -0.024993896 0.29406738 0.07424927q0.13598633 0.114868164 0.20373535 0.36776733q0.04107666 0.1423645 0.035888672 0.26727295q-0.020751953 0.12426758 -0.115722656 0.15176392q-0.06500244 0.05996704 -0.17364502 0.040008545q-0.10864258 -0.019958496 -0.1854248 -0.05429077q-0.062438965 -0.0024719238 -0.2230835 0.10058594q-0.16125488 0.11868286 -0.2802124 0.34851074q-0.13458252 0.22921753 -0.14935303 0.58828735q-0.019958496 0.48394775 0.2163086 0.8217468q0.22064209 0.3371582 0.6188965 0.5406494q0.38256836 0.20285034 0.8626709 0.31576538q0.46453857 0.11230469 0.90167236 0.1296997l1.1690674 0.09341431q-0.30908203 -0.09048462 -0.64611816 -0.2602539q-0.32141113 -0.16915894 -0.60839844 -0.41513062q-0.2869873 -0.2460022 -0.47644043 -0.5819092q-0.17443848 -0.31967163 -0.15771484 -0.72558594q0.01928711 -0.46835327 0.30078125 -0.8480835q0.28155518 -0.37973022 0.7601929 -0.6109009q0.49365234 -0.2149353 1.1494141 -0.18884277q0.56207275 0.022338867 1.116394 0.23205566q0.5692749 0.22592163 1.0228882 0.6036072q0.46917725 0.37832642 0.7451782 0.8897095q0.276062 0.51135254 0.25097656 1.1202087q-0.027038574 0.6557007 -0.24737549 1.0691528q-0.22039795 0.41345215 -0.39916992 0.5783386l-3.710022 -0.28829956zm1.177185 -3.5184937q-0.6557617 -0.026062012 -1.1513062 0.23568726q-0.48059082 0.27798462 -0.50445557 0.85562134q-0.0154418945 0.37469482 0.20587158 0.696228q0.22070312 0.33718872 0.5857544 0.5862427q0.36437988 0.26470947 0.79571533 0.42260742q0.43139648 0.15786743 0.8366699 0.18963623l1.262085 0.11273193q0.26861572 -0.06750488 0.4675293 -0.34106445q0.21392822 -0.25732422 0.23132324 -0.678833q0.020568848 -0.49957275 -0.24499512 -0.885437q-0.26623535 -0.37023926 -0.6930542 -0.63742065q-0.42755127 -0.2515564 -0.9063721 -0.39569092q-0.4788208 -0.14416504 -0.8847656 -0.16030884z" fill-rule="nonzero"/></g></svg>