<?xml version="1.0" encoding="UTF-8" standalone="no"?>
<!DOCTYPE svg PUBLIC "-//W3C//DTD SVG 1.1//EN" "http://www.w3.org/Graphics/SVG/1.1/DTD/svg11.dtd">
<svg width="100%" height="100%" viewBox="0 0 960 540" version="1.1" xmlns="http://www.w3.org/2000/svg" xmlns:xlink="http://www.w3.org/1999/xlink" xml:space="preserve" xmlns:serif="http://www.serif.com/" style="fill-rule:evenodd;clip-rule:evenodd;stroke-linejoin:round;stroke-miterlimit:2;">
    <g>
        <rect x="95.454" y="269.457" width="765.134" height="252.095" style="fill-opacity:0;"/>
        <path d="M126.86,342.667C126.86,338.261 127.569,334.709 128.985,332.011C130.412,329.303 131.798,327.277 133.142,325.933C134.496,324.579 135.173,323.902 135.173,323.902L135.173,311.949C135.173,305.271 137.058,300.261 140.829,296.917C144.6,293.574 149.683,291.902 156.079,291.902C169.735,291.902 176.563,298.584 176.563,311.949L221.782,311.949C221.782,298.584 228.678,291.902 242.47,291.902C249.157,291.902 254.386,293.574 258.157,296.917C261.928,300.261 263.813,305.271 263.813,311.949L263.813,342.245C263.813,349.214 261.537,354.584 256.985,358.355C252.433,362.126 245.892,364.011 237.36,364.011L160.345,364.011C148.116,364.011 139.475,362.058 134.423,358.152C129.381,354.235 126.86,349.074 126.86,342.667ZM155.22,330.933C155.938,332.36 156.793,333.219 157.782,333.511C158.782,333.792 160.777,333.933 163.767,333.933L223.704,333.933C225.267,333.933 226.298,333.719 226.798,333.292C227.298,332.865 227.548,332.011 227.548,330.73C227.548,329.449 227.298,328.631 226.798,328.277C226.298,327.923 225.267,327.745 223.704,327.745L158.22,327.745C156.793,327.745 155.793,327.995 155.22,328.495C154.657,328.985 154.657,329.798 155.22,330.933ZM125.36,402.62C120.954,402.62 117.183,401.162 114.048,398.245C110.923,395.329 109.36,391.24 109.36,385.98C109.36,380.574 110.959,376.485 114.157,373.714C117.355,370.943 121.303,369.558 126.001,369.558L268.079,369.558C272.912,369.558 276.787,371.016 279.704,373.933C282.621,376.839 284.079,380.855 284.079,385.98C284.079,390.959 282.621,394.98 279.704,398.042C276.787,401.094 272.912,402.62 268.079,402.62L213.47,402.62C208.626,402.62 205.996,404.824 205.579,409.23L243.751,409.23C250.011,409.23 254.454,410.225 257.079,412.214C259.714,414.204 261.032,418.329 261.032,424.589C261.032,430.704 259.714,434.902 257.079,437.183C254.454,439.454 250.011,440.589 243.751,440.589L151.595,440.589C149.751,440.589 148.579,440.662 148.079,440.808C147.579,440.943 147.329,441.584 147.329,442.73C147.329,443.719 147.579,444.391 148.079,444.745C148.579,445.1 149.751,445.277 151.595,445.277L248.454,445.277C255.704,445.277 260.892,446.344 264.017,448.48C267.152,450.615 268.72,454.74 268.72,460.855C268.72,466.969 267.152,471.199 264.017,473.542C260.892,475.896 255.704,477.074 248.454,477.074L151.813,477.074C145.418,477.074 140.261,476.501 136.345,475.355C132.438,474.219 129.595,471.98 127.813,468.636C126.032,465.303 125.142,460.506 125.142,454.245C125.142,446.704 126.954,441.584 130.579,438.886C134.214,436.178 139.584,434.824 146.688,434.824L228.392,434.824C229.392,434.824 230.142,434.719 230.642,434.511C231.142,434.292 231.392,433.615 231.392,432.48C231.392,431.344 231.142,430.673 230.642,430.464C230.142,430.245 229.392,430.136 228.392,430.136L142.86,430.136C139.298,430.136 136.345,429.355 134.001,427.792C131.657,426.23 130.485,423.527 130.485,419.683C130.485,415.985 131.621,413.318 133.892,411.683C136.173,410.048 139.162,409.23 142.86,409.23L182.532,409.23L182.532,402.62L125.36,402.62L125.36,402.62ZM426.575,385.558C420.034,385.412 415.127,383.563 411.857,380.011C408.586,376.449 407.091,372.178 407.372,367.199C407.664,363.928 408.377,361.37 409.513,359.527C410.648,357.673 411.747,355.964 412.81,354.402C413.883,352.839 414.419,350.85 414.419,348.433C414.419,345.87 413.742,344.021 412.388,342.886C411.044,341.751 408.523,341.183 404.825,341.183L331.653,341.183C324.82,341.183 319.377,338.98 315.325,334.574C311.273,330.157 309.247,324.891 309.247,318.777C309.247,312.516 311.273,307.506 315.325,303.745C319.377,299.975 324.82,298.089 331.653,298.089L418.044,298.089C429.138,298.089 436.888,300.475 441.294,305.245C445.711,310.006 448.341,317.079 449.185,326.464C449.903,332.579 450.19,338.553 450.044,344.386C449.898,350.209 449.258,357.178 448.122,365.292C447.414,370.98 445.638,375.813 442.794,379.792C439.95,383.771 434.544,385.693 426.575,385.558ZM294.107,411.37C294.107,405.11 296.06,400.204 299.966,396.652C303.883,393.089 308.685,391.308 314.372,391.308L451.544,391.308C456.94,391.308 461.487,393.193 465.185,396.964C468.883,400.735 470.732,405.537 470.732,411.37C470.732,417.193 468.883,421.99 465.185,425.761C461.487,429.532 456.94,431.417 451.544,431.417L394.794,431.417C392.805,431.417 391.523,432.094 390.95,433.449C390.388,434.792 390.888,436.037 392.45,437.183C394.294,438.6 396.351,440.699 398.622,443.48C400.903,446.251 402.044,450.193 402.044,455.308C402.044,461.423 400.159,466.542 396.388,470.667C392.627,474.792 386.549,476.855 378.153,476.855C371.185,476.855 365.424,474.792 360.872,470.667C356.32,466.542 354.044,461.423 354.044,455.308C354.044,451.183 354.721,447.844 356.075,445.292C357.43,442.73 358.992,440.704 360.763,439.214C362.544,437.714 364.107,436.683 365.45,436.12C366.805,435.548 367.482,435.261 367.482,435.261L365.138,431.417L313.935,431.417C308.539,431.417 303.883,429.641 299.966,426.089C296.06,422.527 294.107,417.62 294.107,411.37L294.107,411.37ZM584.228,313.449C584.228,307.615 586.113,302.709 589.884,298.73C593.655,294.751 598.811,292.761 605.353,292.761C611.603,292.761 616.54,294.787 620.165,298.839C623.801,302.891 625.618,307.902 625.618,313.87L625.618,365.495L629.025,366.558C630.16,361.87 632.15,358.141 634.993,355.37C637.848,352.589 641.478,351.199 645.884,351.199C650.863,351.199 654.952,353.084 658.15,356.855C661.348,360.626 662.947,365.641 662.947,371.902C662.947,378.443 661.202,383.527 657.712,387.152C654.233,390.777 650.29,392.589 645.884,392.589C642.186,392.589 639.129,391.594 636.712,389.605C634.296,387.615 632.301,385.266 630.728,382.558C629.738,380.86 628.639,380.261 627.431,380.761C626.223,381.251 625.618,382.49 625.618,384.48L625.618,457.652C625.618,463.058 623.733,467.61 619.962,471.308C616.191,475.006 611.322,476.855 605.353,476.855C599.238,476.855 594.186,475.006 590.197,471.308C586.217,467.61 584.228,463.058 584.228,457.652L584.228,313.449ZM529.837,446.995C520.587,446.995 512.514,445.074 505.619,441.23C498.723,437.386 493.353,431.98 489.509,425.011C485.676,418.042 483.759,409.865 483.759,400.48C483.759,393.376 484.754,387.053 486.744,381.511C488.733,375.959 491.217,371.334 494.197,367.636C497.186,363.938 500.035,361.449 502.744,360.167L500.822,355.48L498.478,355.48C492.78,355.48 488.259,353.881 484.915,350.683C481.582,347.475 479.915,342.318 479.915,335.214C479.915,328.1 481.582,322.943 484.915,319.745C488.259,316.537 492.78,314.933 498.478,314.933L507.431,314.933L507.431,312.589C507.431,306.766 509.244,302.292 512.869,299.167C516.494,296.032 521.577,294.464 528.119,294.464C534.806,294.464 539.962,296.063 543.587,299.261C547.212,302.459 549.025,307.048 549.025,313.027L549.025,314.933L559.697,314.933C565.957,314.933 570.827,316.537 574.306,319.745C577.796,322.943 579.54,328.1 579.54,335.214C579.54,342.183 577.796,347.303 574.306,350.574C570.827,353.844 565.957,355.48 559.697,355.48L558.415,355.48L558.415,355.683C559.978,356.818 562.04,358.917 564.603,361.98C567.165,365.032 569.441,369.334 571.431,374.886C573.421,380.428 574.415,387.751 574.415,396.855C574.415,412.355 570.577,424.589 562.9,433.558C555.223,442.516 544.202,446.995 529.837,446.995ZM507.009,377.23C507.009,386.053 508.145,392.1 510.415,395.37C512.697,398.641 516.254,400.277 521.087,400.277C526.066,400.277 529.587,398.678 531.65,395.48C533.712,392.271 534.744,386.188 534.744,377.23C534.744,369.271 533.603,363.693 531.322,360.495C529.051,357.287 525.566,355.683 520.869,355.683C516.035,355.683 512.514,357.251 510.306,360.386C508.108,363.511 507.009,369.126 507.009,377.23ZM793.724,411.792C788.88,411.219 784.86,409.48 781.662,406.574C778.464,403.657 776.365,400.136 775.365,396.011C774.375,391.886 774.662,387.688 776.224,383.417C777.651,379.574 779.573,376.693 781.99,374.777C784.406,372.86 786.823,371.298 789.24,370.089C791.656,368.881 793.719,367.495 795.427,365.933C797.136,364.36 797.99,361.87 797.99,358.464C797.99,355.329 797.203,353.126 795.63,351.855C794.068,350.574 791.438,349.933 787.74,349.933L704.974,349.933C698.005,349.933 692.495,347.693 688.443,343.214C684.391,338.725 682.365,333.495 682.365,327.527C682.365,321.412 684.391,316.225 688.443,311.964C692.495,307.693 698.005,305.558 704.974,305.558L786.459,305.558C797.698,305.558 806.302,308.048 812.271,313.027C818.25,317.995 821.948,325.178 823.365,334.574C824.219,340.688 824.646,348.548 824.646,358.152C824.646,367.745 823.651,377.589 821.662,387.683C820.099,395.933 816.755,402.23 811.63,406.574C806.516,410.907 800.547,412.646 793.724,411.792ZM666.787,441.011C666.787,434.761 668.813,429.751 672.865,425.98C676.917,422.209 681.719,420.324 687.271,420.324L729.505,420.324L732.271,415.839C730.281,414.85 727.865,412.829 725.021,409.777C722.177,406.714 720.755,401.98 720.755,395.574C720.755,389.751 722.818,384.673 726.943,380.339C731.068,375.995 736.969,373.824 744.646,373.824C752.334,373.824 758.13,376.027 762.037,380.433C765.953,384.839 767.912,389.886 767.912,395.574C767.912,400.553 766.985,404.433 765.13,407.214C763.287,409.985 761.578,412.219 760.005,413.917C758.308,415.49 758.026,416.954 759.162,418.308C760.297,419.652 761.578,420.324 763.005,420.324L822.302,420.324C827.854,420.324 832.443,422.282 836.068,426.199C839.693,430.105 841.505,435.042 841.505,441.011C841.505,447.126 839.693,452.178 836.068,456.167C832.443,460.146 827.854,462.136 822.302,462.136L686.834,462.136C681.573,462.136 676.917,460.251 672.865,456.48C668.813,452.709 666.787,447.553 666.787,441.011Z" style="fill:rgb(206,255,235);fill-rule:nonzero;"/>
        <path d="M95.454,51.554L860.588,51.648L860.588,303.743L95.454,303.648L95.454,51.554Z" style="fill-opacity:0;"/>
        <path d="M236.298,195.188C231.454,194.615 227.433,192.869 224.235,189.952C221.037,187.035 218.938,183.483 217.938,179.295C216.949,175.097 217.235,170.936 218.798,166.811C220.225,162.967 222.074,160.014 224.345,157.952C226.616,155.89 228.886,154.255 231.157,153.047C233.438,151.839 235.36,150.454 236.923,148.891C238.496,147.329 239.282,145.053 239.282,142.063C239.282,136.095 235.866,133.11 229.032,133.109L147.548,133.099C140.579,133.098 135.069,130.894 131.017,126.488C126.964,122.07 124.938,116.877 124.938,110.909C124.938,104.648 126.964,99.388 131.017,95.128C135.069,90.858 140.579,88.723 147.548,88.724L229.032,88.734C240.272,88.735 248.876,91.226 254.845,96.206C260.824,101.186 264.522,108.369 265.938,117.754C266.793,124.015 267.22,131.947 267.22,141.551C267.22,151.145 266.225,160.916 264.235,170.863C262.673,179.113 259.329,185.41 254.204,189.753C249.089,194.085 243.121,195.897 236.298,195.188L236.298,195.188ZM109.36,223.11C109.36,216.86 111.386,211.85 115.438,208.079C119.491,204.309 124.293,202.424 129.845,202.425L264.876,202.442C270.428,202.442 275.017,204.401 278.642,208.318C282.267,212.225 284.079,217.163 284.079,223.131C284.079,229.246 282.267,234.298 278.642,238.287C275.017,242.266 270.428,244.255 264.876,244.254L129.407,244.237C124.147,244.237 119.491,242.351 115.438,238.579C111.386,234.808 109.36,229.652 109.36,223.11ZM385.622,126.3C385.622,120.748 387.148,115.983 390.2,112.004C393.263,108.025 397.211,106.036 402.044,106.037C406.45,106.037 409.935,106.959 412.497,108.804L412.497,95.366C412.497,89.533 414.414,84.804 418.247,81.179C422.091,77.555 427.284,75.743 433.825,75.744C440.232,75.744 445.284,77.594 448.982,81.292C452.68,84.991 454.528,89.83 454.528,95.809L454.528,160.434C454.528,165.84 452.607,170.392 448.763,174.089C444.93,177.787 439.95,179.635 433.825,179.634C427.711,179.634 422.627,177.784 418.575,174.086C414.523,170.387 412.497,165.835 412.497,160.429L412.497,144.007C410.362,145.569 406.877,146.35 402.044,146.349C396.784,146.348 392.732,144.322 389.888,140.27C387.044,136.217 385.622,131.561 385.622,126.3L385.622,126.3ZM336.763,177.497C330.367,177.497 324.289,176.855 318.528,175.573C312.768,174.291 308.075,171.947 304.45,168.54C300.825,165.123 299.013,160.211 299.013,153.805C299.013,148.545 299.935,144.456 301.778,141.54C303.633,138.623 305.805,136.494 308.294,135.15C310.784,133.796 312.81,132.906 314.372,132.479C312.81,132.479 311.174,131.947 309.466,130.885C307.758,129.811 306.903,127.853 306.903,125.009C306.903,120.03 310.315,117.541 317.138,117.542L356.825,117.344C358.815,117.344 360.127,117.167 360.763,116.813C361.409,116.448 361.732,115.771 361.732,114.782C361.732,112.928 360.023,112 356.607,112L316.716,111.995C312.31,111.994 308.258,110.749 304.56,108.259C300.862,105.769 299.013,101.467 299.013,95.352C299.013,89.519 300.825,85.217 304.45,82.446C308.075,79.676 312.091,78.291 316.497,78.292L355.325,78.297C363.721,78.298 370.226,80.147 374.841,83.846C379.466,87.544 381.778,93.164 381.778,100.706L381.778,110.3C381.778,117.977 379.997,123.633 376.435,127.268C372.883,130.892 366.7,132.704 357.888,132.703L322.685,132.699C319.414,132.698 317.778,133.693 317.778,135.682C317.778,136.964 318.169,137.714 318.95,137.933C319.732,138.141 320.976,138.245 322.685,138.246L362.794,138.251C371.19,138.252 377.591,139.674 381.997,142.519C386.403,145.363 388.607,150.337 388.607,157.441C388.607,164.41 386.403,169.498 381.997,172.706C377.591,175.903 371.19,177.502 362.794,177.501L336.763,177.497L336.763,177.497ZM323.544,234.23C323.544,229.543 324.398,225.704 326.107,222.715C327.815,219.725 329.732,217.45 331.857,215.887C333.992,214.325 335.627,213.471 336.763,213.325L336.763,213.122C332.784,213.122 329.586,211.809 327.169,209.184C324.752,206.548 323.544,203.022 323.544,198.605C323.544,194.48 324.789,190.996 327.278,188.152C329.768,185.309 333.57,183.888 338.685,183.888L425.513,183.899C442.294,183.901 450.685,192.225 450.685,208.871L450.685,235.324C450.685,251.105 442.294,258.995 425.513,258.993L358.528,258.984C346.581,258.983 337.763,256.81 332.075,252.465C326.388,248.131 323.544,242.053 323.544,234.23L323.544,234.23ZM345.091,216.748C345.091,218.165 345.445,219.087 346.153,219.514C346.862,219.941 348.357,220.155 350.638,220.155L409.091,220.163C411.362,220.163 412.815,219.949 413.45,219.522C414.096,219.095 414.419,218.174 414.419,216.757C414.419,215.194 414.096,214.2 413.45,213.772C412.815,213.345 411.362,213.132 409.091,213.131L350.638,213.124C348.357,213.124 346.862,213.337 346.153,213.764C345.445,214.191 345.091,215.186 345.091,216.748ZM618.368,92.626C618.368,86.793 619.967,82.386 623.165,79.408C626.363,76.419 630.52,74.924 635.634,74.925C640.759,74.925 644.921,76.421 648.118,79.411C651.316,82.39 652.915,86.797 652.915,92.63L652.915,241.099C652.915,246.932 651.316,251.375 648.118,254.426C644.921,257.489 640.759,259.019 635.634,259.019C630.52,259.018 626.363,257.486 623.165,254.423C619.967,251.371 618.368,246.928 618.368,241.095L618.368,92.626L618.368,92.626ZM483.54,180.281C483.395,171.75 484.316,164.713 486.306,159.172C488.296,153.62 490.785,149.386 493.775,146.47C496.764,143.554 499.54,141.668 502.103,140.815L500.384,136.127C497.113,136.127 494.056,134.6 491.212,131.548C488.369,128.485 486.806,124.177 486.525,118.625C485.952,109.813 488.832,102.599 495.165,96.986C501.499,91.361 510.848,88.55 523.212,88.552C536.014,88.553 546.181,92.221 553.712,99.555C561.254,106.879 566.233,118.145 568.65,133.354L573.134,133.355C577.405,133.355 579.54,131.085 579.54,126.543L579.54,94.965C579.54,89.704 581.103,85.58 584.228,82.59C587.353,79.601 591.337,78.107 596.181,78.107C600.869,78.108 604.811,79.603 608.009,82.593C611.217,85.583 612.822,89.709 612.822,94.969L612.822,238.75C612.822,244.011 611.217,248.135 608.009,251.125C604.811,254.114 600.869,255.608 596.181,255.608C591.337,255.607 587.353,254.112 584.228,251.122C581.103,248.132 579.54,244.006 579.54,238.746L579.54,156.402L570.369,156.401L570.369,157.464C570.369,173.682 568.52,186.875 564.822,197.041C561.124,207.207 555.931,214.675 549.244,219.445C542.556,224.205 534.733,226.584 525.775,226.583C519.087,226.582 512.546,224.946 506.15,221.675C499.754,218.403 494.457,213.355 490.259,206.532C486.061,199.698 483.822,190.948 483.54,180.281L483.54,180.281ZM519.587,178.364C523.712,178.364 526.77,176.625 528.759,173.146C530.749,169.657 531.744,163.506 531.744,154.693C531.744,145.443 530.712,139.115 528.65,135.709C526.587,132.292 523.566,130.583 519.587,130.582C515.181,130.582 511.91,132.29 509.775,135.706C507.639,139.112 506.572,145.44 506.572,154.69C506.572,163.367 507.639,169.482 509.775,173.034C511.91,176.587 515.181,178.363 519.587,178.364ZM726.521,189.28C712.156,189.278 701.594,186.433 694.834,180.745C688.084,175.046 684.709,167.436 684.709,157.915C684.709,152.509 685.667,148.066 687.584,144.588C689.511,141.098 691.823,138.359 694.521,136.37C697.219,134.37 699.563,133.089 701.552,132.527L699.646,128.902C695.229,128.901 691.459,126.77 688.334,122.509C685.209,118.238 683.646,113.467 683.646,108.196C683.646,102.801 685.313,98.077 688.646,94.025C691.99,89.963 696.578,87.932 702.412,87.933L793.927,87.944C800.615,87.945 805.662,89.904 809.068,93.821C812.485,97.728 814.193,102.598 814.193,108.431C814.193,114.119 812.485,118.988 809.068,123.04C805.662,127.092 800.615,129.117 793.927,129.116L722.255,129.107C719.412,129.107 717.24,129.82 715.74,131.247C714.25,132.664 714.146,134.513 715.427,136.794C716.99,139.357 718.339,141.383 719.474,142.873C720.62,144.362 722.115,145.43 723.959,146.076C725.813,146.712 728.516,147.03 732.068,147.031L797.349,147.039C805.735,147.04 811.776,148.889 815.474,152.588C819.172,156.286 821.021,161.265 821.021,167.526C821.021,174.068 819.172,179.333 815.474,183.322C811.776,187.301 805.802,189.29 797.552,189.289L764.068,189.284L764.068,195.472C764.068,200.159 766.839,202.504 772.38,202.504L822.084,202.51C827.636,202.511 832.261,204.47 835.959,208.387C839.656,212.294 841.505,217.232 841.505,223.2C841.505,229.315 839.656,234.367 835.959,238.356C832.261,242.335 827.636,244.324 822.084,244.323L686.63,244.306C681.37,244.306 676.745,242.42 672.755,238.648C668.776,234.877 666.787,229.72 666.787,223.179C666.787,216.929 668.776,211.919 672.755,208.148C676.745,204.378 681.511,202.493 687.052,202.494L739.74,202.5L739.74,189.281L726.521,189.28L726.521,189.28Z" style="fill:rgb(206,255,235);fill-rule:nonzero;"/>
        <path d="M388.006,159.675L462.252,130.85L490.257,206.655L416.011,235.48L388.006,159.675Z" style="fill-opacity:0;"/>
        <path d="M450.764,201.969L434.409,157.699L440.411,155.37L446.871,172.858L453.47,170.296L455.598,176.057L448.999,178.618L456.765,199.639L450.764,201.969ZM412.731,188.509C410.822,183.339 410.259,178.78 411.043,174.833C411.838,170.882 414.002,168.22 417.537,166.848C421.081,165.472 424.432,165.992 427.59,168.409C430.748,170.826 433.282,174.619 435.192,179.789C437.113,184.988 437.671,189.565 436.867,193.519C436.063,197.474 433.889,200.14 430.344,201.516C426.81,202.888 423.468,202.364 420.32,199.944C417.182,197.519 414.652,193.708 412.731,188.509L412.731,188.509ZM418.689,186.196C419.544,188.512 420.459,190.476 421.431,192.087C422.41,193.685 423.507,194.896 424.722,195.72C425.944,196.531 427.166,196.699 428.389,196.224C430.205,195.519 431.132,193.88 431.169,191.306C431.203,188.723 430.563,185.653 429.249,182.096C427.924,178.509 426.426,175.778 424.756,173.901C423.091,172.01 421.337,171.423 419.492,172.14C418.239,172.626 417.421,173.597 417.037,175.054C416.664,176.506 416.634,178.155 416.949,179.999C417.264,181.843 417.844,183.909 418.689,186.196Z" style="fill:rgb(64,59,59);fill-rule:nonzero;"/>
        <path d="M323.518,236.46L364.052,175.353L430.388,221.517L389.854,282.623L323.518,236.46Z" style="fill-opacity:0;"/>
        <path d="M383.731,257.028L373.532,249.931L388.596,227.222L386.12,225.499L370.944,248.377L366.801,245.493L385.422,217.421L395.582,224.491L380.545,247.16L383.098,248.937L398.679,225.447L402.784,228.304L383.731,257.028L383.731,257.028ZM361.046,248.911C361.046,248.911 357.057,246.135 357.057,246.135L368,229.637L364.151,226.959L367.649,221.686L371.498,224.364L382.381,207.958L386.37,210.734L361.046,248.911ZM357.767,238.731L346.145,230.643L364.499,202.974L368.514,205.768L353.632,228.203L357.211,230.694L372.223,208.064L376.251,210.867L357.767,238.731L357.767,238.731Z" style="fill:rgb(64,59,59);fill-rule:nonzero;"/>
        <path d="M629.486,326.342L582.289,381.433L522.245,327.321L569.441,272.23L629.486,326.342Z" style="fill-opacity:0;"/>
        <path d="M552.163,321.086L587.227,352.686L583.263,357.313L548.198,325.714L552.163,321.086ZM578.737,325.731L583.253,329.802L580.001,333.599L592.354,344.732L588.654,349.051L556.086,319.701L559.786,315.382L575.484,329.529L578.737,325.731ZM582.342,299.164L586.278,302.711L583.513,305.939L600.929,321.634L603.115,319.083L607.051,322.63L592.504,339.61L588.568,336.063L590.662,333.618L573.432,318.091C572.679,318.969 571.745,320.236 570.627,321.893L566.912,318.544C570.591,313.337 574.748,308.028 579.384,302.617L582.342,299.164ZM580.036,309.997C580.036,309.997 579.294,310.863 579.294,310.863C579.145,311.037 578.333,312.057 576.857,313.924L594.169,329.525L597.453,325.692L580.036,309.997Z" style="fill:rgb(64,59,59);fill-rule:nonzero;"/>
        <path d="M506.193,128.823L577.306,165.024L542.108,237.753L470.994,201.552L506.193,128.823Z" style="fill-opacity:0;"/>
        <path d="M517.994,204.559L538.555,162.076L544.292,164.996L536.02,182.088L542.634,185.455L539.938,191.026L533.324,187.659L523.731,207.479L517.994,204.559L517.994,204.559ZM494.372,180.716C500.863,180.023 506.551,178.202 511.437,175.255C516.328,172.297 519.791,168.8 521.826,164.763L508.333,157.894L510.811,152.774L530.25,162.669C528.425,166.439 526.278,169.753 523.807,172.61C521.351,175.462 518.659,177.809 515.732,179.65C512.814,181.496 509.795,182.951 506.676,184.017C503.562,185.073 500.202,185.847 496.597,186.338L494.372,180.716L494.372,180.716Z" style="fill:rgb(64,59,59);fill-rule:nonzero;"/>
        <path d="M587.109,178.426L636.483,242.173L573.81,293.208L524.437,229.461L587.109,178.426Z" style="fill-opacity:0;"/>
        <path d="M550.957,231.213L562.579,221.748L566.425,226.714L559.057,232.715L576.02,254.617L571.766,258.081L550.956,231.213L550.957,231.213ZM560.699,214.396L564.844,211.021L592.897,247.24L588.752,250.615L560.699,214.396ZM573.638,212.602L585.964,202.565L589.839,207.568L581.549,214.319L598.455,236.146L594.419,239.433L573.638,212.602L573.638,212.602Z" style="fill:rgb(64,59,59);fill-rule:nonzero;"/>
        <path d="M568.925,389.882L503.465,419.442L471.638,345.162L537.097,315.602L568.925,389.882Z" style="fill-opacity:0;"/>
        <path d="M504.773,350.669L523.361,394.051L517.451,396.72L510.207,379.812L503.585,382.803L501.166,377.157L507.788,374.167L498.863,353.338L504.773,350.669ZM534.736,348.368L547.582,378.348L527.645,387.35L525.497,382.337L539.794,375.881L531.245,355.928L530.206,356.398C524.766,358.854 519.392,361.715 514.083,364.981L512.071,360.284C518.134,356.426 525.114,352.713 533.013,349.146L534.736,348.368L534.736,348.368Z" style="fill:rgb(64,59,59);fill-rule:nonzero;"/>
        <path d="M468.772,421.061L399.436,403.069L418.841,324.625L488.176,342.616L468.772,421.061Z" style="fill-opacity:0;"/>
        <path d="M471.586,363.162L470.243,368.593L454.725,364.566L450.71,380.797L444.434,379.168L448.449,362.938L425.853,357.074L427.197,351.644L471.586,363.162L471.586,363.162ZM458.105,392.934L456.751,398.41L423.175,389.698C425.354,380.89 428.346,372.589 432.152,364.795L438.232,366.372C436.572,369.611 435.038,373.06 433.628,376.72C432.209,380.376 431.203,383.403 430.61,385.799L458.105,392.934L458.105,392.934Z" style="fill:rgb(64,59,59);fill-rule:nonzero;"/>
        <path d="M378.802,381.544L330.729,327.242L389.951,272.232L438.024,326.534L378.802,381.544Z" style="fill-opacity:0;"/>
        <path d="M393.428,304.319L358.844,336.442L354.577,331.622L389.161,299.499L393.428,304.319ZM408.301,337.62C398.318,335.238 390.122,336.996 383.712,342.893L380.666,345.722L387.263,353.175L382.946,357.185L365.494,337.472L369.811,333.461L376.409,340.914L379.386,338.148C381.119,336.539 382.557,334.642 383.698,332.459C384.825,330.275 385.61,328.089 386.053,325.901C386.487,323.721 386.747,321.703 386.83,319.849C386.906,318.002 386.849,316.272 386.658,314.658L392.449,315.141C392.704,317.52 392.629,320.404 392.222,323.795C391.808,327.193 391.08,330.072 390.039,332.432C392.346,331.454 395.361,330.892 399.085,330.745C402.808,330.598 405.877,330.867 408.292,331.552L408.301,337.62Z" style="fill:rgb(64,59,59);fill-rule:nonzero;"/>
        <path d="M915.9,153.906L906.262,387.638L867.459,386.094L877.097,152.362L915.9,153.906Z" style="fill-opacity:0;"/>
        <path d="M903.815,164.183C903.544,164.173 903.312,164.236 903.119,164.375C902.936,164.513 902.767,164.699 902.611,164.933C902.455,165.177 902.293,165.452 902.124,165.758C901.988,166.003 901.848,166.242 901.703,166.476C901.568,166.721 901.413,166.944 901.237,167.146C901.073,167.348 900.874,167.501 900.64,167.607C900.416,167.723 900.148,167.775 899.836,167.762C899.492,167.749 899.174,167.632 898.881,167.412C898.587,167.202 898.349,166.911 898.166,166.539C897.994,166.167 897.918,165.726 897.939,165.216C897.961,164.685 898.079,164.231 898.292,163.854C898.506,163.477 898.763,163.195 899.062,163.009C899.372,162.823 899.678,162.737 899.98,162.749C900.157,162.756 900.29,162.818 900.379,162.936C900.467,163.065 900.513,163.234 900.514,163.442C900.515,163.672 900.443,163.789 900.297,163.793C900.234,163.801 900.183,163.778 900.143,163.725C900.114,163.682 900.052,163.653 899.959,163.639C899.772,163.621 899.557,163.665 899.312,163.77C899.068,163.875 898.852,164.054 898.665,164.307C898.487,164.56 898.391,164.875 898.376,165.249C898.36,165.624 898.42,165.934 898.556,166.179C898.692,166.424 898.872,166.614 899.096,166.748C899.33,166.882 899.572,166.96 899.821,166.98C900.102,166.991 900.34,166.907 900.535,166.727C900.73,166.547 900.907,166.319 901.064,166.044C901.221,165.769 901.379,165.483 901.537,165.187C901.684,164.912 901.852,164.632 902.041,164.347C902.229,164.073 902.458,163.848 902.726,163.671C903.004,163.494 903.341,163.414 903.736,163.43C904.059,163.442 904.352,163.553 904.614,163.762C904.887,163.971 905.105,164.255 905.267,164.616C905.429,164.977 905.501,165.397 905.481,165.876C905.462,166.323 905.358,166.7 905.168,167.005C904.989,167.311 904.776,167.537 904.531,167.683C904.285,167.83 904.053,167.899 903.834,167.89C903.553,167.879 903.399,167.69 903.373,167.324C903.378,167.189 903.403,167.086 903.448,167.015C903.502,166.954 903.556,166.925 903.608,166.927C903.691,166.931 903.758,166.954 903.808,166.998C903.858,167.052 903.915,167.075 903.977,167.067C904.081,167.082 904.213,167.05 904.372,166.973C904.542,166.897 904.694,166.762 904.827,166.569C904.97,166.377 905.049,166.119 905.062,165.797C905.077,165.422 905.017,165.117 904.881,164.882C904.755,164.648 904.59,164.475 904.386,164.362C904.193,164.25 904.002,164.191 903.815,164.183ZM896.707,169.687L896.192,169.651C895.985,169.632 895.831,169.574 895.731,169.476C895.63,169.389 895.601,169.205 895.644,168.926L901.13,169.363C900.786,169.12 900.408,168.927 899.997,168.786C899.999,168.744 900.027,168.699 900.081,168.649C900.135,168.599 900.234,168.597 900.378,168.645C900.646,168.718 900.902,168.822 901.147,168.957C901.402,169.092 901.636,169.242 901.848,169.407L902.892,169.495C903.069,169.502 903.191,169.58 903.258,169.729C903.335,169.878 903.334,170.019 903.256,170.151L902.523,170.106C902.771,170.408 902.946,170.717 903.048,171.034C903.16,171.351 903.194,171.655 903.151,171.945C903.082,172.349 902.907,172.681 902.625,172.941C902.354,173.201 902.012,173.38 901.602,173.478C901.202,173.577 900.769,173.586 900.303,173.505C899.899,173.447 899.518,173.317 899.162,173.116C898.815,172.914 898.523,172.673 898.284,172.393C898.056,172.112 897.907,171.809 897.837,171.484C897.793,171.284 897.787,171.054 897.819,170.795C897.85,170.535 897.927,170.325 898.048,170.163C898.114,170.082 898.178,170.043 898.24,170.045C898.302,170.058 898.349,170.076 898.379,170.098C898.246,170.28 898.175,170.501 898.164,170.762C898.153,171.022 898.221,171.28 898.367,171.536C898.522,171.813 898.752,172.057 899.056,172.267C899.37,172.488 899.744,172.638 900.179,172.718C900.582,172.797 900.952,172.806 901.288,172.747C901.634,172.687 901.921,172.574 902.147,172.405C902.372,172.237 902.512,172.013 902.565,171.734C902.628,171.476 902.603,171.199 902.49,170.902C902.377,170.616 902.195,170.338 901.946,170.068L896.707,169.687ZM904.917,174.995C904.991,174.977 905.042,175.01 905.069,175.095C905.097,175.179 905.098,175.289 905.072,175.423C905.045,175.558 904.993,175.686 904.915,175.808C904.837,175.94 904.734,176.035 904.606,176.093C904.469,176.139 904.329,176.108 904.188,175.998C904.056,175.899 903.973,175.781 903.937,175.644C903.918,175.581 903.922,175.482 903.949,175.347C903.975,175.223 904.05,175.158 904.176,175.153C904.238,175.155 904.338,175.144 904.474,175.118C904.611,175.092 904.759,175.051 904.917,174.995ZM898.275,174.903C898.275,174.903 902.106,175.274 902.106,175.274C902.117,175.264 902.118,175.248 902.108,175.227C902.109,175.206 902.096,175.159 902.067,175.085C901.923,174.787 901.959,174.549 902.175,174.37C902.254,174.487 902.347,174.632 902.454,174.803C902.572,174.985 902.674,175.156 902.762,175.316C902.859,175.476 902.912,175.582 902.92,175.635C902.958,175.74 902.954,175.824 902.91,175.884C902.876,175.956 902.812,175.99 902.718,175.986L898.544,175.57C898.461,175.567 898.377,175.579 898.293,175.607C898.218,175.635 898.179,175.707 898.174,175.821C898.171,175.894 898.199,175.984 898.257,176.09C898.325,176.208 898.415,176.316 898.525,176.414C898.566,176.447 898.579,176.489 898.567,176.54C898.554,176.603 898.511,176.622 898.439,176.598C898.212,176.547 898.009,176.419 897.83,176.214C897.65,176.009 897.566,175.771 897.578,175.5C897.586,175.292 897.661,175.134 897.801,175.024C897.951,174.926 898.109,174.886 898.275,174.903ZM897.638,177.82C897.638,177.82 901.908,178.193 901.908,178.193C901.941,178.152 901.923,178.079 901.854,177.972C901.72,177.685 901.762,177.442 901.978,177.242C902.046,177.37 902.134,177.519 902.241,177.69C902.359,177.872 902.467,178.043 902.564,178.203C902.662,178.364 902.715,178.47 902.723,178.522C902.75,178.628 902.741,178.711 902.697,178.772C902.663,178.843 902.599,178.872 902.506,178.858L900.98,178.703C901.297,178.851 901.592,179.035 901.864,179.254C902.136,179.484 902.355,179.748 902.52,180.047C902.684,180.345 902.76,180.666 902.746,181.01C902.739,181.166 902.691,181.331 902.6,181.504C902.52,181.689 902.383,181.834 902.191,181.941C901.999,182.059 901.726,182.1 901.373,182.065L898.367,181.758C898.253,181.754 898.153,181.765 898.069,181.793C897.984,181.821 897.94,181.892 897.935,182.007C897.932,182.08 897.965,182.164 898.034,182.261C898.103,182.357 898.183,182.434 898.275,182.489C898.325,182.523 898.339,182.565 898.316,182.616C898.304,182.668 898.261,182.687 898.189,182.674C897.982,182.624 897.794,182.507 897.625,182.323C897.455,182.149 897.375,181.938 897.385,181.688C897.394,181.469 897.468,181.311 897.608,181.212C897.758,181.114 897.916,181.068 898.083,181.074L901.401,181.394C901.608,181.423 901.777,181.372 901.907,181.242C902.048,181.112 902.128,180.938 902.148,180.72C902.173,180.367 902.041,180.012 901.754,179.657C901.476,179.312 901.024,179.023 900.398,178.79C900.295,178.744 900.172,178.702 900.027,178.665C899.893,178.639 899.748,178.623 899.592,178.617L898.22,178.5C897.97,178.49 897.801,178.436 897.711,178.339C897.621,178.241 897.597,178.068 897.638,177.82ZM897.391,183.828C897.391,183.828 901.66,184.202 901.66,184.202C901.693,184.161 901.675,184.087 901.607,183.98C901.473,183.694 901.514,183.45 901.731,183.25C901.798,183.378 901.886,183.528 901.994,183.699C902.111,183.881 902.219,184.052 902.317,184.212C902.414,184.372 902.467,184.479 902.475,184.531C902.502,184.636 902.494,184.719 902.449,184.78C902.415,184.852 902.351,184.881 902.258,184.866L900.732,184.712C901.049,184.86 901.344,185.044 901.616,185.263C901.888,185.493 902.107,185.757 902.272,186.055C902.437,186.354 902.512,186.675 902.498,187.018C902.491,187.174 902.443,187.339 902.352,187.513C902.272,187.697 902.135,187.843 901.943,187.95C901.751,188.068 901.478,188.109 901.125,188.074L898.12,187.767C898.005,187.762 897.906,187.774 897.821,187.802C897.736,187.83 897.692,187.901 897.687,188.015C897.684,188.088 897.717,188.173 897.786,188.27C897.855,188.366 897.935,188.442 898.027,188.498C898.078,188.531 898.092,188.574 898.069,188.625C898.056,188.676 898.014,188.696 897.941,188.682C897.735,188.632 897.547,188.515 897.377,188.331C897.207,188.158 897.127,187.946 897.137,187.696C897.146,187.478 897.221,187.319 897.36,187.221C897.51,187.122 897.669,187.076 897.835,187.083L901.153,187.403C901.36,187.432 901.529,187.381 901.66,187.251C901.8,187.121 901.881,186.947 901.9,186.729C901.925,186.375 901.794,186.021 901.506,185.665C901.228,185.321 900.776,185.032 900.15,184.798C900.048,184.752 899.924,184.711 899.78,184.674C899.645,184.648 899.5,184.632 899.344,184.625L897.972,184.508C897.723,184.498 897.553,184.445 897.463,184.347C897.373,184.25 897.349,184.077 897.391,183.828ZM904.297,190.043C904.37,190.026 904.421,190.059 904.449,190.143C904.477,190.228 904.477,190.337 904.451,190.472C904.425,190.606 904.372,190.735 904.294,190.857C904.216,190.989 904.113,191.084 903.986,191.141C903.848,191.188 903.709,191.156 903.567,191.047C903.436,190.947 903.352,190.829 903.316,190.693C903.298,190.629 903.302,190.53 903.328,190.396C903.354,190.272 903.43,190.207 903.555,190.202C903.618,190.204 903.717,190.192 903.854,190.167C903.99,190.141 904.138,190.1 904.297,190.043ZM897.654,189.951C897.654,189.951 901.486,190.323 901.486,190.323C901.497,190.313 901.497,190.297 901.488,190.276C901.489,190.255 901.475,190.208 901.447,190.133C901.303,189.836 901.339,189.597 901.554,189.418C901.633,189.536 901.726,189.681 901.834,189.852C901.951,190.034 902.054,190.204 902.141,190.364C902.239,190.525 902.292,190.631 902.3,190.683C902.337,190.789 902.334,190.872 902.29,190.933C902.255,191.005 902.191,191.039 902.098,191.035L897.924,190.619C897.841,190.615 897.757,190.628 897.672,190.656C897.598,190.684 897.558,190.755 897.554,190.87C897.551,190.943 897.578,191.032 897.637,191.139C897.705,191.256 897.794,191.364 897.905,191.462C897.945,191.495 897.959,191.538 897.946,191.589C897.933,191.651 897.891,191.67 897.819,191.647C897.592,191.596 897.388,191.468 897.209,191.263C897.03,191.058 896.946,190.82 896.957,190.549C896.966,190.341 897.04,190.182 897.18,190.073C897.33,189.975 897.488,189.934 897.654,189.951ZM897.018,192.868C897.018,192.868 901.287,193.242 901.287,193.242C901.32,193.201 901.302,193.127 901.234,193.021C901.1,192.734 901.141,192.49 901.358,192.29C901.426,192.418 901.513,192.568 901.621,192.739C901.738,192.921 901.846,193.092 901.944,193.252C902.041,193.412 902.094,193.519 902.103,193.571C902.13,193.676 902.121,193.759 902.077,193.82C902.042,193.892 901.979,193.921 901.885,193.906L900.359,193.752C900.676,193.9 900.971,194.084 901.244,194.303C901.516,194.533 901.734,194.797 901.899,195.095C902.064,195.394 902.139,195.715 902.125,196.058C902.119,196.214 902.07,196.379 901.98,196.553C901.899,196.737 901.763,196.883 901.571,196.99C901.378,197.108 901.105,197.149 900.752,197.114L897.747,196.807C897.632,196.802 897.533,196.814 897.448,196.842C897.364,196.87 897.319,196.941 897.314,197.055C897.311,197.128 897.344,197.213 897.413,197.31C897.482,197.406 897.563,197.482 897.654,197.538C897.705,197.571 897.719,197.614 897.696,197.665C897.683,197.716 897.641,197.736 897.568,197.722C897.362,197.672 897.174,197.555 897.004,197.371C896.834,197.198 896.754,196.986 896.765,196.736C896.774,196.518 896.848,196.359 896.987,196.261C897.137,196.162 897.296,196.116 897.462,196.123L900.78,196.443C900.987,196.472 901.156,196.421 901.287,196.291C901.428,196.161 901.508,195.987 901.527,195.769C901.552,195.415 901.421,195.061 901.133,194.705C900.855,194.361 900.403,194.072 899.777,193.838C899.675,193.792 899.551,193.751 899.407,193.714C899.272,193.688 899.127,193.672 898.971,193.665L897.6,193.548C897.35,193.538 897.18,193.485 897.09,193.387C897,193.29 896.976,193.117 897.018,192.868ZM897.587,202.569C896.933,202.522 896.353,202.41 895.85,202.234C895.346,202.068 894.955,201.807 894.678,201.452C894.401,201.097 894.274,200.623 894.299,200.03C894.313,199.676 894.378,199.366 894.493,199.099C894.608,198.843 894.747,198.64 894.909,198.49C895.062,198.34 895.196,198.246 895.312,198.209C895.417,198.193 895.515,198.217 895.606,198.284C895.697,198.36 895.765,198.483 895.81,198.651C895.837,198.746 895.849,198.835 895.846,198.919C895.832,199.001 895.793,199.052 895.73,199.07C895.687,199.11 895.629,199.124 895.556,199.11C895.484,199.097 895.422,199.079 895.371,199.056C895.329,199.054 895.255,199.088 895.148,199.157C895.04,199.236 894.947,199.352 894.868,199.505C894.778,199.658 894.728,199.854 894.718,200.093C894.705,200.416 894.777,200.69 894.935,200.915C895.082,201.14 895.288,201.32 895.553,201.456C895.808,201.591 896.096,201.696 896.416,201.772C896.726,201.847 897.026,201.89 897.318,201.901L898.487,201.995C898.281,201.934 898.065,201.848 897.841,201.734C897.626,201.622 897.424,201.483 897.232,201.319C897.041,201.155 896.882,200.961 896.756,200.737C896.64,200.524 896.587,200.282 896.598,200.012C896.611,199.7 896.711,199.417 896.899,199.164C897.087,198.911 897.34,198.707 897.659,198.553C897.988,198.41 898.371,198.347 898.809,198.364C899.183,198.379 899.555,198.456 899.925,198.596C900.305,198.747 900.645,198.948 900.948,199.2C901.261,199.452 901.509,199.748 901.693,200.089C901.877,200.43 901.961,200.804 901.944,201.21C901.926,201.647 901.844,202.003 901.697,202.279C901.55,202.554 901.417,202.747 901.297,202.857L897.587,202.569ZM898.765,199.05C898.327,199.033 897.944,199.111 897.613,199.286C897.293,199.471 897.125,199.757 897.109,200.142C897.099,200.391 897.167,200.623 897.315,200.838C897.462,201.063 897.657,201.258 897.9,201.424C898.143,201.601 898.409,201.741 898.696,201.847C898.984,201.952 899.263,202.015 899.533,202.036L900.795,202.149C900.974,202.104 901.13,201.99 901.263,201.808C901.405,201.636 901.482,201.41 901.494,201.129C901.508,200.796 901.426,200.501 901.249,200.244C901.071,199.997 900.84,199.784 900.556,199.606C900.271,199.439 899.969,199.307 899.649,199.211C899.33,199.115 899.035,199.061 898.765,199.05ZM899.576,209.345C899.602,209.21 899.653,209.118 899.728,209.069C899.813,209.031 899.897,209.013 899.98,209.017L899.945,209.86C899.908,210.515 900.017,211.025 900.273,211.39C900.529,211.765 900.911,211.973 901.42,212.014C901.763,212.048 902.063,211.982 902.32,211.815C902.577,211.658 902.779,211.421 902.928,211.104C903.076,210.797 903.158,210.441 903.175,210.035L903.233,208.646C903.227,208.791 903.176,208.888 903.08,208.937C902.994,208.985 902.905,209.008 902.811,209.004C902.717,209.011 902.66,209.014 902.639,209.013L897.218,208.5C897,208.481 896.846,208.543 896.757,208.685C896.667,208.838 896.608,208.997 896.581,209.163C896.567,209.235 896.519,209.27 896.436,209.267C896.363,209.264 896.329,209.205 896.333,209.091L896.416,207.092C896.42,206.999 896.458,206.948 896.531,206.94C896.605,206.933 896.65,206.971 896.667,207.055C896.702,207.234 896.753,207.392 896.82,207.53C896.887,207.669 897.03,207.747 897.248,207.766L902.622,208.277C902.788,208.294 902.915,208.247 903.003,208.136C903.102,208.025 903.175,207.898 903.222,207.754C903.28,207.61 903.327,207.482 903.363,207.369C903.387,207.297 903.446,207.268 903.539,207.282C903.632,207.306 903.676,207.376 903.671,207.49L903.565,210.066C903.536,210.764 903.414,211.316 903.199,211.725C902.984,212.144 902.716,212.441 902.396,212.616C902.076,212.79 901.74,212.86 901.387,212.826C901.034,212.791 900.711,212.663 900.417,212.443C900.124,212.233 899.896,211.932 899.735,211.54C899.574,211.148 899.511,210.666 899.545,210.094L899.576,209.345ZM896.498,215.342C896.465,215.632 896.491,215.889 896.576,216.111C896.66,216.344 896.772,216.541 896.911,216.703C897.05,216.875 897.175,217 897.286,217.078C897.347,217.111 897.382,217.17 897.389,217.254C897.406,217.338 897.382,217.41 897.317,217.47C897.245,217.446 897.133,217.384 896.981,217.285C896.838,217.195 896.687,217.064 896.528,216.891C896.368,216.718 896.231,216.499 896.117,216.234C896.013,215.969 895.969,215.66 895.983,215.306C896.002,214.848 896.123,214.436 896.347,214.069C896.57,213.713 896.873,213.439 897.257,213.245C897.65,213.063 898.086,212.986 898.564,213.016C899.021,213.055 899.428,213.17 899.785,213.362C900.153,213.553 900.456,213.795 900.694,214.086C900.942,214.377 901.122,214.692 901.233,215.03C901.355,215.379 901.408,215.714 901.395,216.037C901.382,216.349 901.325,216.602 901.223,216.796C901.121,216.99 901,217.142 900.86,217.251C900.72,217.36 900.582,217.433 900.445,217.469C900.307,217.516 900.197,217.538 900.114,217.534C899.833,217.523 899.576,217.424 899.344,217.238C899.112,217.051 898.913,216.809 898.748,216.51C898.594,216.212 898.477,215.879 898.399,215.511C898.33,215.154 898.303,214.788 898.319,214.414C898.324,214.289 898.364,214.202 898.439,214.152C898.514,214.114 898.582,214.106 898.643,214.129C898.632,214.4 898.662,214.683 898.733,214.977C898.804,215.282 898.902,215.568 899.027,215.833C899.161,216.11 899.308,216.335 899.468,216.508C899.638,216.692 899.816,216.787 900.003,216.795C900.284,216.806 900.512,216.726 900.686,216.556C900.859,216.396 900.957,216.181 900.978,215.911C900.993,215.547 900.897,215.215 900.691,214.914C900.484,214.614 900.202,214.369 899.846,214.177C899.488,213.986 899.097,213.871 898.671,213.833C898.307,213.808 897.967,213.847 897.65,213.949C897.333,214.051 897.071,214.218 896.863,214.449C896.665,214.692 896.544,214.989 896.498,215.342ZM895.784,220.135C895.796,219.854 895.891,219.571 896.069,219.287C896.248,219.002 896.502,218.767 896.833,218.582C897.175,218.398 897.585,218.315 898.063,218.334C898.428,218.348 898.795,218.425 899.164,218.565C899.544,218.705 899.885,218.902 900.188,219.153C900.5,219.406 900.744,219.702 900.917,220.042C901.101,220.394 901.179,220.783 901.151,221.209C901.142,221.417 901.093,221.587 901.004,221.719C900.926,221.862 900.848,221.968 900.772,222.038C900.708,222.088 900.639,222.116 900.566,222.124C900.502,222.142 900.442,222.098 900.383,221.991C900.501,221.923 900.584,221.812 900.632,221.657C900.69,221.514 900.722,221.369 900.728,221.223C900.742,220.88 900.661,220.574 900.484,220.307C900.307,220.049 900.081,219.832 899.807,219.654C899.533,219.487 899.241,219.361 898.932,219.275C898.633,219.19 898.364,219.143 898.124,219.134C897.802,219.121 897.503,219.156 897.228,219.239C896.954,219.322 896.73,219.454 896.555,219.634C896.392,219.815 896.304,220.036 896.293,220.296C896.283,220.546 896.341,220.783 896.468,221.007C896.604,221.231 896.778,221.431 896.99,221.606C897.202,221.782 897.43,221.926 897.676,222.04C897.921,222.154 898.148,222.215 898.356,222.224L902.597,222.549C902.608,222.539 902.608,222.518 902.599,222.486C902.6,222.465 902.586,222.418 902.558,222.344C902.414,222.057 902.449,221.823 902.665,221.644C902.744,221.762 902.837,221.907 902.944,222.078C903.062,222.26 903.165,222.43 903.252,222.59C903.349,222.751 903.408,222.857 903.426,222.91C903.454,223.005 903.445,223.088 903.4,223.159C903.366,223.231 903.302,223.259 903.209,223.245L896.615,222.749C896.521,222.745 896.437,222.757 896.363,222.785C896.289,222.814 896.249,222.885 896.245,223C896.242,223.072 896.269,223.167 896.327,223.284C896.384,223.401 896.469,223.504 896.58,223.592C896.63,223.635 896.644,223.678 896.622,223.718C896.609,223.77 896.566,223.789 896.494,223.776C896.277,223.725 896.074,223.597 895.884,223.392C895.705,223.187 895.621,222.949 895.632,222.678C895.641,222.46 895.716,222.301 895.855,222.202C896.005,222.104 896.169,222.058 896.346,222.065L897.219,222.131C896.983,222.028 896.755,221.878 896.533,221.682C896.312,221.486 896.129,221.259 895.983,221.003C895.837,220.747 895.771,220.458 895.784,220.135ZM895.495,226.016C895.507,225.714 895.602,225.426 895.78,225.152C895.969,224.888 896.228,224.674 896.558,224.51C896.887,224.357 897.281,224.289 897.739,224.307C898.134,224.323 898.522,224.411 898.901,224.572C899.279,224.744 899.62,224.96 899.922,225.223C900.223,225.495 900.461,225.807 900.634,226.158C900.807,226.509 900.885,226.882 900.869,227.278C900.852,227.683 900.771,228.014 900.625,228.269C900.478,228.534 900.346,228.721 900.226,228.831L896.375,228.553C896.282,228.539 896.198,228.546 896.124,228.574C896.05,228.603 896.011,228.674 896.006,228.789C896.003,228.861 896.03,228.951 896.089,229.058C896.146,229.175 896.231,229.282 896.341,229.381C896.392,229.414 896.406,229.456 896.383,229.507C896.37,229.569 896.327,229.588 896.255,229.565C896.038,229.514 895.835,229.386 895.646,229.181C895.466,228.976 895.382,228.738 895.394,228.467C895.402,228.259 895.476,228.1 895.616,227.991C895.767,227.893 895.93,227.853 896.106,227.87L897.229,227.946C896.961,227.862 896.691,227.726 896.417,227.538C896.143,227.361 895.918,227.138 895.741,226.87C895.564,226.613 895.482,226.328 895.495,226.016ZM897.69,225.103C897.42,225.092 897.158,225.123 896.905,225.197C896.662,225.27 896.454,225.387 896.28,225.547C896.117,225.718 896.03,225.928 896.02,226.178C896.011,226.396 896.08,226.608 896.228,226.812C896.386,227.026 896.587,227.217 896.83,227.383C897.083,227.56 897.354,227.701 897.641,227.806C897.929,227.922 898.212,227.995 898.492,228.027L899.443,228.112C899.557,228.117 899.651,228.115 899.725,228.108C899.798,228.1 899.866,228.082 899.93,228.053C900.058,227.975 900.173,227.855 900.273,227.692C900.374,227.529 900.429,227.343 900.437,227.135C900.45,226.833 900.367,226.559 900.19,226.312C900.022,226.066 899.797,225.854 899.512,225.676C899.238,225.498 898.936,225.361 898.606,225.264C898.287,225.168 897.982,225.114 897.69,225.103ZM896.278,234.328C895.623,234.281 895.044,234.169 894.54,233.993C894.036,233.827 893.646,233.566 893.368,233.211C893.091,232.856 892.965,232.382 892.989,231.789C893.004,231.435 893.069,231.125 893.184,230.858C893.299,230.602 893.437,230.399 893.6,230.249C893.752,230.099 893.886,230.005 894.002,229.968C894.107,229.951 894.205,229.976 894.296,230.042C894.387,230.119 894.455,230.241 894.5,230.41C894.528,230.505 894.54,230.594 894.536,230.677C894.522,230.76 894.484,230.811 894.42,230.829C894.377,230.869 894.319,230.882 894.247,230.869C894.174,230.856 894.113,230.838 894.061,230.815C894.02,230.813 893.945,230.847 893.838,230.915C893.731,230.995 893.637,231.111 893.558,231.264C893.468,231.417 893.419,231.613 893.409,231.852C893.395,232.175 893.467,232.449 893.625,232.674C893.772,232.899 893.978,233.079 894.244,233.215C894.499,233.35 894.787,233.455 895.107,233.53C895.416,233.605 895.717,233.648 896.008,233.66L897.177,233.753C896.971,233.693 896.756,233.606 896.531,233.493C896.317,233.38 896.114,233.242 895.923,233.078C895.732,232.914 895.573,232.72 895.446,232.496C895.33,232.283 895.277,232.041 895.289,231.771C895.302,231.458 895.402,231.176 895.589,230.922C895.777,230.669 896.031,230.466 896.35,230.312C896.679,230.168 897.062,230.105 897.499,230.123C897.874,230.138 898.246,230.215 898.615,230.355C898.995,230.505 899.336,230.707 899.638,230.958C899.951,231.211 900.199,231.507 900.384,231.848C900.568,232.189 900.651,232.562 900.634,232.968C900.616,233.405 900.534,233.762 900.387,234.037C900.24,234.313 900.107,234.506 899.988,234.616L896.278,234.328ZM897.455,230.809C897.018,230.792 896.634,230.87 896.304,231.045C895.983,231.23 895.815,231.515 895.799,231.9C895.789,232.15 895.858,232.382 896.005,232.597C896.152,232.821 896.348,233.017 896.591,233.183C896.834,233.359 897.099,233.5 897.387,233.605C897.674,233.711 897.953,233.774 898.223,233.795L899.485,233.908C899.665,233.863 899.82,233.749 899.953,233.567C900.096,233.395 900.173,233.169 900.184,232.888C900.198,232.555 900.116,232.26 899.939,232.002C899.762,231.756 899.531,231.543 899.246,231.365C898.961,231.197 898.659,231.065 898.34,230.969C898.021,230.873 897.726,230.82 897.455,230.809ZM895.064,237.596C895.081,237.18 895.212,236.8 895.455,236.455C895.698,236.12 896.027,235.868 896.44,235.696C896.854,235.525 897.331,235.471 897.87,235.534C898.399,235.608 898.856,235.772 899.242,236.027C899.638,236.282 899.943,236.602 900.156,236.986C900.369,237.38 900.466,237.806 900.447,238.264C900.43,238.691 900.299,239.071 900.056,239.406C899.813,239.75 899.484,240.014 899.07,240.195C898.666,240.377 898.2,240.432 897.671,240.358C897.132,240.295 896.664,240.131 896.269,239.865C895.872,239.609 895.568,239.284 895.355,238.89C895.142,238.496 895.045,238.065 895.064,237.596ZM897.84,236.268C897.424,236.241 897.037,236.283 896.677,236.394C896.318,236.505 896.03,236.676 895.812,236.907C895.604,237.149 895.493,237.431 895.48,237.754C895.467,238.076 895.553,238.372 895.74,238.64C895.938,238.908 896.21,239.128 896.558,239.298C896.905,239.478 897.286,239.582 897.702,239.609C898.118,239.646 898.495,239.604 898.833,239.482C899.182,239.371 899.465,239.2 899.683,238.969C899.901,238.748 900.017,238.471 900.03,238.138C900.044,237.815 899.952,237.52 899.754,237.251C899.557,236.983 899.289,236.764 898.952,236.594C898.626,236.425 898.255,236.316 897.84,236.268ZM895.822,245.385C895.167,245.338 894.588,245.226 894.084,245.05C893.58,244.884 893.19,244.623 892.912,244.268C892.635,243.913 892.509,243.439 892.533,242.846C892.548,242.492 892.613,242.182 892.728,241.915C892.843,241.659 892.981,241.456 893.144,241.306C893.296,241.156 893.43,241.062 893.546,241.025C893.651,241.009 893.749,241.033 893.841,241.1C893.931,241.176 893.999,241.299 894.044,241.467C894.072,241.562 894.084,241.651 894.08,241.735C894.066,241.817 894.028,241.868 893.965,241.886C893.921,241.926 893.863,241.94 893.791,241.926C893.718,241.913 893.657,241.895 893.605,241.872C893.564,241.87 893.489,241.904 893.382,241.973C893.275,242.052 893.181,242.168 893.102,242.321C893.012,242.474 892.963,242.67 892.953,242.909C892.939,243.232 893.012,243.506 893.169,243.731C893.316,243.956 893.522,244.136 893.788,244.272C894.043,244.407 894.331,244.512 894.651,244.588C894.96,244.663 895.261,244.706 895.552,244.717L896.721,244.811C896.515,244.75 896.3,244.664 896.075,244.55C895.861,244.438 895.658,244.299 895.467,244.135C895.276,243.971 895.117,243.777 894.99,243.553C894.874,243.34 894.822,243.098 894.833,242.828C894.846,242.516 894.946,242.233 895.134,241.98C895.321,241.727 895.575,241.523 895.894,241.369C896.223,241.226 896.606,241.163 897.043,241.18C897.418,241.195 897.79,241.272 898.159,241.412C898.539,241.563 898.88,241.764 899.182,242.016C899.495,242.268 899.744,242.564 899.928,242.905C900.112,243.246 900.195,243.62 900.179,244.026C900.16,244.463 900.078,244.819 899.931,245.095C899.784,245.37 899.651,245.563 899.532,245.673L895.822,245.385ZM896.999,241.866C896.562,241.849 896.178,241.928 895.848,242.102C895.527,242.287 895.359,242.573 895.343,242.958C895.333,243.207 895.402,243.44 895.549,243.654C895.696,243.879 895.892,244.074 896.135,244.24C896.378,244.417 896.643,244.557 896.931,244.663C897.218,244.768 897.497,244.831 897.767,244.852L899.029,244.965C899.209,244.92 899.364,244.806 899.497,244.624C899.64,244.452 899.717,244.226 899.728,243.945C899.742,243.612 899.66,243.317 899.483,243.06C899.306,242.813 899.075,242.6 898.79,242.422C898.505,242.255 898.203,242.123 897.884,242.027C897.565,241.931 897.27,241.877 896.999,241.866ZM897.938,250.582C898.402,250.704 898.787,250.73 899.092,250.659C899.124,250.629 899.142,250.577 899.145,250.505C899.158,250.443 899.181,250.386 899.215,250.335C899.248,250.285 899.301,250.261 899.374,250.263C899.446,250.277 899.508,250.31 899.557,250.365C899.648,250.441 899.717,250.548 899.763,250.686C899.82,250.823 899.841,250.949 899.826,251.063C899.821,251.188 899.765,251.264 899.66,251.291C899.513,251.327 899.324,251.346 899.095,251.347C898.865,251.348 898.621,251.339 898.361,251.318C898.111,251.308 897.872,251.283 897.645,251.242C897.096,251.148 896.559,251.022 896.034,250.866C895.508,250.72 894.985,250.501 894.466,250.209C893.885,249.884 893.405,249.51 893.026,249.088C892.647,248.677 892.452,248.216 892.442,247.705C892.423,247.402 892.487,247.118 892.634,246.852C892.77,246.587 892.954,246.417 893.187,246.343C893.281,246.315 893.375,246.324 893.467,246.369C893.548,246.425 893.617,246.511 893.675,246.628C893.733,246.745 893.759,246.861 893.755,246.975C893.739,247.1 893.689,247.171 893.605,247.188C893.563,247.207 893.521,247.211 893.48,247.199C893.428,247.186 893.376,247.174 893.325,247.161C893.21,247.167 893.103,247.225 893.005,247.336C892.906,247.447 892.863,247.607 892.876,247.816C892.877,248.035 892.952,248.246 893.1,248.45C893.237,248.654 893.412,248.843 893.624,249.018C893.835,249.204 894.052,249.364 894.276,249.498C894.632,249.72 895.004,249.912 895.394,250.074C895.784,250.235 896.113,250.347 896.381,250.41L896.414,250.365C896.22,250.274 896.006,250.14 895.774,249.964C895.541,249.798 895.319,249.617 895.108,249.421C894.897,249.225 894.733,249.042 894.615,248.87C894.565,248.816 894.552,248.748 894.576,248.665C894.59,248.593 894.623,248.547 894.676,248.529L899.029,247.263C899.029,247.242 899.025,247.216 899.016,247.184C899.007,247.163 898.977,247.131 898.926,247.087C898.866,247.032 898.817,246.952 898.78,246.847C898.743,246.741 898.763,246.622 898.842,246.489C898.942,246.577 899.063,246.681 899.204,246.801C899.355,246.922 899.491,247.036 899.612,247.145C899.732,247.265 899.817,247.347 899.868,247.39C899.938,247.466 899.955,247.54 899.921,247.611C899.897,247.694 899.848,247.749 899.774,247.777L895.25,249.005C895.47,249.243 895.732,249.467 896.036,249.677C896.34,249.887 896.656,250.072 896.983,250.231C897.309,250.4 897.628,250.517 897.938,250.582ZM894.434,255.525C894.437,255.463 894.465,255.417 894.518,255.388C894.55,255.368 894.592,255.365 894.644,255.377C894.705,255.401 894.735,255.449 894.732,255.521C894.764,255.742 894.824,255.937 894.911,256.107C895.007,256.288 895.16,256.388 895.367,256.407L900.851,256.922C900.945,256.926 901.03,256.887 901.106,256.807C901.182,256.727 901.243,256.63 901.29,256.517C901.347,256.405 901.382,256.307 901.396,256.224C901.421,256.121 901.48,256.087 901.572,256.122C901.613,256.134 901.638,256.161 901.647,256.203C901.655,256.256 901.659,256.292 901.658,256.313L901.455,261.246C901.451,261.34 901.427,261.402 901.384,261.431C901.341,261.471 901.262,261.484 901.148,261.469L900.042,261.362C900.032,261.362 900.006,261.355 899.965,261.343C899.923,261.342 899.893,261.32 899.874,261.277C899.855,261.235 899.856,261.193 899.879,261.152C899.901,261.122 899.923,261.102 899.944,261.092C900.259,261.042 900.491,260.973 900.641,260.886C900.8,260.808 900.904,260.682 900.953,260.507C901.012,260.343 901.049,260.094 901.062,259.761L901.161,257.357C901.135,257.481 901.085,257.562 901.011,257.601C900.936,257.639 900.857,257.657 900.774,257.654L898.188,257.41L898.127,258.878C898.118,259.107 898.142,259.29 898.199,259.428C898.265,259.577 898.38,259.701 898.543,259.801C898.624,259.846 898.648,259.905 898.614,259.976C898.602,260.017 898.575,260.042 898.533,260.051C898.501,260.06 898.469,260.064 898.438,260.063L897.285,259.955C897.254,259.953 897.223,259.947 897.192,259.935C897.162,259.924 897.137,259.897 897.118,259.854C897.089,259.78 897.118,259.719 897.203,259.67C897.522,259.537 897.69,259.251 897.708,258.814L897.768,257.362L895.337,257.141C895.109,257.121 894.944,257.193 894.844,257.355C894.753,257.529 894.683,257.719 894.632,257.926C894.63,257.978 894.603,258.013 894.55,258.032C894.507,258.051 894.465,258.055 894.424,258.042C894.363,258.019 894.334,257.955 894.338,257.851L894.434,255.525ZM894.004,263.303C894.021,262.887 894.152,262.506 894.395,262.162C894.638,261.827 894.967,261.575 895.38,261.403C895.794,261.232 896.271,261.178 896.81,261.241C897.339,261.314 897.796,261.479 898.182,261.734C898.578,261.989 898.883,262.309 899.096,262.693C899.309,263.087 899.406,263.513 899.387,263.971C899.37,264.398 899.239,264.778 898.996,265.112C898.753,265.457 898.424,265.72 898.01,265.902C897.606,266.084 897.14,266.138 896.611,266.065C896.072,266.002 895.604,265.838 895.208,265.572C894.812,265.316 894.508,264.991 894.295,264.597C894.082,264.203 893.985,263.772 894.004,263.303ZM896.78,261.975C896.364,261.948 895.977,261.99 895.617,262.101C895.258,262.212 894.97,262.383 894.752,262.614C894.544,262.856 894.433,263.138 894.42,263.461C894.407,263.783 894.493,264.079 894.68,264.347C894.878,264.615 895.15,264.834 895.498,265.005C895.845,265.185 896.226,265.289 896.642,265.316C897.058,265.353 897.435,265.311 897.773,265.189C898.122,265.078 898.405,264.907 898.623,264.675C898.841,264.455 898.957,264.178 898.97,263.845C898.984,263.522 898.892,263.227 898.694,262.958C898.497,262.69 898.229,262.471 897.892,262.301C897.566,262.131 897.195,262.023 896.78,261.975ZM898.473,266.797C898.541,266.925 898.629,267.074 898.736,267.245C898.854,267.427 898.956,267.598 899.044,267.758C899.141,267.918 899.199,268.025 899.218,268.078C899.245,268.183 899.236,268.271 899.191,268.343C899.157,268.425 899.093,268.459 899,268.444L896.413,268.216C896.95,268.332 897.412,268.512 897.798,268.756C898.184,269.001 898.486,269.258 898.705,269.527C898.933,269.807 899.074,270.048 899.129,270.248C899.146,270.342 899.142,270.415 899.12,270.466C899.097,270.518 899.047,270.573 898.972,270.633C898.842,270.742 898.694,270.793 898.528,270.787C898.361,270.791 898.27,270.719 898.255,270.573C898.247,270.52 898.254,270.468 898.277,270.417C898.3,270.376 898.317,270.341 898.328,270.31C898.357,270.134 898.287,269.928 898.119,269.692C897.952,269.456 897.696,269.221 897.351,268.989C897.016,268.756 896.597,268.552 896.094,268.376C895.601,268.2 895.027,268.088 894.372,268.041C894.185,268.024 894.052,267.961 893.973,267.854C893.904,267.757 893.89,267.584 893.932,267.336L898.388,267.732C898.399,267.712 898.4,267.686 898.391,267.654C898.392,267.633 898.378,267.591 898.349,267.527C898.205,267.24 898.246,266.997 898.473,266.797ZM896.795,276.778C896.821,276.643 896.872,276.552 896.947,276.502C897.032,276.464 897.116,276.447 897.2,276.45L897.165,277.293C897.127,277.948 897.237,278.458 897.493,278.823C897.748,279.198 898.131,279.406 898.64,279.447C898.982,279.482 899.282,279.415 899.539,279.248C899.796,279.092 899.999,278.855 900.147,278.538C900.295,278.231 900.378,277.874 900.395,277.468L900.452,276.079C900.446,276.225 900.395,276.322 900.299,276.37C900.214,276.419 900.124,276.441 900.031,276.437C899.936,276.444 899.879,276.447 899.858,276.446L894.437,275.934C894.219,275.914 894.065,275.976 893.976,276.118C893.886,276.271 893.828,276.431 893.8,276.596C893.787,276.669 893.738,276.703 893.655,276.7C893.582,276.697 893.548,276.638 893.553,276.524L893.635,274.526C893.639,274.432 893.678,274.381 893.751,274.374C893.824,274.366 893.87,274.405 893.887,274.489C893.921,274.667 893.972,274.826 894.039,274.964C894.107,275.102 894.249,275.181 894.467,275.2L899.842,275.711C900.008,275.728 900.135,275.681 900.223,275.569C900.321,275.459 900.394,275.331 900.442,275.187C900.5,275.044 900.547,274.915 900.583,274.802C900.607,274.73 900.665,274.701 900.758,274.715C900.851,274.74 900.895,274.809 900.891,274.924L900.784,277.5C900.756,278.197 900.634,278.75 900.419,279.158C900.203,279.577 899.936,279.874 899.616,280.049C899.296,280.224 898.959,280.294 898.606,280.259C898.253,280.224 897.93,280.096 897.637,279.876C897.343,279.667 897.116,279.366 896.955,278.973C896.794,278.581 896.73,278.099 896.764,277.527L896.795,276.778ZM893.717,282.775C893.684,283.066 893.71,283.322 893.795,283.545C893.879,283.777 893.991,283.975 894.13,284.136C894.269,284.309 894.394,284.434 894.506,284.511C894.567,284.545 894.601,284.603 894.608,284.687C894.625,284.771 894.602,284.843 894.536,284.903C894.464,284.88 894.352,284.818 894.2,284.718C894.058,284.629 893.907,284.498 893.747,284.325C893.588,284.151 893.451,283.932 893.336,283.667C893.233,283.402 893.188,283.093 893.203,282.739C893.221,282.281 893.343,281.869 893.566,281.503C893.79,281.147 894.093,280.872 894.476,280.679C894.869,280.496 895.305,280.42 895.784,280.449C896.241,280.488 896.648,280.604 897.005,280.795C897.372,280.987 897.675,281.228 897.913,281.519C898.162,281.81 898.342,282.125 898.453,282.463C898.574,282.812 898.628,283.148 898.615,283.47C898.602,283.783 898.544,284.036 898.443,284.23C898.341,284.424 898.22,284.575 898.08,284.684C897.94,284.794 897.801,284.866 897.664,284.903C897.527,284.949 897.416,284.971 897.333,284.968C897.052,284.956 896.795,284.858 896.563,284.671C896.331,284.485 896.133,284.242 895.968,283.944C895.813,283.646 895.697,283.313 895.618,282.945C895.549,282.587 895.523,282.222 895.538,281.847C895.543,281.722 895.583,281.635 895.658,281.586C895.733,281.547 895.801,281.539 895.863,281.563C895.852,281.833 895.882,282.116 895.953,282.411C896.024,282.716 896.121,283.001 896.246,283.267C896.381,283.543 896.528,283.768 896.687,283.941C896.857,284.125 897.035,284.221 897.223,284.228C897.504,284.239 897.731,284.16 897.905,283.989C898.079,283.83 898.176,283.615 898.198,283.344C898.213,282.98 898.117,282.648 897.91,282.348C897.704,282.048 897.422,281.802 897.065,281.61C896.708,281.419 896.316,281.304 895.891,281.267C895.527,281.242 895.186,281.28 894.869,281.382C894.552,281.484 894.29,281.651 894.082,281.883C893.885,282.125 893.763,282.423 893.717,282.775ZM897.695,285.675C897.763,285.803 897.85,285.953 897.958,286.124C898.075,286.306 898.178,286.477 898.265,286.636C898.363,286.797 898.421,286.903 898.44,286.956C898.467,287.061 898.458,287.15 898.413,287.221C898.378,287.303 898.314,287.337 898.221,287.323L895.635,287.095C896.172,287.21 896.634,287.39 897.02,287.635C897.406,287.879 897.708,288.136 897.926,288.406C898.155,288.686 898.296,288.926 898.35,289.126C898.367,289.221 898.364,289.293 898.341,289.345C898.318,289.396 898.269,289.451 898.194,289.511C898.064,289.62 897.916,289.672 897.749,289.665C897.582,289.669 897.491,289.598 897.477,289.451C897.468,289.399 897.476,289.347 897.499,289.296C897.521,289.255 897.538,289.219 897.55,289.188C897.578,289.012 897.508,288.806 897.341,288.57C897.173,288.334 896.917,288.1 896.572,287.867C896.238,287.635 895.819,287.43 895.315,287.254C894.822,287.078 894.248,286.967 893.593,286.92C893.406,286.902 893.273,286.839 893.194,286.732C893.125,286.635 893.112,286.463 893.153,286.214L897.609,286.61C897.621,286.59 897.622,286.564 897.613,286.532C897.613,286.511 897.6,286.469 897.571,286.405C897.426,286.118 897.468,285.875 897.695,285.675ZM891.704,291.026L891.189,290.99C890.981,290.971 890.827,290.913 890.727,290.815C890.627,290.728 890.598,290.544 890.64,290.265L896.127,290.702C895.783,290.459 895.405,290.266 894.994,290.125C894.995,290.083 895.023,290.038 895.077,289.988C895.132,289.938 895.231,289.936 895.375,289.984C895.643,290.057 895.899,290.161 896.144,290.296C896.399,290.431 896.632,290.581 896.845,290.746L897.889,290.834C898.066,290.841 898.188,290.919 898.254,291.068C898.332,291.217 898.331,291.358 898.253,291.49L897.52,291.445C897.768,291.747 897.943,292.056 898.044,292.373C898.156,292.69 898.191,292.994 898.147,293.284C898.079,293.688 897.903,294.02 897.622,294.28C897.35,294.54 897.009,294.719 896.599,294.817C896.198,294.916 895.765,294.925 895.299,294.844C894.895,294.786 894.515,294.656 894.158,294.455C893.812,294.253 893.52,294.012 893.281,293.732C893.053,293.452 892.904,293.148 892.834,292.823C892.79,292.623 892.784,292.393 892.815,292.134C892.847,291.874 892.923,291.664 893.045,291.502C893.11,291.421 893.175,291.382 893.237,291.384C893.299,291.397 893.345,291.415 893.376,291.437C893.243,291.619 893.171,291.84 893.161,292.101C893.15,292.361 893.217,292.619 893.363,292.875C893.519,293.152 893.748,293.396 894.053,293.606C894.367,293.827 894.741,293.977 895.176,294.057C895.579,294.136 895.949,294.145 896.285,294.086C896.631,294.026 896.917,293.913 897.143,293.745C897.369,293.576 897.509,293.352 897.562,293.073C897.625,292.815 897.6,292.538 897.487,292.241C897.373,291.955 897.192,291.677 896.942,291.407L891.704,291.026ZM893.09,297.986C893.057,298.276 893.083,298.533 893.168,298.755C893.252,298.988 893.364,299.185 893.503,299.347C893.642,299.519 893.767,299.644 893.879,299.722C893.94,299.755 893.974,299.814 893.981,299.898C893.998,299.982 893.974,300.054 893.909,300.114C893.837,300.09 893.725,300.028 893.573,299.928C893.431,299.839 893.28,299.708 893.12,299.535C892.96,299.362 892.823,299.143 892.709,298.878C892.605,298.613 892.561,298.304 892.575,297.95C892.594,297.492 892.716,297.08 892.939,296.713C893.162,296.357 893.466,296.083 893.849,295.889C894.242,295.707 894.678,295.63 895.156,295.66C895.613,295.699 896.021,295.814 896.378,296.005C896.745,296.197 897.048,296.439 897.286,296.73C897.535,297.021 897.714,297.336 897.826,297.674C897.947,298.023 898.001,298.358 897.987,298.681C897.975,298.993 897.917,299.246 897.815,299.44C897.714,299.634 897.593,299.786 897.453,299.895C897.313,300.004 897.174,300.077 897.037,300.113C896.9,300.16 896.789,300.181 896.706,300.178C896.425,300.167 896.168,300.068 895.936,299.882C895.704,299.695 895.506,299.453 895.341,299.154C895.186,298.856 895.07,298.523 894.991,298.155C894.922,297.798 894.896,297.432 894.911,297.057C894.916,296.933 894.956,296.846 895.031,296.796C895.106,296.758 895.174,296.75 895.236,296.773C895.224,297.044 895.254,297.326 895.326,297.621C895.397,297.926 895.494,298.212 895.619,298.477C895.753,298.754 895.9,298.978 896.06,299.152C896.23,299.336 896.408,299.431 896.596,299.439C896.877,299.45 897.104,299.37 897.278,299.2C897.451,299.04 897.549,298.825 897.57,298.555C897.585,298.191 897.49,297.858 897.283,297.558C897.077,297.258 896.795,297.012 896.438,296.821C896.081,296.63 895.689,296.515 895.263,296.477C894.9,296.452 894.559,296.491 894.242,296.593C893.925,296.695 893.663,296.862 893.455,297.093C893.258,297.336 893.136,297.633 893.09,297.986ZM893.63,301.578C893.63,301.578 897.214,301.877 897.214,301.877C897.211,301.71 897.206,301.585 897.199,301.501C897.191,301.428 897.179,301.354 897.161,301.281C897.134,301.165 897.095,301.096 897.044,301.073C897.004,301.04 896.99,300.998 897.003,300.946C897.015,300.894 897.058,300.875 897.13,300.889L897.55,300.952C897.633,300.966 897.672,301.02 897.668,301.113L897.635,301.909L898.664,301.997C898.83,302.004 898.964,302.056 899.064,302.154C899.164,302.252 899.204,302.43 899.183,302.69L897.608,302.565L897.556,303.845C897.551,303.949 897.508,303.995 897.425,303.981L897.005,303.917C896.933,303.904 896.892,303.871 896.884,303.819C896.875,303.777 896.893,303.741 896.936,303.711C896.988,303.692 897.033,303.632 897.068,303.529C897.114,303.437 897.139,303.328 897.144,303.203C897.16,303.079 897.174,302.855 897.187,302.533L893.775,302.241C893.504,302.219 893.31,302.259 893.191,302.358C893.072,302.458 892.999,302.59 892.972,302.756C892.954,302.932 892.978,303.1 893.045,303.259C893.111,303.429 893.203,303.578 893.323,303.708C893.363,303.751 893.361,303.804 893.317,303.864C893.283,303.926 893.23,303.939 893.159,303.905C892.934,303.802 892.743,303.623 892.587,303.366C892.43,303.11 892.358,302.836 892.37,302.544C892.376,302.409 892.419,302.26 892.498,302.096C892.578,301.932 892.709,301.797 892.89,301.689C893.072,301.592 893.318,301.555 893.63,301.578ZM892.185,306.279C892.192,306.102 892.242,305.922 892.333,305.738C892.423,305.554 892.565,305.403 892.758,305.286C892.96,305.179 893.233,305.143 893.575,305.177L896.753,305.492C896.763,305.482 896.764,305.461 896.755,305.429C896.756,305.408 896.737,305.361 896.699,305.286C896.565,304.989 896.606,304.751 896.822,304.572C896.9,304.7 896.993,304.85 897.1,305.021C897.208,305.202 897.31,305.368 897.408,305.518C897.506,305.678 897.559,305.784 897.567,305.837C897.605,305.942 897.601,306.031 897.556,306.102C897.512,306.173 897.443,306.207 897.349,306.203L893.563,305.849C893.356,305.831 893.176,305.881 893.025,306C892.885,306.13 892.804,306.32 892.783,306.569C892.76,306.881 892.887,307.214 893.164,307.569C893.452,307.925 893.909,308.214 894.536,308.437C894.659,308.484 894.819,308.521 895.016,308.55C895.212,308.589 895.383,308.617 895.528,308.633L896.884,308.765C897.112,308.784 897.276,308.843 897.377,308.941C897.476,309.049 897.506,309.222 897.465,309.46L893.053,309.113C892.96,309.109 892.876,309.122 892.802,309.15C892.728,309.178 892.688,309.25 892.683,309.364C892.68,309.437 892.708,309.532 892.765,309.649C892.823,309.766 892.908,309.868 893.019,309.956C893.069,310 893.083,310.042 893.06,310.083C893.048,310.134 893.005,310.154 892.933,310.14C892.716,310.09 892.513,309.962 892.323,309.756C892.144,309.551 892.06,309.313 892.071,309.043C892.08,308.834 892.154,308.676 892.294,308.567C892.444,308.468 892.608,308.423 892.784,308.43L893.953,308.523C893.625,308.396 893.325,308.212 893.054,307.971C892.782,307.742 892.563,307.483 892.398,307.195C892.243,306.907 892.172,306.602 892.185,306.279ZM891.928,312.522C891.94,312.22 892.035,311.932 892.213,311.658C892.402,311.394 892.661,311.18 892.991,311.016C893.32,310.862 893.714,310.795 894.172,310.813C894.567,310.829 894.955,310.917 895.334,311.078C895.712,311.25 896.053,311.466 896.355,311.729C896.656,312.001 896.894,312.313 897.067,312.664C897.24,313.015 897.318,313.388 897.302,313.783C897.285,314.189 897.204,314.52 897.058,314.775C896.911,315.04 896.779,315.227 896.659,315.337L892.808,315.059C892.715,315.045 892.631,315.052 892.557,315.08C892.483,315.109 892.444,315.18 892.439,315.294C892.436,315.367 892.463,315.457 892.522,315.564C892.579,315.681 892.664,315.788 892.774,315.886C892.825,315.92 892.839,315.962 892.816,316.013C892.803,316.075 892.76,316.094 892.688,316.071C892.471,316.02 892.268,315.892 892.079,315.687C891.899,315.482 891.815,315.244 891.827,314.973C891.835,314.765 891.909,314.606 892.049,314.497C892.2,314.399 892.363,314.358 892.539,314.376L893.662,314.452C893.394,314.368 893.124,314.232 892.85,314.044C892.576,313.867 892.351,313.644 892.174,313.376C891.997,313.119 891.915,312.834 891.928,312.522ZM894.123,311.609C893.853,311.598 893.591,311.629 893.338,311.702C893.095,311.776 892.887,311.893 892.713,312.053C892.55,312.224 892.463,312.434 892.453,312.684C892.444,312.902 892.513,313.113 892.661,313.317C892.819,313.532 893.02,313.723 893.263,313.889C893.516,314.066 893.787,314.207 894.075,314.312C894.362,314.428 894.645,314.501 894.925,314.533L895.876,314.618C895.99,314.623 896.084,314.621 896.158,314.614C896.231,314.606 896.299,314.588 896.363,314.559C896.491,314.481 896.606,314.36 896.706,314.198C896.807,314.035 896.862,313.849 896.87,313.641C896.883,313.339 896.8,313.065 896.623,312.818C896.455,312.572 896.23,312.359 895.945,312.181C895.671,312.004 895.369,311.867 895.039,311.77C894.72,311.674 894.415,311.62 894.123,311.609ZM892.381,317.067C892.381,317.067 898.644,317.645 898.644,317.645C898.644,317.645 898.645,317.629 898.646,317.598C898.647,317.577 898.628,317.529 898.589,317.455C898.456,317.158 898.497,316.92 898.713,316.741C898.781,316.858 898.869,317.002 898.976,317.173C899.094,317.355 899.196,317.526 899.284,317.686C899.381,317.846 899.439,317.953 899.458,318.006C899.485,318.111 899.476,318.199 899.432,318.27C899.397,318.342 899.334,318.371 899.24,318.357L892.65,317.75C892.568,317.737 892.484,317.744 892.399,317.772C892.325,317.8 892.286,317.871 892.281,317.986C892.278,318.059 892.305,318.154 892.363,318.271C892.421,318.388 892.51,318.495 892.631,318.594C892.672,318.627 892.68,318.669 892.657,318.72C892.634,318.771 892.587,318.79 892.514,318.777C892.277,318.716 892.074,318.582 891.905,318.378C891.747,318.173 891.673,317.941 891.684,317.681C891.693,317.462 891.767,317.298 891.907,317.189C892.057,317.091 892.215,317.05 892.381,317.067ZM891.563,324.4C891.567,324.307 891.616,324.256 891.71,324.25C891.804,324.253 891.854,324.302 891.86,324.396C891.873,324.585 891.903,324.747 891.95,324.885C891.996,325.032 892.079,325.15 892.201,325.239C892.333,325.327 892.523,325.382 892.773,325.402L898.272,325.918L898.325,324.622C898.333,324.424 898.33,324.258 898.315,324.121C898.309,323.996 898.272,323.885 898.203,323.789C898.144,323.703 898.038,323.615 897.886,323.526C897.743,323.447 897.538,323.356 897.271,323.251C897.169,323.205 897.135,323.136 897.17,323.044C897.194,322.982 897.247,322.953 897.33,322.956L898.544,323.098C898.637,323.123 898.704,323.141 898.745,323.153C898.786,323.176 898.811,323.203 898.82,323.235C898.829,323.266 898.833,323.313 898.83,323.376C898.838,323.439 898.838,323.569 898.83,323.767C898.832,323.965 898.824,324.277 898.807,324.704L898.636,328.841C898.627,329.049 898.616,329.189 898.603,329.262C898.589,329.345 898.571,329.396 898.55,329.416C898.527,329.467 898.453,329.49 898.328,329.486L897.079,329.436C897.048,329.435 897.017,329.428 896.986,329.416C896.955,329.405 896.935,329.378 896.927,329.336C896.907,329.304 896.903,329.267 896.916,329.226C896.938,329.196 896.965,329.171 896.997,329.151C897.271,329.079 897.487,329.009 897.647,328.942C897.806,328.876 897.918,328.797 897.985,328.706C898.062,328.615 898.114,328.492 898.141,328.337C898.168,328.181 898.187,327.979 898.197,327.729L898.241,326.652L892.742,326.152C892.493,326.121 892.299,326.139 892.161,326.207C892.033,326.274 891.94,326.375 891.883,326.508C891.825,326.652 891.782,326.812 891.753,326.988C891.739,327.081 891.686,327.116 891.593,327.091C891.499,327.077 891.455,327.028 891.458,326.945L891.563,324.4ZM891.723,331.147C891.69,331.437 891.716,331.694 891.8,331.916C891.885,332.149 891.996,332.346 892.136,332.508C892.274,332.68 892.4,332.805 892.511,332.883C892.572,332.916 892.606,332.975 892.613,333.059C892.631,333.143 892.607,333.215 892.542,333.275C892.47,333.251 892.358,333.189 892.205,333.09C892.063,333 891.912,332.869 891.753,332.696C891.593,332.523 891.456,332.304 891.342,332.039C891.238,331.774 891.193,331.465 891.208,331.111C891.227,330.653 891.348,330.241 891.572,329.874C891.795,329.518 892.098,329.244 892.482,329.05C892.875,328.868 893.311,328.791 893.789,328.821C894.246,328.86 894.653,328.975 895.01,329.167C895.378,329.358 895.68,329.6 895.919,329.891C896.167,330.182 896.347,330.497 896.458,330.835C896.579,331.184 896.633,331.519 896.62,331.842C896.607,332.154 896.55,332.407 896.448,332.601C896.346,332.795 896.225,332.947 896.085,333.056C895.945,333.165 895.807,333.238 895.67,333.274C895.532,333.321 895.422,333.343 895.339,333.339C895.057,333.328 894.801,333.229 894.569,333.043C894.337,332.856 894.138,332.614 893.973,332.315C893.819,332.017 893.702,331.684 893.624,331.316C893.555,330.959 893.528,330.593 893.544,330.219C893.549,330.094 893.589,330.007 893.664,329.957C893.739,329.919 893.807,329.911 893.868,329.934C893.857,330.205 893.887,330.488 893.958,330.782C894.029,331.087 894.127,331.373 894.251,331.638C894.386,331.915 894.533,332.14 894.693,332.313C894.862,332.497 895.041,332.592 895.228,332.6C895.509,332.611 895.737,332.531 895.911,332.361C896.084,332.201 896.181,331.986 896.203,331.716C896.218,331.352 896.122,331.02 895.916,330.719C895.709,330.419 895.427,330.174 895.07,329.982C894.713,329.791 894.322,329.676 893.896,329.638C893.532,329.613 893.192,329.652 892.875,329.754C892.558,329.856 892.295,330.023 892.088,330.254C891.89,330.497 891.768,330.794 891.723,331.147ZM890.966,335.845C890.978,335.543 891.074,335.255 891.252,334.98C891.44,334.717 891.699,334.503 892.029,334.339C892.358,334.185 892.752,334.118 893.21,334.136C893.606,334.151 893.993,334.24 894.372,334.401C894.751,334.572 895.091,334.789 895.393,335.051C895.695,335.324 895.932,335.636 896.105,335.987C896.278,336.338 896.357,336.711 896.34,337.106C896.324,337.512 896.242,337.842 896.096,338.097C895.95,338.363 895.817,338.55 895.698,338.66L891.847,338.382C891.753,338.368 891.67,338.375 891.595,338.403C891.521,338.431 891.482,338.503 891.477,338.617C891.474,338.69 891.502,338.78 891.56,338.886C891.618,339.003 891.702,339.111 891.812,339.209C891.863,339.242 891.877,339.285 891.854,339.336C891.841,339.398 891.799,339.417 891.727,339.393C891.51,339.343 891.307,339.215 891.117,339.01C890.938,338.804 890.854,338.566 890.865,338.296C890.873,338.088 890.948,337.929 891.088,337.82C891.238,337.722 891.401,337.681 891.578,337.699L892.7,337.775C892.433,337.691 892.162,337.555 891.888,337.367C891.614,337.189 891.389,336.967 891.212,336.699C891.035,336.442 890.953,336.157 890.966,335.845ZM893.162,334.931C892.891,334.921 892.629,334.952 892.376,335.025C892.133,335.099 891.925,335.216 891.752,335.376C891.588,335.546 891.501,335.757 891.491,336.006C891.482,336.225 891.551,336.436 891.699,336.64C891.857,336.855 892.058,337.045 892.301,337.211C892.555,337.388 892.825,337.529 893.113,337.635C893.4,337.75 893.684,337.824 893.964,337.856L894.914,337.941C895.029,337.945 895.123,337.944 895.196,337.936C895.269,337.929 895.338,337.911 895.401,337.882C895.53,337.804 895.644,337.683 895.745,337.52C895.845,337.358 895.9,337.172 895.908,336.964C895.921,336.662 895.838,336.388 895.661,336.141C895.494,335.895 895.268,335.682 894.983,335.504C894.709,335.326 894.407,335.189 894.078,335.093C893.758,334.997 893.453,334.943 893.162,334.931ZM891.195,342.414C891.191,342.779 891.277,343.095 891.454,343.363C891.63,343.63 891.835,343.847 892.068,344.012C892.2,344.091 892.232,344.212 892.162,344.376C892.079,344.373 891.956,344.326 891.793,344.236C891.63,344.146 891.463,344.015 891.293,343.841C891.123,343.678 890.98,343.464 890.866,343.198C890.751,342.944 890.696,342.644 890.7,342.301C890.72,341.811 890.847,341.389 891.08,341.033C891.314,340.678 891.622,340.409 892.005,340.226C892.388,340.043 892.803,339.966 893.25,339.994C893.728,340.034 894.151,340.144 894.519,340.326C894.887,340.507 895.19,340.738 895.428,341.019C895.678,341.3 895.863,341.599 895.986,341.917C896.108,342.245 896.162,342.565 896.149,342.877C896.133,343.283 896.046,343.613 895.89,343.867C895.744,344.122 895.579,344.309 895.397,344.426C895.215,344.544 895.072,344.601 894.968,344.597C894.874,344.593 894.782,344.553 894.692,344.476C894.601,344.41 894.526,344.329 894.467,344.233C894.419,344.137 894.397,344.048 894.4,343.965C894.403,343.892 894.452,343.847 894.546,343.83C894.588,343.821 894.635,343.823 894.687,343.835C894.738,343.858 894.774,343.87 894.795,343.871C895.068,343.829 895.286,343.718 895.45,343.537C895.614,343.356 895.701,343.135 895.712,342.875C895.746,342.543 895.66,342.222 895.454,341.911C895.248,341.611 894.961,341.36 894.594,341.157C894.227,340.955 893.815,340.835 893.358,340.796C893.004,340.771 892.663,340.82 892.335,340.943C892.007,341.065 891.739,341.252 891.53,341.505C891.321,341.767 891.21,342.071 891.195,342.414ZM890.704,345.603C890.704,345.603 897.534,346.093 897.534,346.093C897.535,346.072 897.536,346.046 897.537,346.015C897.538,345.994 897.519,345.952 897.48,345.888C897.335,345.6 897.376,345.357 897.603,345.158C897.671,345.285 897.759,345.44 897.866,345.622C897.983,345.803 898.086,345.974 898.173,346.134C898.271,346.294 898.329,346.401 898.348,346.454C898.375,346.559 898.366,346.642 898.322,346.703C898.287,346.775 898.224,346.803 898.13,346.789L893.952,346.482C894.302,346.59 894.623,346.77 894.915,347.021C895.217,347.273 895.456,347.559 895.63,347.878C895.805,348.198 895.881,348.503 895.858,348.794C895.85,349.002 895.806,349.188 895.726,349.352C895.646,349.526 895.51,349.661 895.318,349.758C895.137,349.865 894.875,349.902 894.532,349.867L891.416,349.571C891.323,349.557 891.239,349.564 891.165,349.593C891.091,349.631 891.051,349.708 891.046,349.823C891.043,349.895 891.071,349.985 891.129,350.092C891.187,350.209 891.271,350.311 891.382,350.399C891.433,350.443 891.446,350.49 891.423,350.541C891.411,350.593 891.374,350.612 891.312,350.599C891.084,350.549 890.876,350.42 890.686,350.215C890.507,350.01 890.423,349.772 890.434,349.501C890.443,349.283 890.517,349.124 890.657,349.025C890.807,348.927 890.971,348.881 891.147,348.888L894.575,349.212C894.751,349.23 894.904,349.189 895.033,349.09C895.162,348.991 895.238,348.796 895.261,348.505C895.266,348.369 895.227,348.191 895.142,347.968C895.057,347.746 894.915,347.521 894.716,347.295C894.527,347.068 894.27,346.87 893.943,346.701C893.626,346.542 893.24,346.444 892.782,346.404L891.161,346.293C890.911,346.273 890.763,346.209 890.715,346.103C890.667,345.997 890.664,345.83 890.704,345.603ZM897.627,351.804C897.7,351.786 897.751,351.819 897.779,351.904C897.807,351.988 897.807,352.098 897.781,352.232C897.755,352.367 897.702,352.495 897.624,352.617C897.546,352.749 897.443,352.844 897.315,352.902C897.178,352.948 897.039,352.917 896.897,352.807C896.766,352.708 896.682,352.59 896.646,352.453C896.628,352.389 896.632,352.291 896.658,352.156C896.684,352.032 896.76,351.967 896.885,351.962C896.948,351.964 897.047,351.953 897.184,351.927C897.32,351.901 897.468,351.86 897.627,351.804ZM890.984,351.712C890.984,351.712 894.816,352.083 894.816,352.083C894.827,352.073 894.827,352.057 894.818,352.036C894.819,352.015 894.805,351.968 894.777,351.894C894.633,351.596 894.669,351.358 894.884,351.179C894.963,351.296 895.056,351.441 895.164,351.612C895.281,351.794 895.384,351.965 895.471,352.125C895.569,352.285 895.622,352.391 895.63,352.444C895.667,352.549 895.664,352.633 895.619,352.693C895.585,352.765 895.521,352.799 895.428,352.795L891.254,352.379C891.17,352.376 891.087,352.388 891.002,352.416C890.928,352.444 890.888,352.516 890.884,352.63C890.881,352.703 890.908,352.793 890.966,352.899C891.035,353.017 891.124,353.124 891.235,353.223C891.275,353.256 891.289,353.298 891.276,353.349C891.263,353.411 891.221,353.431 891.149,353.407C890.922,353.356 890.718,353.228 890.539,353.023C890.36,352.818 890.276,352.58 890.287,352.309C890.296,352.101 890.37,351.942 890.51,351.833C890.66,351.735 890.818,351.694 890.984,351.712ZM890.348,354.629C890.348,354.629 894.617,355.002 894.617,355.002C894.65,354.961 894.632,354.888 894.564,354.781C894.43,354.494 894.471,354.251 894.688,354.051C894.755,354.178 894.843,354.328 894.951,354.499C895.068,354.681 895.176,354.852 895.274,355.012C895.371,355.172 895.424,355.279 895.433,355.331C895.459,355.437 895.451,355.52 895.407,355.58C895.372,355.652 895.309,355.681 895.215,355.667L893.689,355.512C894.006,355.66 894.301,355.844 894.574,356.063C894.846,356.293 895.064,356.557 895.229,356.856C895.394,357.154 895.469,357.475 895.455,357.819C895.449,357.975 895.4,358.14 895.31,358.313C895.229,358.498 895.093,358.643 894.901,358.75C894.708,358.868 894.435,358.909 894.082,358.874L891.077,358.567C890.962,358.562 890.863,358.574 890.778,358.602C890.694,358.63 890.649,358.701 890.644,358.816C890.641,358.888 890.674,358.973 890.743,359.07C890.812,359.166 890.893,359.243 890.984,359.298C891.035,359.332 891.049,359.374 891.026,359.425C891.013,359.477 890.971,359.496 890.898,359.483C890.692,359.433 890.504,359.316 890.334,359.132C890.164,358.958 890.084,358.746 890.094,358.497C890.103,358.278 890.178,358.119 890.317,358.021C890.467,357.922 890.626,357.877 890.792,357.883L894.11,358.203C894.317,358.232 894.486,358.181 894.617,358.051C894.758,357.921 894.838,357.747 894.857,357.529C894.882,357.175 894.751,356.821 894.463,356.466C894.185,356.121 893.733,355.832 893.107,355.598C893.005,355.553 892.881,355.511 892.737,355.474C892.602,355.448 892.457,355.432 892.301,355.426L890.93,355.309C890.68,355.299 890.51,355.245 890.42,355.148C890.33,355.05 890.306,354.877 890.348,354.629ZM890.917,364.329C890.262,364.282 889.683,364.17 889.18,363.994C888.676,363.828 888.285,363.568 888.008,363.212C887.73,362.857 887.604,362.383 887.629,361.79C887.643,361.436 887.708,361.126 887.823,360.86C887.938,360.604 888.077,360.401 888.239,360.251C888.392,360.1 888.526,360.007 888.642,359.97C888.747,359.953 888.845,359.978 888.936,360.044C889.027,360.12 889.095,360.243 889.14,360.412C889.167,360.506 889.179,360.596 889.176,360.679C889.162,360.762 889.123,360.812 889.06,360.831C889.017,360.871 888.959,360.884 888.886,360.871C888.814,360.857 888.752,360.839 888.701,360.816C888.659,360.815 888.585,360.848 888.478,360.917C888.37,360.996 888.277,361.112 888.198,361.265C888.108,361.418 888.058,361.614 888.048,361.854C888.035,362.176 888.107,362.45 888.265,362.675C888.412,362.9 888.618,363.08 888.883,363.216C889.138,363.351 889.426,363.457 889.746,363.532C890.056,363.607 890.356,363.65 890.648,363.662L891.817,363.755C891.611,363.695 891.395,363.608 891.171,363.495C890.956,363.382 890.754,363.244 890.562,363.08C890.371,362.916 890.212,362.722 890.086,362.498C889.97,362.285 889.917,362.043 889.928,361.772C889.941,361.46 890.041,361.177 890.229,360.924C890.417,360.671 890.67,360.467 890.989,360.313C891.318,360.17 891.701,360.107 892.139,360.124C892.513,360.139 892.885,360.216 893.255,360.356C893.634,360.507 893.975,360.708 894.278,360.96C894.591,361.212 894.839,361.509 895.023,361.85C895.207,362.191 895.291,362.564 895.274,362.97C895.256,363.407 895.173,363.763 895.027,364.039C894.88,364.315 894.747,364.507 894.627,364.617L890.917,364.329ZM892.095,360.811C891.657,360.793 891.274,360.872 890.943,361.046C890.623,361.232 890.455,361.517 890.439,361.902C890.429,362.152 890.497,362.384 890.645,362.598C890.792,362.823 890.987,363.018 891.23,363.184C891.473,363.361 891.739,363.502 892.026,363.607C892.314,363.712 892.593,363.775 892.863,363.797L894.125,363.909C894.304,363.864 894.46,363.751 894.592,363.568C894.735,363.397 894.812,363.17 894.824,362.889C894.837,362.556 894.756,362.261 894.579,362.004C894.401,361.757 894.17,361.545 893.886,361.367C893.601,361.199 893.299,361.067 892.979,360.971C892.66,360.875 892.365,360.821 892.095,360.811Z" style="fill:rgb(21,0,75);fill-rule:nonzero;"/>
    </g>
</svg>
