<?xml version="1.0" encoding="UTF-8" standalone="no"?>
<!DOCTYPE svg PUBLIC "-//W3C//DTD SVG 1.1//EN" "http://www.w3.org/Graphics/SVG/1.1/DTD/svg11.dtd">
<svg width="100%" height="100%" viewBox="0 0 840 500" version="1.1" xmlns="http://www.w3.org/2000/svg" xmlns:xlink="http://www.w3.org/1999/xlink" xml:space="preserve" xmlns:serif="http://www.serif.com/" style="fill-rule:evenodd;clip-rule:evenodd;stroke-linejoin:round;stroke-miterlimit:2;">
    <g transform="matrix(1,0,0,1,-60,-20)">
        <rect x="95.454" y="258.539" width="765.134" height="252.094" style="fill-opacity:0;"/>
        <path d="M126.86,331.75C126.86,327.343 127.569,323.791 128.985,321.093C130.412,318.385 131.798,316.359 133.142,315.015C134.496,313.661 135.173,312.984 135.173,312.984L135.173,301.031C135.173,294.354 137.058,289.343 140.829,286C144.6,282.656 149.683,280.984 156.079,280.984C169.735,280.984 176.563,287.666 176.563,301.031L221.782,301.031C221.782,287.666 228.678,280.984 242.47,280.984C249.157,280.984 254.386,282.656 258.157,286C261.928,289.343 263.813,294.354 263.813,301.031L263.813,331.328C263.813,338.297 261.537,343.666 256.985,347.437C252.433,351.208 245.892,353.093 237.36,353.093L160.345,353.093C148.116,353.093 139.475,351.14 134.423,347.234C129.381,343.317 126.86,338.156 126.86,331.75ZM155.22,320.015C155.938,321.442 156.793,322.302 157.782,322.593C158.782,322.875 160.777,323.015 163.767,323.015L223.704,323.015C225.267,323.015 226.298,322.802 226.798,322.375C227.298,321.948 227.548,321.093 227.548,319.812C227.548,318.531 227.298,317.713 226.798,317.359C226.298,317.005 225.267,316.828 223.704,316.828L158.22,316.828C156.793,316.828 155.793,317.078 155.22,317.578C154.657,318.067 154.657,318.88 155.22,320.015ZM125.36,391.703C120.954,391.703 117.183,390.245 114.048,387.328C110.923,384.411 109.36,380.323 109.36,375.062C109.36,369.656 110.959,365.567 114.157,362.797C117.355,360.026 121.303,358.64 126.001,358.64L268.079,358.64C272.912,358.64 276.787,360.099 279.704,363.015C282.621,365.922 284.079,369.937 284.079,375.062C284.079,380.041 282.621,384.062 279.704,387.125C276.787,390.177 272.912,391.703 268.079,391.703L213.47,391.703C208.626,391.703 205.996,393.906 205.579,398.312L243.751,398.312C250.011,398.312 254.454,399.307 257.079,401.297C259.714,403.286 261.032,407.411 261.032,413.672C261.032,419.786 259.714,423.984 257.079,426.265C254.454,428.536 250.011,429.672 243.751,429.672L151.595,429.672C149.751,429.672 148.579,429.745 148.079,429.89C147.579,430.026 147.329,430.666 147.329,431.812C147.329,432.802 147.579,433.474 148.079,433.828C148.579,434.182 149.751,434.359 151.595,434.359L248.454,434.359C255.704,434.359 260.892,435.427 264.017,437.562C267.152,439.698 268.72,443.823 268.72,449.937C268.72,456.052 267.152,460.281 264.017,462.625C260.892,464.979 255.704,466.156 248.454,466.156L151.813,466.156C145.418,466.156 140.261,465.583 136.345,464.437C132.438,463.302 129.595,461.062 127.813,457.718C126.032,454.385 125.142,449.588 125.142,443.328C125.142,435.786 126.954,430.666 130.579,427.968C134.214,425.26 139.584,423.906 146.688,423.906L228.392,423.906C229.392,423.906 230.142,423.802 230.642,423.593C231.142,423.375 231.392,422.698 231.392,421.562C231.392,420.427 231.142,419.755 230.642,419.547C230.142,419.328 229.392,419.218 228.392,419.218L142.86,419.218C139.298,419.218 136.345,418.437 134.001,416.875C131.657,415.312 130.485,412.609 130.485,408.765C130.485,405.067 131.621,402.401 133.892,400.765C136.173,399.13 139.162,398.312 142.86,398.312L182.532,398.312L182.532,391.703L125.36,391.703L125.36,391.703ZM426.575,374.64C420.034,374.495 415.127,372.646 411.857,369.093C408.586,365.531 407.091,361.26 407.372,356.281C407.664,353.01 408.377,350.453 409.513,348.609C410.648,346.755 411.747,345.047 412.81,343.484C413.883,341.922 414.419,339.932 414.419,337.515C414.419,334.953 413.742,333.104 412.388,331.968C411.044,330.833 408.523,330.265 404.825,330.265L331.653,330.265C324.82,330.265 319.377,328.062 315.325,323.656C311.273,319.239 309.247,313.974 309.247,307.859C309.247,301.599 311.273,296.588 315.325,292.828C319.377,289.057 324.82,287.172 331.653,287.172L418.044,287.172C429.138,287.172 436.888,289.557 441.294,294.328C445.711,299.088 448.341,306.161 449.185,315.547C449.903,321.661 450.19,327.635 450.044,333.468C449.898,339.291 449.258,346.26 448.122,354.375C447.414,360.062 445.638,364.896 442.794,368.875C439.95,372.854 434.544,374.776 426.575,374.64ZM294.107,400.453C294.107,394.192 296.06,389.286 299.966,385.734C303.883,382.172 308.685,380.39 314.372,380.39L451.544,380.39C456.94,380.39 461.487,382.276 465.185,386.047C468.883,389.817 470.732,394.62 470.732,400.453C470.732,406.276 468.883,411.073 465.185,414.843C461.487,418.614 456.94,420.5 451.544,420.5L394.794,420.5C392.805,420.5 391.523,421.177 390.95,422.531C390.388,423.875 390.888,425.12 392.45,426.265C394.294,427.682 396.351,429.781 398.622,432.562C400.903,435.333 402.044,439.276 402.044,444.39C402.044,450.505 400.159,455.625 396.388,459.75C392.627,463.875 386.549,465.937 378.153,465.937C371.185,465.937 365.424,463.875 360.872,459.75C356.32,455.625 354.044,450.505 354.044,444.39C354.044,440.265 354.721,436.927 356.075,434.375C357.43,431.812 358.992,429.786 360.763,428.297C362.544,426.797 364.107,425.765 365.45,425.203C366.805,424.63 367.482,424.343 367.482,424.343L365.138,420.5L313.935,420.5C308.539,420.5 303.883,418.724 299.966,415.172C296.06,411.609 294.107,406.703 294.107,400.453L294.107,400.453ZM584.228,302.531C584.228,296.698 586.113,291.791 589.884,287.812C593.655,283.833 598.811,281.843 605.353,281.843C611.603,281.843 616.54,283.87 620.165,287.922C623.801,291.974 625.618,296.984 625.618,302.953L625.618,354.578L629.025,355.64C630.16,350.953 632.15,347.224 634.993,344.453C637.848,341.672 641.478,340.281 645.884,340.281C650.863,340.281 654.952,342.166 658.15,345.937C661.348,349.708 662.947,354.724 662.947,360.984C662.947,367.526 661.202,372.609 657.712,376.234C654.233,379.859 650.29,381.672 645.884,381.672C642.186,381.672 639.129,380.677 636.712,378.687C634.296,376.698 632.301,374.349 630.728,371.64C629.738,369.942 628.639,369.343 627.431,369.843C626.223,370.333 625.618,371.573 625.618,373.562L625.618,446.734C625.618,452.14 623.733,456.692 619.962,460.39C616.191,464.088 611.322,465.937 605.353,465.937C599.238,465.937 594.186,464.088 590.197,460.39C586.217,456.692 584.228,452.14 584.228,446.734L584.228,302.531ZM529.837,436.078C520.587,436.078 512.514,434.156 505.619,430.312C498.723,426.468 493.353,421.062 489.509,414.093C485.676,407.125 483.759,398.948 483.759,389.562C483.759,382.458 484.754,376.135 486.744,370.593C488.733,365.041 491.217,360.416 494.197,356.718C497.186,353.021 500.035,350.531 502.744,349.25L500.822,344.562L498.478,344.562C492.78,344.562 488.259,342.963 484.915,339.765C481.582,336.557 479.915,331.401 479.915,324.297C479.915,317.182 481.582,312.026 484.915,308.828C488.259,305.62 492.78,304.015 498.478,304.015L507.431,304.015L507.431,301.672C507.431,295.849 509.244,291.375 512.869,288.25C516.494,285.114 521.577,283.547 528.119,283.547C534.806,283.547 539.962,285.146 543.587,288.343C547.212,291.541 549.025,296.13 549.025,302.109L549.025,304.015L559.697,304.015C565.957,304.015 570.827,305.62 574.306,308.828C577.796,312.026 579.54,317.182 579.54,324.297C579.54,331.265 577.796,336.385 574.306,339.656C570.827,342.927 565.957,344.562 559.697,344.562L558.415,344.562L558.415,344.765C559.978,345.901 562.04,348 564.603,351.062C567.165,354.114 569.441,358.416 571.431,363.968C573.421,369.51 574.415,376.833 574.415,385.937C574.415,401.437 570.577,413.672 562.9,422.64C555.223,431.599 544.202,436.078 529.837,436.078ZM507.009,366.312C507.009,375.135 508.145,381.182 510.415,384.453C512.697,387.724 516.254,389.359 521.087,389.359C526.066,389.359 529.587,387.76 531.65,384.562C533.712,381.354 534.744,375.271 534.744,366.312C534.744,358.354 533.603,352.776 531.322,349.578C529.051,346.37 525.566,344.765 520.869,344.765C516.035,344.765 512.514,346.333 510.306,349.468C508.108,352.593 507.009,358.208 507.009,366.312ZM793.724,400.875C788.88,400.302 784.86,398.562 781.662,395.656C778.464,392.739 776.365,389.218 775.365,385.093C774.375,380.968 774.662,376.771 776.224,372.5C777.651,368.656 779.573,365.776 781.99,363.859C784.406,361.942 786.823,360.38 789.24,359.172C791.656,357.963 793.719,356.578 795.427,355.015C797.136,353.442 797.99,350.953 797.99,347.547C797.99,344.411 797.203,342.208 795.63,340.937C794.068,339.656 791.438,339.015 787.74,339.015L704.974,339.015C698.005,339.015 692.495,336.776 688.443,332.297C684.391,327.807 682.365,322.578 682.365,316.609C682.365,310.495 684.391,305.307 688.443,301.047C692.495,296.776 698.005,294.64 704.974,294.64L786.459,294.64C797.698,294.64 806.302,297.13 812.271,302.109C818.25,307.078 821.948,314.26 823.365,323.656C824.219,329.771 824.646,337.63 824.646,347.234C824.646,356.828 823.651,366.672 821.662,376.765C820.099,385.015 816.755,391.312 811.63,395.656C806.516,399.989 800.547,401.729 793.724,400.875ZM666.787,430.093C666.787,423.843 668.813,418.833 672.865,415.062C676.917,411.291 681.719,409.406 687.271,409.406L729.505,409.406L732.271,404.922C730.281,403.932 727.865,401.911 725.021,398.859C722.177,395.797 720.755,391.062 720.755,384.656C720.755,378.833 722.818,373.755 726.943,369.422C731.068,365.078 736.969,362.906 744.646,362.906C752.334,362.906 758.13,365.109 762.037,369.515C765.953,373.922 767.912,378.968 767.912,384.656C767.912,389.635 766.985,393.515 765.13,396.297C763.287,399.067 761.578,401.302 760.005,403C758.308,404.573 758.026,406.036 759.162,407.39C760.297,408.734 761.578,409.406 763.005,409.406L822.302,409.406C827.854,409.406 832.443,411.364 836.068,415.281C839.693,419.187 841.505,424.125 841.505,430.093C841.505,436.208 839.693,441.26 836.068,445.25C832.443,449.229 827.854,451.218 822.302,451.218L686.834,451.218C681.573,451.218 676.917,449.333 672.865,445.562C668.813,441.791 666.787,436.635 666.787,430.093Z" style="fill:rgb(213,243,215);fill-rule:nonzero;"/>
        <path d="M95.454,40.636L860.588,40.731L860.588,292.825L95.454,292.731L95.454,40.636Z" style="fill-opacity:0;"/>
        <path d="M236.298,184.27C231.454,183.697 227.433,181.952 224.235,179.035C221.037,176.118 218.938,172.565 217.938,168.378C216.949,164.18 217.235,160.018 218.798,155.893C220.225,152.05 222.074,149.097 224.345,147.035C226.616,144.972 228.886,143.337 231.157,142.129C233.438,140.921 235.36,139.536 236.923,137.974C238.496,136.411 239.282,134.135 239.282,131.146C239.282,125.177 235.866,122.192 229.032,122.191L147.548,122.181C140.579,122.181 135.069,119.977 131.017,115.57C126.964,111.153 124.938,105.96 124.938,99.991C124.938,93.731 126.964,88.471 131.017,84.211C135.069,79.94 140.579,77.806 147.548,77.806L229.032,77.816C240.272,77.818 248.876,80.308 254.845,85.288C260.824,90.268 264.522,97.451 265.938,106.837C266.793,113.097 267.22,121.03 267.22,130.634C267.22,140.227 266.225,149.998 264.235,159.946C262.673,168.196 259.329,174.492 254.204,178.835C249.089,183.168 243.121,184.98 236.298,184.27L236.298,184.27ZM109.36,212.192C109.36,205.942 111.386,200.932 115.438,197.162C119.491,193.391 124.293,191.507 129.845,191.507L264.876,191.524C270.428,191.525 275.017,193.484 278.642,197.401C282.267,201.307 284.079,206.245 284.079,212.214C284.079,218.328 282.267,223.38 278.642,227.369C275.017,231.348 270.428,233.337 264.876,233.337L129.407,233.32C124.147,233.319 119.491,231.433 115.438,227.662C111.386,223.89 109.36,218.734 109.36,212.192ZM385.622,115.383C385.622,109.831 387.148,105.065 390.2,101.086C393.263,97.108 397.211,95.118 402.044,95.119C406.45,95.12 409.935,96.042 412.497,97.886L412.497,84.448C412.497,78.615 414.414,73.886 418.247,70.262C422.091,66.637 427.284,64.825 433.825,64.826C440.232,64.827 445.284,66.676 448.982,70.375C452.68,74.073 454.528,78.912 454.528,84.891L454.528,149.516C454.528,154.922 452.607,159.474 448.763,163.172C444.93,166.869 439.95,168.718 433.825,168.717C427.711,168.716 422.627,166.866 418.575,163.168C414.523,159.47 412.497,154.917 412.497,149.511L412.497,133.089C410.362,134.651 406.877,135.432 402.044,135.432C396.784,135.431 392.732,133.404 389.888,129.352C387.044,125.3 385.622,120.643 385.622,115.383L385.622,115.383ZM336.763,166.58C330.367,166.579 324.289,165.938 318.528,164.656C312.768,163.374 308.075,161.029 304.45,157.623C300.825,154.206 299.013,149.294 299.013,142.888C299.013,137.627 299.935,133.539 301.778,130.622C303.633,127.706 305.805,125.576 308.294,124.232C310.784,122.879 312.81,121.988 314.372,121.561C312.81,121.561 311.174,121.03 309.466,119.967C307.758,118.894 306.903,116.935 306.903,114.092C306.903,109.113 310.315,106.623 317.138,106.624L356.825,106.426C358.815,106.426 360.127,106.249 360.763,105.895C361.409,105.531 361.732,104.854 361.732,103.864C361.732,102.01 360.023,101.083 356.607,101.082L316.716,101.077C312.31,101.077 308.258,99.831 304.56,97.341C300.862,94.851 299.013,90.549 299.013,84.434C299.013,78.601 300.825,74.299 304.45,71.529C308.075,68.759 312.091,67.374 316.497,67.374L355.325,67.379C363.721,67.38 370.226,69.23 374.841,72.928C379.466,76.627 381.778,82.247 381.778,89.788L381.778,99.382C381.778,107.059 379.997,112.715 376.435,116.35C372.883,119.975 366.7,121.787 357.888,121.785L322.685,121.781C319.414,121.781 317.778,122.775 317.778,124.765C317.778,126.046 318.169,126.796 318.95,127.015C319.732,127.223 320.976,127.328 322.685,127.328L362.794,127.333C371.19,127.334 377.591,128.757 381.997,131.601C386.403,134.445 388.607,139.42 388.607,146.524C388.607,153.492 386.403,158.581 381.997,161.788C377.591,164.986 371.19,166.584 362.794,166.583L336.763,166.58L336.763,166.58ZM323.544,223.313C323.544,218.625 324.398,214.787 326.107,211.797C327.815,208.808 329.732,206.532 331.857,204.97C333.992,203.408 335.627,202.554 336.763,202.408L336.763,202.205C332.784,202.204 329.586,200.891 327.169,198.266C324.752,195.63 323.544,192.104 323.544,187.688C323.544,183.563 324.789,180.078 327.278,177.235C329.768,174.391 333.57,172.97 338.685,172.971L425.513,172.981C442.294,172.983 450.685,181.307 450.685,197.953L450.685,224.406C450.685,240.188 442.294,248.077 425.513,248.075L358.528,248.067C346.581,248.065 337.763,245.892 332.075,241.548C326.388,237.214 323.544,231.135 323.544,223.313ZM345.091,205.831C345.091,207.247 345.445,208.169 346.153,208.597C346.862,209.024 348.357,209.237 350.638,209.238L409.091,209.245C411.362,209.245 412.815,209.032 413.45,208.605C414.096,208.178 414.419,207.256 414.419,205.839C414.419,204.277 414.096,203.282 413.45,202.855C412.815,202.428 411.362,202.214 409.091,202.214L350.638,202.206C348.357,202.206 346.862,202.42 346.153,202.847C345.445,203.274 345.091,204.268 345.091,205.831ZM618.368,81.708C618.368,75.875 619.967,71.469 623.165,68.49C626.363,65.501 630.52,64.007 635.634,64.007C640.759,64.008 644.921,65.503 648.118,68.493C651.316,71.473 652.915,75.879 652.915,81.713L652.915,230.181C652.915,236.015 651.316,240.457 648.118,243.509C644.921,246.571 640.759,248.102 635.634,248.101C630.52,248.1 626.363,246.569 623.165,243.506C619.967,240.453 618.368,236.01 618.368,230.177L618.368,81.708L618.368,81.708ZM483.54,169.364C483.395,160.832 484.316,153.796 486.306,148.254C488.296,142.703 490.785,138.469 493.775,135.552C496.764,132.636 499.54,130.751 502.103,129.897L500.384,125.209C497.113,125.209 494.056,123.683 491.212,120.63C488.369,117.567 486.806,113.26 486.525,107.708C485.952,98.895 488.832,91.682 495.165,86.068C501.499,80.444 510.848,77.633 523.212,77.634C536.014,77.636 546.181,81.304 553.712,88.638C561.254,95.962 566.233,107.228 568.65,122.437L573.134,122.437C577.405,122.438 579.54,120.167 579.54,115.625L579.54,84.047C579.54,78.787 581.103,74.662 584.228,71.673C587.353,68.684 591.337,67.189 596.181,67.19C600.869,67.191 604.811,68.686 608.009,71.676C611.217,74.666 612.822,78.791 612.822,84.051L612.822,227.833C612.822,233.093 611.217,237.218 608.009,240.207C604.811,243.196 600.869,244.691 596.181,244.69C591.337,244.689 587.353,243.194 584.228,240.204C581.103,237.214 579.54,233.089 579.54,227.829L579.54,145.485L570.369,145.484L570.369,146.546C570.369,162.765 568.52,175.957 564.822,186.124C561.124,196.29 555.931,203.758 549.244,208.528C542.556,213.287 534.733,215.667 525.775,215.666C519.087,215.665 512.546,214.029 506.15,210.757C499.754,207.485 494.457,202.438 490.259,195.614C486.061,188.78 483.822,180.03 483.54,169.364L483.54,169.364ZM519.587,167.446C523.712,167.447 526.77,165.707 528.759,162.228C530.749,158.739 531.744,152.588 531.744,143.776C531.744,134.526 530.712,128.197 528.65,124.791C526.587,121.374 523.566,119.665 519.587,119.665C515.181,119.664 511.91,121.372 509.775,124.789C507.639,128.195 506.572,134.523 506.572,143.773C506.572,152.45 507.639,158.564 509.775,162.117C511.91,165.669 515.181,167.446 519.587,167.446ZM726.521,178.362C712.156,178.361 701.594,175.515 694.834,169.827C688.084,164.128 684.709,156.519 684.709,146.998C684.709,141.591 685.667,137.149 687.584,133.67C689.511,130.181 691.823,127.441 694.521,125.452C697.219,123.452 699.563,122.171 701.552,121.609L699.646,117.984C695.229,117.983 691.459,115.853 688.334,111.592C685.209,107.321 683.646,102.55 683.646,97.279C683.646,91.883 685.313,87.159 688.646,83.108C691.99,79.046 696.578,77.015 702.412,77.016L793.927,77.027C800.615,77.028 805.662,78.987 809.068,82.904C812.485,86.81 814.193,91.68 814.193,97.514C814.193,103.201 812.485,108.071 809.068,112.122C805.662,116.174 800.615,118.2 793.927,118.199L722.255,118.19C719.412,118.19 717.24,118.903 715.74,120.33C714.25,121.746 714.146,123.595 715.427,125.877C716.99,128.439 718.339,130.465 719.474,131.955C720.62,133.445 722.115,134.513 723.959,135.159C725.813,135.794 728.516,136.113 732.068,136.113L797.349,136.121C805.735,136.122 811.776,137.972 815.474,141.67C819.172,145.369 821.021,150.348 821.021,156.608C821.021,163.15 819.172,168.415 815.474,172.405C811.776,176.383 805.802,178.372 797.552,178.371L764.068,178.367L764.068,184.554C764.068,189.242 766.839,191.586 772.38,191.587L822.084,191.593C827.636,191.594 832.261,193.552 835.959,197.47C839.656,201.376 841.505,206.314 841.505,212.283C841.505,218.397 839.656,223.449 835.959,227.438C832.261,231.417 827.636,233.406 822.084,233.405L686.63,233.389C681.37,233.388 676.745,231.502 672.755,227.731C668.776,223.959 666.787,218.803 666.787,212.261C666.787,206.011 668.776,201.001 672.755,197.231C676.745,193.46 681.511,191.575 687.052,191.576L739.74,191.583L739.74,178.364L726.521,178.362L726.521,178.362Z" style="fill:rgb(213,243,215);fill-rule:nonzero;"/>
        <path d="M349.782,81.928L465.057,44.321L480.107,93.789L364.832,131.396L349.782,81.928Z" style="fill-opacity:0;"/>
        <path d="M386.72,108.771L379.488,84.998L382.711,83.946L385.568,93.336L389.103,92.182L390.044,95.277L386.509,96.431L389.943,107.719L386.72,108.771ZM367.177,100.568C366.334,97.797 366.178,95.388 366.709,93.341C367.247,91.281 368.462,89.942 370.354,89.325C372.255,88.705 373.996,89.079 375.578,90.448C377.166,91.804 378.381,93.867 379.224,96.638C380.073,99.429 380.224,101.856 379.676,103.919C379.135,105.969 377.914,107.305 376.012,107.925C374.121,108.542 372.386,108.171 370.808,106.812C369.236,105.44 368.026,103.359 367.177,100.568ZM370.371,99.526C370.75,100.772 371.171,101.834 371.634,102.713C372.095,103.582 372.63,104.251 373.241,104.72C373.859,105.176 374.494,105.297 375.148,105.084C376.128,104.764 376.664,103.932 376.756,102.587C376.855,101.229 376.613,99.594 376.03,97.68C375.445,95.756 374.744,94.275 373.928,93.238C373.112,92.2 372.208,91.843 371.218,92.166C370.544,92.386 370.089,92.874 369.851,93.631C369.61,94.378 369.542,95.244 369.645,96.229C369.756,97.201 369.998,98.3 370.371,99.526Z" style="fill:rgb(64,59,59);fill-rule:nonzero;"/>
        <path d="M245.335,193.257L312.059,103.758L352.676,135.791L285.952,225.29L245.335,193.257Z" style="fill-opacity:0;"/>
        <path d="M282.193,205.158L277.05,201.103L285.623,189.603L284.384,188.625L275.745,200.213L273.659,198.567L284.249,184.362L289.355,188.388L280.8,199.863L282.089,200.879L290.961,188.979L293.035,190.615L282.193,205.158L282.193,205.158ZM270.542,200.187L268.529,198.599L274.749,190.256L272.809,188.727L274.808,186.046L276.747,187.576L282.939,179.27L284.952,180.858L270.542,200.187ZM269.116,194.726L263.274,190.119L273.715,176.114L275.728,177.701L267.267,189.051L269.071,190.473L277.607,179.024L279.632,180.621L269.116,194.726L269.116,194.726Z" style="fill:rgb(64,59,59);fill-rule:nonzero;"/>
        <path d="M702.949,355.484L626.599,435.281L590.167,398.54L666.517,318.742L702.949,355.484Z" style="fill-opacity:0;"/>
        <path d="M656.544,350.5L674.043,368.147L671.828,370.462L654.329,352.814L656.544,350.5L656.544,350.5ZM670.368,353.726L672.624,356.002L670.798,357.91L676.95,364.114L674.887,366.27L658.643,349.888L660.706,347.732L668.542,355.634L670.368,353.726ZM673.033,339.866L674.992,341.841L673.447,343.456L682.142,352.224L683.362,350.948L685.321,352.924L677.187,361.425L675.228,359.449L676.395,358.23L667.8,349.562C667.382,349.998 666.854,350.634 666.214,351.468L664.365,349.603C666.45,346.973 668.788,344.303 671.38,341.593L673.033,339.866ZM671.503,345.488C671.503,345.488 671.093,345.917 671.093,345.917C671.006,346.007 670.549,346.523 669.722,347.463L678.361,356.175L680.197,354.256L671.503,345.488Z" style="fill:rgb(64,59,59);fill-rule:nonzero;"/>
        <path d="M532.024,44.915L637.104,105.894L612.072,151.165L506.991,90.185L532.024,44.915Z" style="fill-opacity:0;"/>
        <path d="M537.67,90.941L549.694,69.195L552.627,70.897L547.787,79.65L551.165,81.611L549.592,84.456L546.214,82.495L540.602,92.643L537.67,90.941ZM525.948,77.726C529.378,77.549 532.418,76.753 535.068,75.34C537.727,73.933 539.644,72.197 540.821,70.134L533.928,66.134L535.38,63.508L545.314,69.273C544.245,71.206 543.023,72.887 541.649,74.318C540.275,75.749 538.791,76.905 537.196,77.786C535.616,78.664 533.988,79.338 532.311,79.81C530.647,80.278 528.862,80.591 526.954,80.749L525.948,77.726Z" style="fill:rgb(64,59,59);fill-rule:nonzero;"/>
        <path d="M650.887,127.087L720.617,228.121L678.681,258.392L608.951,157.358L650.887,127.087Z" style="fill-opacity:0;"/>
        <path d="M629.269,159.704L635.668,155.084L637.541,157.798L633.486,160.725L641.766,172.723L639.422,174.415L629.269,159.704L629.269,159.704ZM634.889,151.177L637.17,149.531L650.865,169.373L648.584,171.02L634.889,151.177ZM641.753,150.615L648.533,145.721L650.423,148.46L645.861,151.753L654.115,163.713L651.898,165.313L641.753,150.615Z" style="fill:rgb(64,59,59);fill-rule:nonzero;"/>
        <path d="M605.577,447.008L503.598,486.467L486.074,437.817L588.054,398.358L605.577,447.008Z" style="fill-opacity:0;"/>
        <path d="M567.703,422.016C567.703,422.016 576.124,445.397 576.124,445.397L572.947,446.626L569.663,437.509L566.093,438.89L564.997,435.846L568.567,434.465L564.526,423.246L567.703,422.016ZM583.49,421.688L589.305,437.833L578.58,441.983L577.611,439.292L585.305,436.315L581.433,425.566L580.88,425.78C577.946,426.916 575.034,428.266 572.144,429.831L571.233,427.301C574.537,425.442 578.317,423.689 582.572,422.043L583.49,421.688Z" style="fill:rgb(64,59,59);fill-rule:nonzero;"/>
        <path d="M450.722,486.026L346.824,452.876L361.928,403.408L465.827,436.557L450.722,486.026Z" style="fill-opacity:0;"/>
        <path d="M451.029,450.298L450.171,453.107L442.133,450.543L439.564,458.957L436.319,457.921L438.888,449.507L427.173,445.769L428.031,442.96L451.029,450.298ZM443.101,465.563C443.101,465.563 442.239,468.388 442.239,468.388L424.852,462.841C426.246,458.277 428.051,454.004 430.269,450.021L433.41,451.023C432.449,452.674 431.544,454.441 430.697,456.324C429.85,458.208 429.236,459.773 428.856,461.018L443.101,465.563Z" style="fill:rgb(64,59,59);fill-rule:nonzero;"/>
        <path d="M317.255,418.428L248.712,331.861L288.532,298.859L357.074,385.426L317.255,418.428Z" style="fill-opacity:0;"/>
        <path d="M327.844,372.239L308.712,388.096L306.616,385.45L325.749,369.593L327.844,372.239ZM334.685,390.166C329.507,388.627 325.147,389.312 321.604,392.222L319.919,393.618L323.169,397.722L320.786,399.696L312.183,388.83L314.565,386.856L317.815,390.96L319.463,389.593C320.426,388.795 321.24,387.843 321.905,386.737C322.564,385.623 323.042,384.497 323.337,383.36C323.624,382.229 323.818,381.182 323.919,380.219C324.014,379.248 324.033,378.333 323.977,377.473L327.008,377.903C327.074,379.161 326.951,380.675 326.64,382.448C326.323,384.212 325.86,385.699 325.249,386.908C326.49,386.461 328.094,386.255 330.06,386.289C332.012,386.321 333.61,386.552 334.854,386.982L334.685,390.166Z" style="fill:rgb(64,59,59);fill-rule:nonzero;"/>
        <path d="M268.787,228.689L696.126,284.028L691.213,322.579L263.874,267.24L268.787,228.689Z" style="fill-opacity:0;"/>
        <path d="M296.407,246.311C296.343,246.817 296.418,247.258 296.633,247.632C296.858,248.008 297.18,248.36 297.601,248.687C298.031,249.016 298.512,249.362 299.044,249.725C299.49,250.014 299.92,250.306 300.334,250.601C300.758,250.897 301.142,251.22 301.486,251.569C301.83,251.918 302.084,252.314 302.249,252.755C302.423,253.198 302.473,253.714 302.398,254.303C302.318,254.933 302.055,255.508 301.611,256.029C301.168,256.538 300.583,256.925 299.857,257.188C299.14,257.452 298.317,257.524 297.388,257.404C296.385,257.274 295.556,256.983 294.9,256.53C294.245,256.067 293.761,255.537 293.449,254.94C293.147,254.344 293.031,253.767 293.102,253.209C293.143,252.889 293.288,252.656 293.538,252.51C293.788,252.363 294.1,252.304 294.474,252.331C294.9,252.366 295.112,252.519 295.109,252.792C295.124,252.92 295.08,253.014 294.978,253.074C294.888,253.125 294.816,253.237 294.762,253.409C294.697,253.757 294.744,254.168 294.905,254.64C295.066,255.102 295.364,255.524 295.798,255.906C296.234,256.278 296.803,256.509 297.506,256.6C298.198,256.689 298.783,256.629 299.262,256.418C299.74,256.206 300.121,255.899 300.403,255.494C300.686,255.089 300.862,254.655 300.931,254.192C301.017,253.688 300.905,253.243 300.598,252.857C300.301,252.461 299.907,252.095 299.414,251.758C298.923,251.411 298.416,251.067 297.892,250.726C297.409,250.401 296.924,250.039 296.44,249.64C295.955,249.241 295.563,248.775 295.263,248.243C294.975,247.701 294.878,247.064 294.971,246.33C295.045,245.751 295.296,245.227 295.723,244.757C296.161,244.289 296.731,243.937 297.433,243.702C298.136,243.457 298.927,243.392 299.805,243.505C300.641,243.614 301.324,243.865 301.851,244.259C302.39,244.644 302.776,245.077 303.008,245.559C303.241,246.041 303.332,246.483 303.28,246.886C303.213,247.413 302.839,247.669 302.158,247.654C301.899,247.631 301.712,247.57 301.599,247.472C301.497,247.364 301.453,247.259 301.466,247.155C301.486,247 301.543,246.882 301.637,246.799C301.743,246.708 301.799,246.605 301.803,246.49C301.837,246.305 301.79,246.052 301.663,245.731C301.546,245.411 301.317,245.109 300.976,244.823C300.644,244.538 300.184,244.358 299.595,244.282C298.903,244.192 298.329,244.249 297.873,244.453C297.416,244.656 297.066,244.931 296.822,245.278C296.589,245.626 296.451,245.97 296.407,246.311ZM305.483,260.422C305.483,260.422 305.314,261.377 305.314,261.377C305.255,261.758 305.131,262.03 304.942,262.195C304.752,262.37 304.397,262.397 303.876,262.277L305.577,252.146C305.078,252.765 304.661,253.441 304.326,254.174C304.244,254.164 304.162,254.106 304.081,254.001C304.001,253.885 304.014,253.698 304.121,253.439C304.32,252.95 304.557,252.487 304.833,252.05C305.121,251.604 305.441,251.199 305.792,250.835L306.116,248.908C306.158,248.577 306.323,248.357 306.61,248.247C306.907,248.138 307.171,248.167 307.402,248.334L307.199,249.678C307.785,249.281 308.382,249.007 308.99,248.854C309.607,248.703 310.18,248.699 310.708,248.84C311.452,249.021 312.04,249.391 312.473,249.951C312.907,250.501 313.179,251.161 313.291,251.932C313.413,252.704 313.367,253.518 313.153,254.372C312.975,255.116 312.668,255.795 312.232,256.411C311.807,257.029 311.312,257.532 310.748,257.921C310.185,258.3 309.599,258.533 308.989,258.623C308.605,258.667 308.173,258.638 307.693,258.533C307.222,258.441 306.845,258.266 306.563,258.009C306.422,257.875 306.364,257.752 306.389,257.64C306.426,257.519 306.468,257.435 306.516,257.388C306.828,257.66 307.221,257.826 307.696,257.888C308.182,257.951 308.676,257.863 309.179,257.623C309.713,257.388 310.204,256.999 310.651,256.459C311.108,255.919 311.45,255.254 311.677,254.465C311.875,253.734 311.946,253.05 311.891,252.413C311.837,251.765 311.671,251.218 311.391,250.772C311.113,250.316 310.727,250.014 310.231,249.866C309.768,249.711 309.252,249.718 308.685,249.886C308.129,250.045 307.572,250.335 307.014,250.757L305.483,260.422ZM316.647,246.033C316.623,245.893 316.692,245.808 316.854,245.776C317.027,245.736 317.235,245.752 317.477,245.825C317.732,245.89 317.969,246.005 318.189,246.17C318.41,246.335 318.557,246.543 318.63,246.794C318.71,247.067 318.641,247.321 318.422,247.555C318.204,247.789 317.96,247.926 317.693,247.965C317.575,247.981 317.4,247.958 317.166,247.896C316.944,247.826 316.832,247.675 316.83,247.443C316.845,247.33 316.842,247.145 316.822,246.891C316.802,246.636 316.744,246.35 316.647,246.033ZM315.393,258.349C315.393,258.349 316.716,251.304 316.716,251.304C316.708,251.282 316.678,251.273 316.625,251.277C316.582,251.282 316.49,251.306 316.348,251.351C315.785,251.562 315.353,251.453 315.05,251.026C315.286,250.909 315.577,250.763 315.925,250.587C316.274,250.402 316.6,250.234 316.903,250.084C317.216,249.935 317.42,249.857 317.516,249.848C317.711,249.8 317.871,249.821 317.996,249.91C318.123,249.99 318.169,250.117 318.137,250.291L316.7,257.982C316.67,258.136 316.676,258.289 316.72,258.442C316.765,258.584 316.89,258.669 317.097,258.696C317.231,258.713 317.409,258.678 317.63,258.591C317.853,258.494 318.055,258.347 318.238,258.15C318.322,258.066 318.408,258.046 318.497,258.089C318.598,258.123 318.63,258.206 318.592,258.338C318.456,258.74 318.18,259.093 317.764,259.396C317.357,259.701 316.906,259.821 316.411,259.757C316.018,259.706 315.735,259.538 315.561,259.253C315.398,258.969 315.342,258.668 315.393,258.349ZM320.724,260.016C320.724,260.016 322.088,252.157 322.088,252.157C322.034,252.087 321.895,252.106 321.671,252.214C321.119,252.426 320.682,252.311 320.36,251.871C320.606,251.755 320.902,251.61 321.25,251.435C321.598,251.259 321.924,251.096 322.226,250.946C322.54,250.788 322.745,250.704 322.841,250.695C323.036,250.647 323.19,250.672 323.304,250.771C323.429,250.861 323.476,250.987 323.444,251.151L322.914,253.95C323.227,253.392 323.618,252.881 324.087,252.416C324.555,251.952 325.073,251.593 325.641,251.341C326.22,251.08 326.83,250.991 327.471,251.074C327.76,251.112 328.061,251.224 328.373,251.412C328.686,251.589 328.934,251.868 329.117,252.248C329.301,252.619 329.33,253.127 329.206,253.772L328.152,259.324C328.115,259.529 328.118,259.713 328.16,259.876C328.203,260.039 328.327,260.134 328.534,260.161C328.678,260.18 328.847,260.133 329.04,260.022C329.232,259.91 329.387,259.767 329.504,259.593C329.567,259.507 329.644,259.485 329.733,259.528C329.833,259.562 329.865,259.645 329.827,259.777C329.696,260.149 329.453,260.485 329.1,260.786C328.748,261.076 328.334,261.191 327.859,261.129C327.466,261.078 327.183,260.91 327.01,260.625C326.848,260.331 326.791,260.03 326.841,259.721L327.966,253.612C328.046,253.234 327.977,252.91 327.76,252.64C327.543,252.36 327.229,252.188 326.817,252.124C326.168,252.029 325.498,252.216 324.809,252.683C324.12,253.14 323.505,253.932 322.962,255.059C322.865,255.246 322.774,255.466 322.689,255.717C322.616,255.96 322.556,256.23 322.507,256.529L322.09,259.059C322.011,259.511 321.878,259.819 321.689,259.983C321.501,260.138 321.179,260.149 320.724,260.016ZM331.84,261.456C331.84,261.456 333.204,253.597 333.204,253.597C333.15,253.527 333.011,253.546 332.788,253.653C332.236,253.865 331.799,253.751 331.477,253.31C331.722,253.195 332.019,253.05 332.367,252.874C332.715,252.699 333.04,252.536 333.343,252.386C333.657,252.227 333.862,252.143 333.958,252.135C334.153,252.087 334.307,252.112 334.421,252.21C334.546,252.3 334.593,252.427 334.561,252.591L334.031,255.39C334.344,254.832 334.735,254.32 335.203,253.856C335.672,253.391 336.19,253.033 336.758,252.781C337.337,252.52 337.947,252.431 338.588,252.514C338.877,252.551 339.178,252.664 339.49,252.851C339.803,253.028 340.051,253.307 340.234,253.688C340.417,254.058 340.447,254.566 340.323,255.212L339.269,260.763C339.232,260.969 339.235,261.153 339.277,261.316C339.319,261.479 339.444,261.574 339.65,261.6C339.795,261.619 339.964,261.573 340.156,261.461C340.349,261.35 340.504,261.207 340.621,261.033C340.684,260.947 340.76,260.925 340.849,260.968C340.95,261.002 340.982,261.085 340.944,261.216C340.812,261.588 340.57,261.924 340.217,262.225C339.865,262.516 339.451,262.63 338.976,262.569C338.583,262.518 338.3,262.35 338.126,262.065C337.964,261.771 337.908,261.469 337.958,261.161L339.083,255.052C339.163,254.673 339.094,254.349 338.876,254.079C338.66,253.799 338.346,253.627 337.934,253.563C337.285,253.469 336.615,253.655 335.925,254.123C335.237,254.58 334.622,255.372 334.079,256.499C333.981,256.686 333.891,256.905 333.806,257.157C333.733,257.399 333.672,257.67 333.624,257.968L333.207,260.498C333.128,260.95 332.994,261.258 332.805,261.423C332.618,261.577 332.296,261.588 331.84,261.456ZM344.489,249.638C344.465,249.499 344.534,249.413 344.695,249.382C344.868,249.341 345.076,249.357 345.319,249.431C345.573,249.495 345.811,249.61 346.031,249.775C346.252,249.94 346.398,250.148 346.471,250.399C346.552,250.672 346.483,250.926 346.264,251.16C346.045,251.395 345.802,251.531 345.535,251.57C345.417,251.586 345.242,251.564 345.008,251.502C344.786,251.431 344.674,251.28 344.672,251.049C344.686,250.935 344.684,250.751 344.664,250.496C344.643,250.241 344.585,249.956 344.489,249.638ZM343.235,261.954C343.235,261.954 344.558,254.91 344.558,254.91C344.55,254.888 344.52,254.878 344.467,254.882C344.424,254.887 344.332,254.912 344.19,254.956C343.627,255.167 343.195,255.059 342.892,254.631C343.128,254.514 343.419,254.368 343.767,254.193C344.116,254.007 344.442,253.839 344.745,253.689C345.058,253.541 345.262,253.462 345.358,253.453C345.553,253.405 345.713,253.426 345.838,253.516C345.964,253.595 346.011,253.722 345.979,253.896L344.541,261.588C344.511,261.742 344.518,261.895 344.562,262.047C344.607,262.19 344.732,262.274 344.939,262.301C345.073,262.318 345.251,262.284 345.472,262.197C345.694,262.1 345.897,261.952 346.079,261.756C346.164,261.672 346.25,261.652 346.339,261.695C346.44,261.729 346.471,261.812 346.434,261.943C346.298,262.346 346.022,262.699 345.606,263.002C345.199,263.306 344.748,263.427 344.252,263.362C343.86,263.311 343.577,263.144 343.403,262.858C343.24,262.575 343.183,262.273 343.235,261.954ZM348.565,263.621C348.565,263.621 349.929,255.763 349.929,255.763C349.875,255.693 349.736,255.712 349.513,255.819C348.961,256.031 348.524,255.917 348.202,255.476C348.447,255.361 348.744,255.215 349.092,255.04C349.44,254.864 349.765,254.702 350.068,254.552C350.382,254.393 350.587,254.309 350.683,254.301C350.878,254.252 351.032,254.278 351.146,254.376C351.271,254.466 351.318,254.593 351.286,254.757L350.756,257.556C351.069,256.997 351.46,256.486 351.928,256.022C352.397,255.557 352.915,255.199 353.483,254.947C354.062,254.686 354.672,254.597 355.313,254.68C355.602,254.717 355.903,254.829 356.215,255.017C356.528,255.194 356.776,255.473 356.959,255.854C357.142,256.224 357.172,256.732 357.048,257.378L355.994,262.929C355.957,263.134 355.96,263.319 356.002,263.482C356.044,263.645 356.169,263.74 356.375,263.766C356.52,263.785 356.689,263.739 356.881,263.627C357.074,263.515 357.229,263.373 357.346,263.199C357.409,263.112 357.485,263.091 357.574,263.134C357.675,263.168 357.707,263.251 357.669,263.382C357.537,263.754 357.295,264.09 356.942,264.391C356.59,264.682 356.176,264.796 355.701,264.735C355.308,264.684 355.025,264.516 354.851,264.231C354.689,263.937 354.633,263.635 354.683,263.327L355.808,257.217C355.888,256.839 355.819,256.515 355.601,256.245C355.385,255.965 355.071,255.793 354.659,255.729C354.01,255.635 353.34,255.821 352.65,256.288C351.962,256.746 351.347,257.538 350.804,258.665C350.707,258.852 350.616,259.071 350.531,259.323C350.458,259.565 350.397,259.836 350.349,260.134L349.932,262.664C349.853,263.116 349.719,263.424 349.53,263.589C349.343,263.743 349.021,263.754 348.565,263.621ZM366.679,264.171C366.486,265.354 366.185,266.397 365.776,267.3C365.366,268.213 364.811,268.897 364.113,269.353C363.413,269.819 362.51,269.981 361.405,269.837C360.764,269.754 360.209,269.583 359.738,269.322C359.277,269.063 358.915,268.775 358.651,268.457C358.396,268.151 358.251,267.885 358.217,267.66C358.189,267.467 358.253,267.292 358.41,267.134C358.567,266.975 358.796,266.868 359.097,266.813C359.279,266.784 359.442,266.779 359.587,266.798C359.741,266.828 359.837,266.898 359.875,267.008C359.934,267.121 359.946,267.238 359.909,267.359C359.873,267.481 359.827,267.59 359.773,267.688C359.772,267.772 359.828,267.916 359.938,268.119C360.059,268.324 360.254,268.523 360.524,268.715C360.804,268.909 361.166,269.034 361.61,269.092C362.209,269.17 362.724,269.084 363.155,268.835C363.596,268.588 363.962,268.225 364.254,267.749C364.555,267.283 364.799,266.769 364.986,266.205C365.174,265.641 365.308,265.086 365.388,264.539L365.742,262.38C365.6,262.75 365.404,263.134 365.154,263.532C364.915,263.922 364.628,264.283 364.291,264.618C363.966,264.944 363.587,265.199 363.154,265.385C362.722,265.56 362.253,265.615 361.746,265.549C361.178,265.475 360.672,265.247 360.227,264.864C359.782,264.481 359.448,263.975 359.223,263.347C359.009,262.721 358.953,262.01 359.054,261.214C359.142,260.522 359.35,259.84 359.677,259.168C360.016,258.487 360.445,257.881 360.964,257.349C361.485,256.808 362.072,256.4 362.727,256.128C363.382,255.845 364.087,255.753 364.841,255.85C365.657,255.956 366.308,256.166 366.793,256.481C367.288,256.798 367.621,257.072 367.791,257.304L366.679,264.171ZM360.338,261.396C360.236,262.202 360.322,262.922 360.599,263.557C360.875,264.191 361.364,264.554 362.066,264.645C362.531,264.705 362.978,264.616 363.408,264.378C363.837,264.139 364.231,263.807 364.59,263.381C364.949,262.954 365.251,262.484 365.495,261.969C365.739,261.455 365.903,260.946 365.989,260.442L366.411,258.118C366.359,257.785 366.177,257.478 365.867,257.196C365.558,256.904 365.145,256.725 364.628,256.658C364.019,256.579 363.464,256.686 362.965,256.978C362.467,257.26 362.033,257.656 361.664,258.165C361.296,258.663 360.996,259.202 360.765,259.781C360.545,260.352 360.403,260.89 360.338,261.396ZM379.564,261.554C379.32,261.491 379.161,261.381 379.086,261.224C379.022,261.069 379,260.909 379.021,260.743L380.567,260.975C381.795,261.144 382.767,261.018 383.482,260.596C384.208,260.175 384.65,259.503 384.81,258.578C384.933,257.943 384.864,257.377 384.601,256.881C384.34,256.375 383.936,255.96 383.389,255.637C382.844,255.304 382.194,255.088 381.44,254.991L378.868,254.658C379.147,254.694 379.322,254.8 379.394,254.978C379.467,255.145 379.493,255.316 379.47,255.492C379.458,255.669 379.449,255.783 379.442,255.835L377.62,265.808C377.557,266.22 377.655,266.517 377.916,266.697C378.176,266.878 378.448,267.013 378.731,267.102C378.864,267.13 378.925,267.222 378.916,267.378C378.908,267.524 378.79,267.583 378.563,267.553L374.859,267.074C374.694,267.052 374.61,266.973 374.606,266.836C374.613,266.7 374.691,266.621 374.841,266.599C375.182,266.559 375.485,266.493 375.749,266.401C376.024,266.3 376.198,266.044 376.272,265.634L378.071,255.72C378.13,255.423 378.066,255.179 377.881,254.987C377.695,254.795 377.468,254.639 377.2,254.52C376.943,254.393 376.72,254.285 376.532,254.198C376.403,254.139 376.359,254.028 376.401,253.865C376.443,253.703 376.577,253.636 376.805,253.666L381.562,254.282C382.843,254.448 383.847,254.767 384.574,255.239C385.313,255.702 385.816,256.245 386.084,256.868C386.361,257.492 386.438,258.127 386.313,258.773C386.199,259.42 385.921,259.998 385.478,260.508C385.035,261.018 384.431,261.391 383.665,261.628C382.912,261.856 382.004,261.896 380.941,261.748L379.564,261.554ZM390.211,268.242C390.743,268.353 391.226,268.353 391.661,268.241C392.107,268.12 392.491,267.944 392.815,267.713C393.149,267.483 393.397,267.268 393.558,267.069C393.635,266.963 393.752,266.91 393.91,266.909C394.068,266.899 394.193,266.951 394.283,267.068C394.225,267.197 394.094,267.396 393.892,267.663C393.702,267.922 393.432,268.187 393.082,268.457C392.733,268.727 392.302,268.939 391.788,269.093C391.286,269.248 390.709,269.284 390.058,269.199C389.2,269.088 388.455,268.798 387.822,268.327C387.201,267.847 386.743,267.237 386.449,266.495C386.167,265.744 386.092,264.926 386.226,264.04C386.367,263.186 386.645,262.445 387.061,261.816C387.479,261.177 387.975,260.658 388.551,260.26C389.138,259.853 389.758,259.565 390.409,259.398C391.071,259.231 391.702,259.187 392.301,259.265C392.869,259.338 393.322,259.491 393.66,259.724C394.009,259.948 394.271,260.202 394.445,260.487C394.63,260.764 394.748,261.031 394.799,261.29C394.862,261.539 394.883,261.747 394.861,261.912C394.796,262.429 394.569,262.888 394.182,263.289C393.806,263.682 393.324,264.003 392.736,264.252C392.158,264.503 391.523,264.668 390.83,264.746C390.148,264.826 389.466,264.822 388.784,264.733C388.536,264.701 388.38,264.613 388.314,264.467C388.26,264.313 388.262,264.177 388.319,264.059C388.804,264.121 389.33,264.116 389.896,264.042C390.472,263.97 391.025,263.836 391.554,263.642C392.082,263.448 392.522,263.211 392.873,262.931C393.225,262.64 393.423,262.319 393.468,261.968C393.533,261.462 393.43,261.034 393.159,260.683C392.889,260.333 392.502,260.115 391.998,260.029C391.318,259.93 390.683,260.053 390.093,260.397C389.503,260.74 389,261.227 388.584,261.856C388.178,262.486 387.904,263.191 387.763,263.971C387.645,264.649 387.658,265.286 387.803,265.882C387.958,266.48 388.234,266.989 388.632,267.408C389.041,267.828 389.567,268.106 390.211,268.242ZM398.988,270.356C398.471,270.289 397.963,270.071 397.464,269.702C396.967,269.322 396.57,268.809 396.275,268.161C395.991,267.505 395.906,266.727 396.021,265.828C396.106,265.156 396.307,264.484 396.624,263.811C396.951,263.139 397.369,262.536 397.878,262.004C398.398,261.472 398.99,261.071 399.654,260.8C400.33,260.52 401.06,260.441 401.842,260.563C402.244,260.626 402.565,260.746 402.804,260.924C403.045,261.092 403.219,261.251 403.326,261.401C403.414,261.539 403.46,261.671 403.465,261.797C403.48,261.925 403.388,262.029 403.189,262.108C403.069,261.893 402.876,261.721 402.609,261.592C402.352,261.464 402.09,261.383 401.821,261.348C401.17,261.264 400.59,261.367 400.08,261.658C399.572,261.939 399.134,262.324 398.768,262.812C398.401,263.3 398.109,263.819 397.892,264.369C397.687,264.909 397.556,265.402 397.499,265.846C397.421,266.456 397.438,267.025 397.549,267.554C397.661,268.073 397.869,268.504 398.172,268.848C398.486,269.183 398.886,269.382 399.371,269.444C399.836,269.505 400.287,269.432 400.722,269.225C401.158,269.019 401.558,268.73 401.92,268.356C402.283,267.983 402.586,267.581 402.83,267.151C403.074,266.72 403.226,266.309 403.286,265.918L404.582,258.098C404.564,258.074 404.529,258.065 404.476,258.068C404.433,258.073 404.341,258.098 404.198,258.143C403.636,258.353 403.204,258.245 402.901,257.817C403.136,257.7 403.428,257.554 403.776,257.379C404.125,257.193 404.451,257.025 404.754,256.875C405.067,256.727 405.271,256.648 405.367,256.64C405.562,256.591 405.722,256.612 405.847,256.702C405.973,256.781 406.02,256.908 405.987,257.082L403.979,269.253C403.948,269.417 403.954,269.576 403.998,269.728C404.043,269.871 404.168,269.955 404.375,269.982C404.509,269.999 404.687,269.965 404.908,269.878C405.141,269.782 405.354,269.636 405.547,269.44C405.62,269.356 405.702,269.335 405.791,269.378C405.881,269.41 405.907,269.492 405.87,269.624C405.734,270.027 405.458,270.38 405.042,270.683C404.635,270.987 404.184,271.107 403.688,271.043C403.296,270.992 403.013,270.824 402.839,270.539C402.676,270.256 402.62,269.954 402.671,269.635L402.938,268.031C402.697,268.441 402.373,268.84 401.966,269.229C401.571,269.608 401.123,269.913 400.621,270.142C400.121,270.361 399.576,270.432 398.988,270.356ZM409.864,271.843C409.306,271.771 408.794,271.547 408.327,271.171C407.861,270.796 407.505,270.288 407.261,269.647C407.018,269.006 406.949,268.267 407.056,267.43C407.152,266.676 407.379,265.965 407.737,265.297C408.107,264.62 408.566,264.028 409.113,263.521C409.673,263.006 410.289,262.618 410.963,262.359C411.638,262.089 412.342,262.002 413.075,262.097C413.819,262.193 414.423,262.397 414.887,262.709C415.362,263.023 415.684,263.296 415.854,263.528L414.695,270.641C414.664,270.805 414.67,270.963 414.714,271.116C414.759,271.258 414.884,271.343 415.091,271.37C415.225,271.387 415.403,271.352 415.624,271.265C415.846,271.168 416.054,271.022 416.247,270.826C416.321,270.741 416.402,270.72 416.491,270.763C416.592,270.797 416.623,270.88 416.586,271.012C416.45,271.414 416.174,271.767 415.758,272.07C415.351,272.375 414.905,272.496 414.42,272.433C414.017,272.381 413.729,272.212 413.555,271.927C413.392,271.643 413.341,271.343 413.402,271.025L413.744,268.958C413.535,269.446 413.238,269.927 412.851,270.402C412.465,270.877 412.018,271.255 411.51,271.536C411.002,271.817 410.453,271.919 409.864,271.843ZM408.51,267.634C408.447,268.13 408.464,268.616 408.561,269.09C408.668,269.566 408.863,269.975 409.145,270.316C409.428,270.647 409.797,270.842 410.252,270.901C410.665,270.954 411.076,270.86 411.485,270.619C411.895,270.368 412.28,270.029 412.638,269.603C412.999,269.166 413.306,268.686 413.562,268.162C413.818,267.639 413.988,267.125 414.074,266.622L414.376,264.865C414.425,264.65 414.447,264.475 414.443,264.338C414.44,264.201 414.409,264.076 414.349,263.963C414.235,263.707 414.034,263.471 413.747,263.255C413.469,263.04 413.14,262.908 412.758,262.859C412.2,262.787 411.672,262.892 411.174,263.174C410.687,263.447 410.255,263.832 409.877,264.329C409.51,264.817 409.205,265.356 408.962,265.944C408.731,266.523 408.58,267.087 408.51,267.634ZM425.436,271.78C425.243,272.963 424.942,274.006 424.533,274.908C424.123,275.822 423.568,276.506 422.87,276.962C422.17,277.428 421.267,277.589 420.162,277.446C419.521,277.363 418.965,277.192 418.495,276.931C418.034,276.672 417.672,276.383 417.408,276.065C417.153,275.759 417.008,275.494 416.974,275.269C416.946,275.076 417.01,274.901 417.167,274.742C417.324,274.584 417.553,274.477 417.854,274.422C418.036,274.393 418.199,274.388 418.344,274.406C418.497,274.437 418.594,274.507 418.632,274.617C418.691,274.73 418.703,274.847 418.666,274.968C418.63,275.089 418.584,275.199 418.53,275.297C418.529,275.381 418.585,275.525 418.695,275.728C418.816,275.933 419.011,276.131 419.281,276.324C419.561,276.518 419.923,276.643 420.367,276.701C420.966,276.778 421.481,276.693 421.912,276.444C422.353,276.196 422.719,275.834 423.011,275.357C423.312,274.892 423.556,274.378 423.743,273.814C423.931,273.25 424.065,272.695 424.145,272.148L424.499,269.988C424.357,270.359 424.161,270.743 423.911,271.141C423.672,271.53 423.384,271.892 423.048,272.227C422.723,272.552 422.344,272.808 421.91,272.993C421.479,273.168 421.01,273.223 420.503,273.158C419.935,273.084 419.429,272.856 418.984,272.473C418.539,272.089 418.205,271.584 417.98,270.956C417.766,270.33 417.71,269.619 417.811,268.823C417.899,268.131 418.107,267.449 418.434,266.777C418.773,266.096 419.202,265.49 419.721,264.958C420.242,264.416 420.829,264.009 421.484,263.737C422.139,263.454 422.844,263.362 423.598,263.459C424.414,263.565 425.065,263.775 425.55,264.09C426.045,264.406 426.378,264.68 426.547,264.913L425.436,271.78ZM419.095,269.005C418.993,269.811 419.079,270.531 419.355,271.166C419.632,271.8 420.121,272.163 420.823,272.254C421.288,272.314 421.735,272.225 422.165,271.986C422.594,271.748 422.988,271.416 423.347,270.989C423.706,270.563 424.008,270.093 424.252,269.578C424.496,269.064 424.66,268.555 424.746,268.051L425.168,265.726C425.116,265.394 424.934,265.087 424.624,264.805C424.314,264.513 423.902,264.334 423.385,264.267C422.776,264.188 422.221,264.295 421.722,264.587C421.224,264.869 420.79,265.265 420.421,265.773C420.053,266.272 419.753,266.811 419.522,267.39C419.302,267.96 419.16,268.499 419.095,269.005ZM431.301,274.54C430.516,274.439 429.824,274.139 429.226,273.641C428.639,273.135 428.224,272.482 427.979,271.684C427.736,270.875 427.713,269.984 427.91,269.012C428.129,268.032 428.509,267.199 429.048,266.512C429.597,265.827 430.249,265.324 431.004,265.001C431.761,264.669 432.568,264.558 433.425,264.669C434.21,264.77 434.896,265.075 435.483,265.581C436.071,266.077 436.498,266.721 436.765,267.512C437.042,268.304 437.07,269.19 436.851,270.17C436.654,271.142 436.274,271.981 435.711,272.685C435.161,273.38 434.502,273.894 433.735,274.225C432.97,274.546 432.158,274.651 431.301,274.54ZM429.289,269.191C429.171,269.953 429.184,270.674 429.328,271.354C429.484,272.026 429.76,272.581 430.156,273.021C430.551,273.461 431.048,273.72 431.648,273.797C432.247,273.875 432.808,273.753 433.332,273.433C433.866,273.113 434.324,272.652 434.705,272.051C435.088,271.438 435.338,270.751 435.456,269.989C435.597,269.22 435.588,268.504 435.431,267.843C435.273,267.182 434.997,266.632 434.602,266.192C434.216,265.753 433.724,265.495 433.125,265.418C432.526,265.34 431.959,265.461 431.425,265.78C430.891,266.1 430.434,266.555 430.054,267.147C429.684,267.74 429.429,268.421 429.289,269.191ZM445.893,274.429C445.7,275.612 445.399,276.655 444.99,277.558C444.58,278.471 444.025,279.155 443.327,279.611C442.627,280.077 441.724,280.238 440.619,280.095C439.978,280.012 439.423,279.841 438.952,279.58C438.491,279.321 438.129,279.032 437.865,278.715C437.61,278.409 437.465,278.143 437.431,277.918C437.403,277.725 437.467,277.55 437.624,277.391C437.781,277.233 438.01,277.126 438.311,277.071C438.493,277.042 438.656,277.037 438.801,277.055C438.955,277.086 439.051,277.156 439.089,277.266C439.148,277.379 439.16,277.496 439.123,277.617C439.087,277.738 439.041,277.848 438.987,277.946C438.987,278.03 439.042,278.174 439.152,278.377C439.273,278.582 439.469,278.78 439.738,278.973C440.018,279.167 440.38,279.292 440.824,279.35C441.423,279.427 441.938,279.342 442.369,279.093C442.81,278.846 443.176,278.483 443.468,278.006C443.769,277.541 444.013,277.027 444.201,276.463C444.388,275.899 444.522,275.344 444.602,274.797L444.956,272.637C444.814,273.008 444.618,273.392 444.368,273.79C444.129,274.179 443.842,274.541 443.505,274.876C443.18,275.201 442.801,275.457 442.368,275.642C441.936,275.818 441.467,275.872 440.961,275.807C440.392,275.733 439.886,275.505 439.441,275.122C438.997,274.738 438.662,274.233 438.437,273.605C438.223,272.979 438.167,272.268 438.268,271.472C438.357,270.78 438.564,270.098 438.891,269.426C439.23,268.745 439.659,268.139 440.179,267.607C440.699,267.065 441.287,266.658 441.941,266.386C442.596,266.103 443.301,266.011 444.055,266.108C444.871,266.214 445.522,266.424 446.007,266.739C446.502,267.055 446.835,267.33 447.005,267.562L445.893,274.429ZM439.552,271.654C439.45,272.46 439.536,273.18 439.813,273.815C440.089,274.449 440.578,274.812 441.281,274.903C441.745,274.963 442.193,274.874 442.622,274.636C443.051,274.397 443.446,274.065 443.804,273.638C444.163,273.212 444.465,272.742 444.709,272.227C444.953,271.713 445.118,271.204 445.203,270.7L445.625,268.376C445.573,268.043 445.392,267.736 445.081,267.454C444.772,267.162 444.359,266.983 443.842,266.916C443.233,266.837 442.678,266.944 442.179,267.236C441.681,267.518 441.247,267.914 440.878,268.423C440.51,268.921 440.21,269.46 439.979,270.039C439.759,270.61 439.617,271.148 439.552,271.654ZM455.873,271.325C456.181,270.473 456.288,269.756 456.194,269.177C456.147,269.129 456.063,269.092 455.94,269.065C455.828,269.04 455.718,268.995 455.611,268.928C455.527,268.844 455.499,268.735 455.527,268.602C455.564,268.471 455.636,268.359 455.742,268.268C455.897,268.13 456.104,268.026 456.365,267.954C456.638,267.874 456.882,267.853 457.098,267.892C457.315,267.92 457.436,268.041 457.461,268.254C457.511,268.523 457.518,268.876 457.484,269.313C457.45,269.739 457.393,270.188 457.312,270.661C457.242,271.125 457.155,271.565 457.049,271.982C456.786,272.977 456.472,273.955 456.108,274.917C455.745,275.867 455.248,276.801 454.617,277.717C453.919,278.74 453.152,279.57 452.315,280.208C451.478,280.845 450.58,281.133 449.621,281.072C449.058,281.041 448.544,280.875 448.078,280.573C447.623,280.272 447.339,279.905 447.227,279.47C447.188,279.276 447.221,279.102 447.325,278.947C447.437,278.804 447.605,278.684 447.827,278.587C448.071,278.492 448.295,278.463 448.5,278.501C448.714,278.549 448.843,278.65 448.887,278.803C448.897,278.888 448.891,278.977 448.869,279.068C448.847,279.16 448.815,279.245 448.773,279.324C448.775,279.555 448.869,279.767 449.054,279.959C449.25,280.152 449.541,280.258 449.928,280.277C450.333,280.308 450.734,280.208 451.132,279.976C451.538,279.755 451.922,279.458 452.285,279.085C452.646,278.722 452.972,278.344 453.264,277.952C453.743,277.32 454.158,276.66 454.509,275.97C454.871,275.271 455.13,274.68 455.286,274.196L455.217,274.124C455.026,274.467 454.752,274.841 454.396,275.246C454.04,275.652 453.661,276.033 453.258,276.391C452.866,276.75 452.5,277.028 452.159,277.226C452.044,277.305 451.916,277.32 451.776,277.27C451.634,277.231 451.553,277.163 451.534,277.066L449.884,268.754C449.853,268.75 449.81,268.755 449.756,268.769C449.712,268.784 449.642,268.838 449.546,268.931C449.429,269.031 449.266,269.11 449.06,269.167C448.864,269.215 448.651,269.156 448.421,268.99C448.602,268.803 448.814,268.584 449.056,268.331C449.308,268.081 449.547,267.854 449.772,267.652C449.999,267.44 450.159,267.298 450.252,267.226C450.415,267.1 450.56,267.072 450.688,267.141C450.828,267.201 450.918,267.312 450.961,267.475L452.511,276.074C453.001,275.685 453.464,275.231 453.898,274.709C454.333,274.177 454.724,273.624 455.07,273.049C455.428,272.465 455.696,271.891 455.873,271.325ZM464.476,278.631C464.363,278.617 464.286,278.56 464.246,278.46C464.213,278.392 464.218,278.309 464.262,278.21C464.306,278.111 464.391,278.064 464.516,278.069C464.938,278.061 465.319,277.99 465.662,277.855C466.006,277.711 466.209,277.438 466.271,277.036L468.107,266.954C468.139,266.78 468.082,266.615 467.934,266.459C467.796,266.305 467.629,266.173 467.433,266.063C467.238,265.944 467.064,265.863 466.912,265.823C466.731,265.757 466.677,265.645 466.75,265.487C466.783,265.396 466.841,265.351 466.925,265.352C467.009,265.352 467.077,265.355 467.128,265.362L476.224,266.54C476.4,266.563 476.519,266.615 476.582,266.697C476.645,266.778 476.658,266.927 476.62,267.143L476.235,269.173C476.231,269.204 476.22,269.255 476.2,269.326C476.18,269.397 476.132,269.448 476.054,269.48C475.978,269.502 475.906,269.492 475.837,269.452C475.781,269.403 475.739,269.355 475.714,269.31C475.663,268.715 475.579,268.268 475.459,267.969C475.341,267.66 475.127,267.443 474.818,267.319C474.508,267.195 474.043,267.093 473.423,267.012L468.976,266.436C469.197,266.518 469.34,266.631 469.405,266.776C469.471,266.921 469.483,267.069 469.443,267.222L468.585,271.979L471.296,272.33C471.72,272.385 472.069,272.367 472.343,272.277C472.627,272.187 472.872,271.993 473.079,271.694C473.18,271.56 473.299,271.529 473.437,271.599C473.517,271.63 473.558,271.683 473.559,271.757C473.561,271.82 473.559,271.877 473.553,271.929L473.156,274.052C473.15,274.104 473.137,274.165 473.117,274.236C473.099,274.297 473.046,274.337 472.96,274.357C472.809,274.39 472.701,274.329 472.637,274.174C472.431,273.559 471.926,273.199 471.12,273.095L468.439,272.748L467.634,277.213C467.559,277.634 467.671,277.953 467.969,278.17C468.268,278.377 468.6,278.535 468.964,278.645C469.066,278.669 469.131,278.73 469.161,278.828C469.192,278.916 469.191,279 469.16,279.08C469.106,279.178 468.986,279.215 468.8,279.191L464.476,278.631ZM478.861,280.699C478.076,280.597 477.384,280.298 476.786,279.8C476.2,279.294 475.784,278.641 475.539,277.843C475.296,277.034 475.273,276.143 475.47,275.171C475.69,274.191 476.069,273.358 476.608,272.671C477.157,271.986 477.81,271.482 478.565,271.16C479.321,270.827 480.128,270.717 480.986,270.828C481.771,270.929 482.456,271.233 483.043,271.74C483.631,272.236 484.058,272.88 484.325,273.671C484.602,274.463 484.631,275.349 484.411,276.329C484.214,277.301 483.834,278.139 483.272,278.844C482.721,279.539 482.062,280.053 481.295,280.384C480.53,280.705 479.719,280.81 478.861,280.699ZM476.849,275.35C476.731,276.112 476.744,276.833 476.889,277.513C477.045,278.185 477.32,278.74 477.716,279.18C478.111,279.62 478.609,279.879 479.208,279.956C479.807,280.034 480.369,279.912 480.892,279.591C481.427,279.272 481.884,278.811 482.266,278.209C482.648,277.597 482.899,276.91 483.017,276.148C483.157,275.379 483.148,274.663 482.991,274.002C482.834,273.341 482.557,272.791 482.162,272.351C481.777,271.912 481.285,271.654 480.685,271.577C480.086,271.499 479.519,271.62 478.985,271.939C478.451,272.259 477.994,272.714 477.614,273.306C477.244,273.899 476.99,274.58 476.849,275.35ZM486.077,272.984C486.322,272.868 486.619,272.723 486.967,272.548C487.315,272.372 487.64,272.209 487.943,272.059C488.256,271.911 488.461,271.827 488.558,271.808C488.751,271.77 488.916,271.797 489.051,271.888C489.197,271.98 489.249,272.108 489.207,272.27L488.363,277.045C488.678,276.057 489.088,275.222 489.595,274.542C490.112,273.863 490.641,273.338 491.182,272.967C491.733,272.598 492.201,272.385 492.586,272.33C492.758,272.3 492.887,272.316 492.974,272.38C493.072,272.435 493.17,272.526 493.27,272.655C493.445,272.929 493.517,273.222 493.488,273.534C493.471,273.836 493.325,273.991 493.051,273.997C492.957,273.995 492.865,273.973 492.776,273.93C492.698,273.888 492.629,273.848 492.571,273.809C492.245,273.735 491.844,273.83 491.369,274.094C490.905,274.36 490.43,274.792 489.944,275.391C489.47,275.981 489.028,276.727 488.619,277.63C488.21,278.533 487.902,279.585 487.697,280.788C487.641,281.138 487.512,281.373 487.307,281.493C487.103,281.614 486.777,281.619 486.329,281.509L487.789,273.268C487.759,273.254 487.718,273.249 487.665,273.252C487.613,273.246 487.531,273.272 487.418,273.331C486.846,273.54 486.398,273.424 486.077,272.984ZM504.322,277.71C504.078,277.647 503.919,277.537 503.845,277.38C503.78,277.225 503.759,277.064 503.78,276.899L505.326,277.131C506.554,277.3 507.525,277.174 508.241,276.752C508.966,276.331 509.409,275.659 509.569,274.734C509.692,274.099 509.622,273.533 509.36,273.037C509.099,272.53 508.695,272.116 508.148,271.793C507.602,271.459 506.953,271.244 506.199,271.146L503.626,270.813C503.905,270.849 504.081,270.956 504.152,271.133C504.226,271.301 504.251,271.472 504.229,271.648C504.217,271.825 504.207,271.939 504.201,271.991L502.378,281.964C502.315,282.376 502.414,282.672 502.675,282.853C502.935,283.034 503.207,283.169 503.489,283.258C503.622,283.286 503.684,283.378 503.675,283.534C503.666,283.68 503.549,283.738 503.322,283.709L499.618,283.229C499.453,283.208 499.368,283.129 499.365,282.992C499.372,282.856 499.45,282.777 499.6,282.754C499.941,282.715 500.243,282.649 500.507,282.557C500.783,282.456 500.957,282.2 501.03,281.789L502.829,271.876C502.888,271.579 502.825,271.334 502.639,271.142C502.454,270.95 502.227,270.795 501.958,270.676C501.702,270.548 501.479,270.441 501.291,270.353C501.162,270.295 501.118,270.184 501.16,270.021C501.201,269.859 501.336,269.792 501.563,269.821L506.32,270.437C507.601,270.603 508.606,270.922 509.333,271.395C510.072,271.858 510.575,272.401 510.842,273.024C511.12,273.648 511.196,274.283 511.072,274.929C510.958,275.575 510.679,276.154 510.237,276.664C509.793,277.174 509.189,277.547 508.424,277.784C507.67,278.012 506.762,278.052 505.7,277.904L504.322,277.71ZM514.97,284.398C515.502,284.509 515.985,284.509 516.419,284.397C516.865,284.276 517.25,284.1 517.573,283.869C517.907,283.639 518.155,283.424 518.317,283.225C518.394,283.119 518.511,283.066 518.668,283.065C518.827,283.054 518.952,283.107 519.042,283.224C518.983,283.353 518.853,283.551 518.651,283.819C518.46,284.078 518.19,284.343 517.841,284.612C517.491,284.882 517.06,285.094 516.547,285.248C516.044,285.404 515.467,285.439 514.817,285.355C513.959,285.244 513.214,284.953 512.581,284.483C511.959,284.003 511.502,283.392 511.208,282.651C510.925,281.9 510.851,281.081 510.985,280.195C511.125,279.342 511.404,278.6 511.82,277.972C512.237,277.332 512.734,276.814 513.31,276.416C513.897,276.009 514.516,275.721 515.168,275.553C515.83,275.387 516.46,275.343 517.059,275.42C517.627,275.494 518.08,275.647 518.418,275.88C518.768,276.104 519.029,276.358 519.203,276.643C519.388,276.919 519.507,277.187 519.558,277.445C519.62,277.695 519.641,277.903 519.62,278.068C519.554,278.585 519.328,279.044 518.941,279.445C518.565,279.838 518.083,280.159 517.495,280.408C516.917,280.659 516.281,280.823 515.589,280.902C514.907,280.982 514.225,280.977 513.543,280.889C513.295,280.857 513.138,280.768 513.073,280.623C513.019,280.469 513.02,280.333 513.078,280.214C513.563,280.277 514.089,280.272 514.655,280.198C515.231,280.125 515.784,279.992 516.312,279.798C516.841,279.604 517.281,279.367 517.632,279.087C517.984,278.796 518.182,278.475 518.227,278.124C518.291,277.618 518.188,277.189 517.918,276.839C517.648,276.489 517.261,276.271 516.757,276.185C516.077,276.086 515.441,276.209 514.852,276.552C514.262,276.896 513.759,277.382 513.343,278.011C512.937,278.641 512.663,279.347 512.522,280.126C512.404,280.804 512.417,281.442 512.562,282.038C512.716,282.636 512.993,283.144 513.391,283.563C513.799,283.984 514.326,284.262 514.97,284.398ZM521.003,277.507C521.249,277.391 521.546,277.246 521.894,277.07C522.242,276.895 522.567,276.732 522.869,276.582C523.182,276.434 523.387,276.35 523.484,276.331C523.678,276.293 523.843,276.32 523.978,276.411C524.124,276.503 524.176,276.631 524.134,276.793L523.289,281.568C523.604,280.58 524.015,279.745 524.522,279.065C525.039,278.386 525.568,277.861 526.109,277.49C526.66,277.12 527.128,276.908 527.513,276.853C527.685,276.822 527.814,276.839 527.901,276.903C527.999,276.958 528.097,277.049 528.196,277.178C528.371,277.452 528.444,277.745 528.415,278.057C528.397,278.359 528.252,278.513 527.978,278.52C527.884,278.518 527.792,278.496 527.703,278.453C527.624,278.411 527.556,278.371 527.498,278.332C527.171,278.258 526.771,278.353 526.296,278.617C525.832,278.883 525.356,279.315 524.871,279.914C524.396,280.504 523.955,281.25 523.546,282.153C523.137,283.056 522.829,284.108 522.623,285.31C522.568,285.66 522.439,285.896 522.234,286.016C522.03,286.137 521.704,286.142 521.256,286.031L522.715,277.791C522.686,277.777 522.644,277.772 522.591,277.775C522.54,277.769 522.458,277.795 522.345,277.854C521.772,278.063 521.325,277.947 521.003,277.507ZM529.973,289.492L529.804,290.447C529.745,290.828 529.621,291.101 529.432,291.265C529.242,291.44 528.887,291.468 528.366,291.348L530.067,281.217C529.568,281.835 529.151,282.511 528.816,283.245C528.734,283.234 528.652,283.176 528.571,283.071C528.491,282.956 528.504,282.769 528.611,282.509C528.81,282.02 529.047,281.557 529.323,281.121C529.611,280.675 529.931,280.27 530.281,279.905L530.606,277.978C530.648,277.647 530.813,277.427 531.1,277.317C531.397,277.209 531.661,277.238 531.892,277.404L531.689,278.749C532.275,278.352 532.872,278.077 533.479,277.925C534.097,277.774 534.67,277.769 535.198,277.911C535.942,278.091 536.53,278.462 536.962,279.022C537.396,279.572 537.669,280.232 537.781,281.003C537.903,281.775 537.857,282.588 537.643,283.443C537.465,284.186 537.157,284.866 536.722,285.482C536.297,286.099 535.802,286.602 535.238,286.991C534.675,287.37 534.089,287.604 533.479,287.693C533.095,287.738 532.663,287.708 532.183,287.604C531.712,287.511 531.335,287.337 531.053,287.079C530.912,286.946 530.854,286.823 530.879,286.71C530.916,286.589 530.958,286.505 531.006,286.459C531.318,286.73 531.711,286.897 532.186,286.958C532.672,287.021 533.166,286.933 533.669,286.694C534.203,286.458 534.694,286.07 535.141,285.529C535.598,284.99 535.94,284.325 536.167,283.535C536.365,282.804 536.436,282.12 536.381,281.483C536.327,280.835 536.16,280.289 535.881,279.843C535.603,279.387 535.217,279.084 534.721,278.936C534.258,278.782 533.742,278.789 533.175,278.957C532.619,279.116 532.062,279.406 531.504,279.827L529.973,289.492ZM543.111,288.042C543.643,288.153 544.126,288.153 544.56,288.041C545.006,287.92 545.391,287.744 545.715,287.513C546.048,287.283 546.296,287.068 546.458,286.869C546.535,286.763 546.652,286.71 546.809,286.709C546.968,286.698 547.093,286.751 547.183,286.868C547.124,286.997 546.994,287.195 546.792,287.463C546.601,287.722 546.331,287.987 545.982,288.257C545.633,288.526 545.201,288.738 544.688,288.893C544.185,289.048 543.608,289.084 542.958,288.999C542.1,288.888 541.355,288.597 540.722,288.127C540.1,287.647 539.643,287.036 539.349,286.295C539.066,285.544 538.992,284.725 539.126,283.84C539.266,282.986 539.545,282.245 539.961,281.616C540.378,280.977 540.875,280.458 541.451,280.06C542.038,279.653 542.658,279.365 543.309,279.198C543.971,279.031 544.601,278.987 545.2,279.064C545.769,279.138 546.222,279.291 546.56,279.524C546.909,279.748 547.171,280.002 547.344,280.287C547.53,280.563 547.648,280.831 547.699,281.09C547.762,281.339 547.782,281.547 547.761,281.712C547.695,282.229 547.469,282.688 547.082,283.089C546.706,283.482 546.224,283.803 545.636,284.052C545.058,284.303 544.423,284.468 543.73,284.546C543.048,284.626 542.366,284.621 541.684,284.533C541.436,284.501 541.279,284.412 541.214,284.267C541.16,284.113 541.161,283.977 541.219,283.858C541.704,283.921 542.23,283.916 542.796,283.842C543.372,283.77 543.925,283.636 544.453,283.442C544.982,283.248 545.422,283.011 545.773,282.731C546.125,282.44 546.323,282.119 546.368,281.768C546.433,281.262 546.33,280.833 546.059,280.483C545.789,280.133 545.402,279.915 544.898,279.829C544.218,279.73 543.583,279.853 542.993,280.197C542.403,280.54 541.9,281.027 541.484,281.655C541.078,282.286 540.804,282.991 540.663,283.771C540.545,284.449 540.558,285.086 540.703,285.682C540.858,286.28 541.134,286.788 541.532,287.208C541.941,287.628 542.467,287.906 543.111,288.042ZM549.861,287.64C549.861,287.64 550.987,281.027 550.987,281.027C550.697,281 550.473,280.987 550.315,280.987C550.157,280.988 550.009,281 549.869,281.024C549.664,281.071 549.534,281.138 549.481,281.226C549.42,281.291 549.34,281.307 549.239,281.273C549.15,281.23 549.119,281.142 549.147,281.009L549.323,280.244C549.372,280.104 549.48,280.044 549.645,280.065L551.133,280.258L551.451,278.377C551.502,278.058 551.628,277.812 551.829,277.638C552.029,277.465 552.365,277.424 552.837,277.517L552.341,280.415L554.728,280.724C554.913,280.748 554.982,280.83 554.932,280.971L554.756,281.736C554.729,281.869 554.666,281.945 554.57,281.963C554.484,281.973 554.42,281.939 554.378,281.86C554.348,281.762 554.235,281.663 554.038,281.564C553.88,281.48 553.683,281.418 553.447,281.377C553.223,281.327 552.811,281.263 552.211,281.185L551.127,287.473C551.043,287.967 551.084,288.34 551.252,288.592C551.42,288.835 551.653,288.986 551.95,289.045C552.269,289.097 552.586,289.08 552.902,288.995C553.218,288.899 553.505,288.753 553.761,288.555C553.854,288.483 553.953,288.49 554.057,288.578C554.163,288.654 554.182,288.756 554.113,288.884C553.883,289.285 553.516,289.61 553.012,289.86C552.509,290.1 551.989,290.185 551.451,290.115C551.203,290.083 550.932,289.985 550.638,289.821C550.346,289.646 550.117,289.38 549.953,289.023C549.788,288.665 549.758,288.205 549.861,287.64ZM558.347,291.071C558.027,291.029 557.7,290.914 557.367,290.723C557.045,290.535 556.798,290.245 556.627,289.856C556.456,289.466 556.432,288.953 556.555,288.318L557.647,282.472C557.628,282.459 557.592,282.455 557.539,282.458C557.487,282.452 557.389,282.476 557.246,282.531C556.683,282.741 556.251,282.633 555.948,282.205C556.195,282.08 556.493,281.929 556.841,281.753C557.189,281.578 557.514,281.415 557.817,281.265C558.119,281.115 558.319,281.031 558.416,281.012C558.61,280.974 558.769,281 558.894,281.09C559.03,281.181 559.081,281.314 559.048,281.488L557.766,288.459C557.708,288.83 557.781,289.165 557.984,289.464C558.188,289.764 558.521,289.949 558.985,290.019C559.572,290.106 560.215,289.921 560.914,289.465C561.624,289.001 562.241,288.203 562.763,287.074C562.854,286.854 562.948,286.567 563.046,286.212C563.143,285.857 563.22,285.542 563.277,285.265L563.738,282.757C563.813,282.336 563.95,282.044 564.149,281.881C564.359,281.719 564.687,281.693 565.135,281.803L563.767,289.945C563.736,290.109 563.736,290.267 563.77,290.418C563.815,290.561 563.945,290.646 564.162,290.674C564.297,290.691 564.474,290.656 564.695,290.57C564.928,290.474 565.141,290.328 565.334,290.132C565.408,290.047 565.489,290.026 565.578,290.069C565.669,290.102 565.695,290.184 565.657,290.316C565.522,290.719 565.246,291.071 564.829,291.375C564.423,291.679 563.972,291.799 563.476,291.735C563.083,291.684 562.8,291.516 562.626,291.231C562.463,290.947 562.407,290.646 562.458,290.327L562.795,288.181C562.51,288.764 562.128,289.292 561.648,289.765C561.179,290.23 560.661,290.583 560.095,290.825C559.529,291.066 558.946,291.148 558.347,291.071ZM569.909,292.568C569.351,292.496 568.839,292.272 568.372,291.896C567.905,291.521 567.55,291.013 567.306,290.372C567.062,289.731 566.994,288.992 567.101,288.155C567.197,287.401 567.424,286.69 567.782,286.022C568.152,285.345 568.61,284.753 569.158,284.247C569.717,283.731 570.334,283.343 571.007,283.084C571.682,282.814 572.387,282.727 573.12,282.822C573.864,282.918 574.468,283.122 574.932,283.434C575.407,283.748 575.729,284.021 575.899,284.253L574.74,291.366C574.709,291.53 574.715,291.688 574.758,291.841C574.803,291.984 574.929,292.068 575.136,292.095C575.27,292.112 575.448,292.077 575.669,291.991C575.891,291.893 576.099,291.747 576.292,291.551C576.366,291.466 576.447,291.445 576.536,291.488C576.637,291.522 576.668,291.605 576.63,291.737C576.495,292.14 576.219,292.492 575.802,292.796C575.396,293.1 574.95,293.221 574.465,293.158C574.062,293.106 573.773,292.937 573.6,292.652C573.436,292.368 573.385,292.068 573.447,291.75L573.789,289.683C573.58,290.171 573.282,290.652 572.896,291.127C572.51,291.603 572.063,291.981 571.555,292.261C571.046,292.542 570.498,292.644 569.909,292.568ZM568.555,288.359C568.492,288.855 568.509,289.341 568.606,289.815C568.713,290.292 568.908,290.7 569.19,291.041C569.473,291.372 569.842,291.567 570.297,291.626C570.71,291.679 571.121,291.585 571.53,291.344C571.94,291.093 572.324,290.754 572.683,290.328C573.043,289.891 573.351,289.411 573.607,288.888C573.863,288.364 574.033,287.85 574.118,287.347L574.421,285.59C574.469,285.376 574.492,285.2 574.488,285.063C574.485,284.926 574.453,284.801 574.394,284.688C574.28,284.432 574.079,284.196 573.791,283.98C573.514,283.766 573.185,283.634 572.802,283.584C572.245,283.512 571.717,283.617 571.219,283.899C570.732,284.172 570.3,284.557 569.922,285.054C569.555,285.543 569.25,286.081 569.007,286.669C568.776,287.248 568.625,287.812 568.555,288.359ZM578.413,292.472C578.413,292.472 580.51,280.958 580.51,280.958C580.501,280.947 580.47,280.943 580.417,280.946C580.376,280.941 580.284,280.961 580.142,281.005C579.579,281.216 579.147,281.108 578.844,280.68C579.08,280.563 579.372,280.417 579.719,280.242C580.069,280.056 580.395,279.888 580.697,279.738C581.01,279.589 581.214,279.511 581.31,279.502C581.505,279.454 581.665,279.475 581.79,279.564C581.917,279.644 581.964,279.771 581.931,279.945L579.721,292.09C579.69,292.254 579.696,292.412 579.74,292.565C579.785,292.707 579.91,292.792 580.117,292.819C580.251,292.836 580.429,292.801 580.65,292.714C580.883,292.618 581.096,292.473 581.288,292.277C581.362,292.192 581.448,292.177 581.546,292.232C581.644,292.286 581.669,292.379 581.621,292.509C581.473,292.931 581.192,293.283 580.778,293.566C580.375,293.839 579.926,293.944 579.43,293.88C579.038,293.829 578.755,293.661 578.581,293.376C578.418,293.092 578.362,292.791 578.413,292.472ZM591.909,295.196C591.733,295.174 591.651,295.079 591.662,294.912C591.674,294.735 591.764,294.642 591.934,294.632C592.29,294.637 592.603,294.609 592.874,294.549C593.144,294.49 593.371,294.351 593.557,294.134C593.742,293.916 593.874,293.576 593.954,293.114L595.795,283.001L593.424,282.694C593.052,282.646 592.74,282.621 592.488,282.62C592.248,282.61 592.037,282.656 591.856,282.759C591.675,282.861 591.494,283.043 591.314,283.303C591.146,283.554 590.936,283.921 590.686,284.403C590.579,284.578 590.447,284.63 590.288,284.556C590.18,284.5 590.135,284.4 590.153,284.255L590.628,282.017C590.68,281.855 590.726,281.74 590.766,281.672C590.807,281.593 590.855,281.547 590.91,281.533C590.965,281.509 591.05,281.504 591.164,281.519C591.289,281.524 591.532,281.551 591.894,281.598C592.267,281.635 592.846,281.705 593.631,281.807L601.302,282.8C601.684,282.85 601.941,282.888 602.074,282.916C602.218,282.945 602.313,282.984 602.359,283.032C602.436,283.084 602.46,283.228 602.43,283.466L602.133,285.791C602.128,285.832 602.111,285.883 602.083,285.942C602.055,285.991 602.009,286.027 601.943,286.05C601.868,286.061 601.801,286.053 601.741,286.024C601.682,285.995 601.641,285.948 601.618,285.882C601.517,285.354 601.417,284.942 601.318,284.646C601.231,284.34 601.103,284.114 600.933,283.965C600.774,283.808 600.552,283.696 600.267,283.627C599.992,283.56 599.627,283.497 599.173,283.438L597.174,283.179L595.333,293.292C595.254,293.755 595.26,294.113 595.354,294.366C595.458,294.621 595.633,294.812 595.88,294.939C596.136,295.066 596.422,295.172 596.737,295.255C596.919,295.31 596.978,295.422 596.915,295.593C596.863,295.754 596.759,295.825 596.604,295.804L591.909,295.196ZM604.462,295.987C604.994,296.098 605.477,296.097 605.912,295.986C606.358,295.865 606.742,295.689 607.066,295.458C607.4,295.228 607.648,295.013 607.81,294.813C607.886,294.708 608.003,294.655 608.161,294.654C608.319,294.643 608.444,294.696 608.534,294.813C608.476,294.942 608.345,295.14 608.143,295.408C607.953,295.667 607.683,295.931 607.333,296.201C606.984,296.471 606.553,296.683 606.039,296.837C605.537,296.993 604.96,297.028 604.309,296.944C603.451,296.833 602.706,296.542 602.073,296.072C601.452,295.592 600.994,294.981 600.7,294.239C600.418,293.489 600.343,292.67 600.477,291.784C600.618,290.931 600.896,290.189 601.312,289.561C601.73,288.921 602.226,288.403 602.802,288.005C603.389,287.598 604.009,287.31 604.66,287.142C605.322,286.976 605.953,286.932 606.552,287.009C607.12,287.083 607.573,287.236 607.911,287.469C608.26,287.693 608.522,287.947 608.696,288.232C608.881,288.508 608.999,288.776 609.05,289.034C609.113,289.284 609.134,289.491 609.112,289.657C609.047,290.173 608.82,290.633 608.433,291.034C608.057,291.427 607.575,291.748 606.987,291.997C606.409,292.248 605.774,292.412 605.081,292.491C604.399,292.57 603.717,292.566 603.035,292.478C602.787,292.446 602.631,292.357 602.565,292.212C602.511,292.058 602.513,291.922 602.57,291.803C603.055,291.866 603.581,291.861 604.147,291.787C604.723,291.714 605.276,291.581 605.805,291.387C606.334,291.193 606.773,290.956 607.124,290.676C607.476,290.385 607.674,290.064 607.719,289.713C607.784,289.206 607.681,288.778 607.41,288.428C607.14,288.078 606.753,287.86 606.25,287.774C605.569,287.675 604.934,287.797 604.344,288.141C603.754,288.485 603.251,288.971 602.835,289.6C602.429,290.23 602.155,290.935 602.014,291.715C601.896,292.393 601.909,293.031 602.054,293.627C602.209,294.225 602.485,294.733 602.883,295.152C603.292,295.573 603.818,295.851 604.462,295.987ZM613.058,298.156C612.5,298.084 611.988,297.86 611.521,297.484C611.055,297.109 610.699,296.6 610.456,295.96C610.212,295.319 610.143,294.58 610.25,293.743C610.346,292.989 610.573,292.278 610.931,291.61C611.301,290.933 611.76,290.341 612.307,289.834C612.867,289.318 613.483,288.931 614.157,288.671C614.832,288.402 615.536,288.314 616.269,288.409C617.013,288.506 617.617,288.71 618.081,289.022C618.556,289.336 618.878,289.608 619.048,289.841L617.89,296.954C617.858,297.118 617.864,297.276 617.908,297.429C617.953,297.571 618.078,297.656 618.285,297.682C618.419,297.7 618.597,297.665 618.818,297.578C619.04,297.481 619.248,297.335 619.441,297.139C619.515,297.054 619.596,297.033 619.685,297.076C619.786,297.11 619.818,297.193 619.78,297.325C619.644,297.727 619.368,298.08 618.952,298.383C618.545,298.688 618.099,298.809 617.614,298.746C617.211,298.694 616.923,298.525 616.749,298.24C616.586,297.956 616.535,297.655 616.596,297.338L616.938,295.271C616.729,295.758 616.432,296.24 616.046,296.715C615.66,297.19 615.212,297.568 614.704,297.849C614.196,298.13 613.647,298.232 613.058,298.156ZM611.704,293.947C611.641,294.443 611.658,294.928 611.755,295.403C611.863,295.879 612.057,296.288 612.339,296.629C612.623,296.96 612.992,297.155 613.446,297.213C613.859,297.267 614.27,297.173 614.679,296.932C615.089,296.68 615.474,296.342 615.832,295.915C616.193,295.479 616.501,294.999 616.756,294.475C617.012,293.952 617.183,293.438 617.268,292.934L617.57,291.177C617.619,290.963 617.641,290.788 617.638,290.65C617.634,290.513 617.603,290.389 617.544,290.276C617.429,290.02 617.228,289.783 616.941,289.568C616.664,289.353 616.334,289.221 615.952,289.172C615.394,289.099 614.866,289.204 614.368,289.487C613.882,289.76 613.449,290.145 613.071,290.642C612.704,291.13 612.399,291.668 612.156,292.257C611.925,292.836 611.774,293.399 611.704,293.947ZM625.309,298.813C625.972,298.888 626.567,298.787 627.096,298.508C627.627,298.22 628.06,297.866 628.397,297.448C628.562,297.228 628.797,297.195 629.103,297.35C629.074,297.494 628.962,297.71 628.768,298C628.573,298.29 628.305,298.581 627.964,298.873C627.623,299.154 627.205,299.384 626.71,299.561C626.216,299.728 625.649,299.776 625.007,299.703C624.107,299.597 623.341,299.298 622.711,298.807C622.081,298.316 621.629,297.701 621.355,296.961C621.082,296.222 621.009,295.436 621.136,294.601C621.279,293.727 621.55,292.964 621.948,292.312C622.346,291.659 622.823,291.128 623.38,290.717C623.948,290.297 624.542,290.001 625.163,289.829C625.783,289.657 626.383,289.609 626.961,289.684C627.715,289.781 628.313,289.995 628.754,290.325C629.206,290.647 629.525,290.987 629.71,291.347C629.897,291.697 629.977,291.97 629.952,292.166C629.93,292.342 629.841,292.509 629.684,292.667C629.539,292.817 629.371,292.937 629.181,293.028C629.003,293.11 628.841,293.141 628.697,293.122C628.562,293.105 628.486,293.006 628.467,292.825C628.467,292.741 628.483,292.654 628.516,292.563C628.559,292.474 628.583,292.404 628.59,292.352C628.559,291.855 628.386,291.438 628.072,291.104C627.768,290.77 627.368,290.566 626.874,290.492C626.268,290.382 625.665,290.498 625.065,290.84C624.466,291.172 623.947,291.662 623.508,292.309C623.08,292.947 622.791,293.686 622.642,294.528C622.538,295.177 622.572,295.817 622.744,296.448C622.926,297.081 623.236,297.615 623.674,298.049C624.113,298.474 624.658,298.728 625.309,298.813ZM631.125,300.259C631.125,300.259 633.142,287.648 633.142,287.648C633.112,287.634 633.071,287.628 633.018,287.632C632.966,287.625 632.884,287.651 632.772,287.71C632.198,287.93 631.75,287.814 631.43,287.363C631.676,287.248 631.972,287.103 632.32,286.927C632.678,286.753 633.013,286.597 633.325,286.459C633.648,286.311 633.859,286.223 633.957,286.194C634.151,286.156 634.305,286.181 634.42,286.269C634.535,286.358 634.577,286.484 634.545,286.648L633.294,294.364C633.554,293.725 633.937,293.15 634.443,292.638C634.96,292.127 635.529,291.738 636.151,291.472C636.775,291.196 637.359,291.104 637.904,291.195C638.275,291.243 638.612,291.36 638.914,291.547C639.228,291.724 639.461,291.995 639.614,292.362C639.778,292.719 639.799,293.21 639.678,293.835L638.615,299.575C638.584,299.739 638.59,299.897 638.634,300.05C638.679,300.192 638.804,300.277 639.011,300.303C639.145,300.321 639.323,300.286 639.544,300.199C639.766,300.102 639.974,299.955 640.167,299.76C640.241,299.675 640.322,299.654 640.411,299.697C640.512,299.731 640.543,299.814 640.506,299.945C640.37,300.348 640.094,300.701 639.678,301.004C639.271,301.309 638.82,301.429 638.324,301.365C637.932,301.314 637.649,301.146 637.475,300.861C637.312,300.577 637.256,300.276 637.307,299.957L638.459,293.63C638.531,293.314 638.484,293.03 638.316,292.777C638.161,292.515 637.81,292.344 637.263,292.262C637.005,292.229 636.663,292.274 636.238,292.397C635.825,292.512 635.387,292.734 634.925,293.062C634.473,293.393 634.065,293.839 633.699,294.4C633.344,294.964 633.102,295.668 632.973,296.512L632.479,299.521C632.411,299.974 632.272,300.24 632.063,300.317C631.855,300.385 631.542,300.366 631.125,300.259ZM643.762,288.393C643.738,288.253 643.807,288.168 643.968,288.136C644.141,288.096 644.349,288.112 644.592,288.185C644.846,288.25 645.084,288.365 645.304,288.53C645.525,288.695 645.671,288.903 645.744,289.154C645.825,289.427 645.756,289.681 645.537,289.915C645.318,290.149 645.075,290.286 644.808,290.325C644.69,290.341 644.514,290.318 644.281,290.256C644.059,290.186 643.947,290.035 643.945,289.803C643.959,289.69 643.956,289.505 643.936,289.251C643.916,288.996 643.858,288.71 643.762,288.393ZM642.508,300.709C642.508,300.709 643.831,293.664 643.831,293.664C643.823,293.642 643.793,293.633 643.74,293.637C643.697,293.642 643.605,293.666 643.462,293.711C642.9,293.922 642.468,293.813 642.165,293.386C642.4,293.269 642.692,293.123 643.04,292.947C643.389,292.762 643.715,292.594 644.018,292.444C644.331,292.295 644.535,292.217 644.631,292.208C644.826,292.16 644.986,292.181 645.111,292.27C645.237,292.35 645.284,292.477 645.251,292.651L643.814,300.342C643.784,300.496 643.791,300.649 643.835,300.802C643.879,300.944 644.005,301.029 644.212,301.056C644.346,301.073 644.524,301.038 644.745,300.951C644.967,300.854 645.17,300.707 645.352,300.51C645.436,300.426 645.523,300.406 645.612,300.449C645.713,300.483 645.744,300.566 645.706,300.698C645.571,301.1 645.295,301.453 644.878,301.756C644.472,302.061 644.021,302.181 643.525,302.117C643.133,302.066 642.85,301.898 642.676,301.613C642.512,301.329 642.456,301.028 642.508,300.709ZM647.838,302.376C647.838,302.376 649.202,294.517 649.202,294.517C649.148,294.447 649.009,294.466 648.786,294.574C648.233,294.786 647.797,294.671 647.475,294.231C647.72,294.115 648.017,293.97 648.365,293.795C648.713,293.619 649.038,293.456 649.341,293.306C649.655,293.148 649.86,293.064 649.956,293.055C650.151,293.007 650.305,293.032 650.419,293.131C650.544,293.221 650.59,293.347 650.559,293.511L650.029,296.31C650.342,295.752 650.732,295.241 651.201,294.776C651.67,294.312 652.188,293.954 652.756,293.701C653.335,293.44 653.945,293.351 654.586,293.434C654.875,293.472 655.175,293.584 655.488,293.772C655.801,293.949 656.049,294.228 656.232,294.608C656.415,294.979 656.445,295.487 656.321,296.132L655.267,301.684C655.23,301.889 655.233,302.073 655.275,302.236C655.317,302.399 655.442,302.494 655.648,302.521C655.793,302.54 655.962,302.493 656.154,302.382C656.347,302.27 656.502,302.127 656.619,301.953C656.682,301.867 656.758,301.845 656.847,301.888C656.948,301.922 656.979,302.005 656.942,302.137C656.81,302.509 656.568,302.845 656.215,303.146C655.862,303.436 655.449,303.551 654.974,303.489C654.581,303.438 654.298,303.27 654.124,302.985C653.962,302.691 653.906,302.39 653.956,302.081L655.081,295.972C655.161,295.594 655.092,295.27 654.874,295C654.658,294.72 654.344,294.548 653.932,294.484C653.282,294.389 652.613,294.576 651.923,295.043C651.235,295.5 650.619,296.292 650.077,297.419C649.979,297.606 649.888,297.826 649.804,298.077C649.731,298.32 649.67,298.59 649.622,298.889L649.205,301.419C649.126,301.871 648.992,302.179 648.803,302.344C648.616,302.498 648.294,302.509 647.838,302.376ZM665.952,302.926C665.759,304.109 665.458,305.151 665.049,306.054C664.639,306.968 664.084,307.652 663.386,308.108C662.686,308.574 661.783,308.735 660.678,308.592C660.037,308.509 659.481,308.337 659.011,308.077C658.55,307.818 658.188,307.529 657.924,307.211C657.669,306.905 657.524,306.64 657.49,306.415C657.462,306.222 657.526,306.046 657.683,305.888C657.84,305.73 658.069,305.623 658.37,305.567C658.552,305.539 658.715,305.533 658.86,305.552C659.014,305.583 659.11,305.653 659.148,305.763C659.207,305.876 659.219,305.993 659.182,306.114C659.146,306.235 659.1,306.345 659.046,306.443C659.045,306.527 659.101,306.67 659.211,306.874C659.332,307.079 659.527,307.277 659.797,307.47C660.077,307.663 660.439,307.789 660.883,307.847C661.482,307.924 661.997,307.839 662.428,307.59C662.869,307.342 663.235,306.98 663.527,306.503C663.828,306.038 664.072,305.523 664.259,304.959C664.447,304.395 664.581,303.84 664.661,303.294L665.015,301.134C664.873,301.504 664.677,301.889 664.427,302.287C664.188,302.676 663.9,303.038 663.564,303.373C663.239,303.698 662.86,303.954 662.427,304.139C661.995,304.314 661.526,304.369 661.019,304.304C660.451,304.23 659.945,304.002 659.5,303.618C659.055,303.235 658.721,302.73 658.496,302.102C658.282,301.475 658.226,300.764 658.327,299.969C658.415,299.276 658.623,298.594 658.95,297.922C659.289,297.242 659.718,296.635 660.237,296.104C660.758,295.562 661.345,295.155 662,294.883C662.655,294.6 663.36,294.507 664.114,294.605C664.93,294.711 665.581,294.921 666.066,295.236C666.561,295.552 666.894,295.826 667.063,296.058L665.952,302.926ZM659.611,300.151C659.509,300.957 659.595,301.677 659.871,302.311C660.148,302.946 660.637,303.309 661.339,303.4C661.804,303.46 662.251,303.371 662.681,303.132C663.11,302.894 663.504,302.561 663.863,302.135C664.222,301.709 664.524,301.239 664.768,300.724C665.012,300.209 665.176,299.7 665.262,299.197L665.684,296.872C665.632,296.54 665.45,296.233 665.14,295.951C664.83,295.659 664.418,295.479 663.901,295.413C663.291,295.334 662.737,295.44 662.238,295.733C661.74,296.015 661.306,296.41 660.937,296.919C660.569,297.418 660.269,297.957 660.038,298.536C659.818,299.106 659.676,299.645 659.611,300.151Z" style="fill:rgb(21,0,75);fill-rule:nonzero;"/>
    </g>
</svg>
